<svg width="379" height="60" viewBox="0 0 379 60" fill="none" xmlns="http://www.w3.org/2000/svg">
<path d="M0 32C0 14.3269 14.3269 0 32 0H349C365.569 0 379 13.4315 379 30C379 46.5685 365.569 60 349 60H3.99999C1.79086 60 0 58.2091 0 56V32Z" fill="#FEBE2D"/>
<path d="M145.495 29.8C145.495 28.9333 145.642 28.0867 145.935 27.26C146.242 26.42 146.682 25.66 147.255 24.98C147.842 24.2867 148.555 23.74 149.395 23.34C150.235 22.9267 151.188 22.72 152.255 22.72C153.522 22.72 154.608 23.0133 155.515 23.6C156.422 24.1733 157.095 24.9133 157.535 25.82L156.115 26.74C155.835 26.14 155.475 25.6667 155.035 25.32C154.608 24.96 154.142 24.7067 153.635 24.56C153.142 24.4133 152.655 24.34 152.175 24.34C151.388 24.34 150.688 24.5 150.075 24.82C149.475 25.14 148.968 25.5667 148.555 26.1C148.142 26.6333 147.828 27.2333 147.615 27.9C147.415 28.5533 147.315 29.2133 147.315 29.88C147.315 30.6133 147.435 31.32 147.675 32C147.928 32.68 148.275 33.28 148.715 33.8C149.155 34.32 149.675 34.7333 150.275 35.04C150.875 35.3467 151.528 35.5 152.235 35.5C152.728 35.5 153.235 35.4133 153.755 35.24C154.275 35.0667 154.762 34.8 155.215 34.44C155.668 34.0667 156.028 33.5867 156.295 33L157.795 33.82C157.502 34.5267 157.048 35.1267 156.435 35.62C155.822 36.1133 155.135 36.4867 154.375 36.74C153.628 36.9933 152.888 37.12 152.155 37.12C151.182 37.12 150.288 36.9133 149.475 36.5C148.662 36.0733 147.955 35.5133 147.355 34.82C146.768 34.1133 146.308 33.3267 145.975 32.46C145.655 31.58 145.495 30.6933 145.495 29.8ZM168.828 37H167.068V31.16C167.068 30.0933 166.874 29.2933 166.488 28.76C166.114 28.2267 165.574 27.96 164.868 27.96C164.414 27.96 163.954 28.08 163.488 28.32C163.034 28.56 162.634 28.8867 162.288 29.3C161.941 29.7 161.688 30.1667 161.528 30.7V37H159.768V22.4H161.528V28.8C161.941 28.0533 162.501 27.4667 163.208 27.04C163.928 26.6 164.701 26.38 165.528 26.38C166.154 26.38 166.674 26.4933 167.088 26.72C167.514 26.9333 167.854 27.24 168.108 27.64C168.361 28.04 168.541 28.5067 168.648 29.04C168.768 29.56 168.828 30.1333 168.828 30.76V37ZM176.185 37.2C175.398 37.2 174.678 37.06 174.025 36.78C173.385 36.4867 172.825 36.0933 172.345 35.6C171.878 35.0933 171.511 34.5133 171.245 33.86C170.991 33.2067 170.865 32.5133 170.865 31.78C170.865 30.7933 171.091 29.8933 171.545 29.08C171.998 28.2667 172.625 27.6133 173.425 27.12C174.238 26.6267 175.165 26.38 176.205 26.38C177.258 26.38 178.171 26.6333 178.945 27.14C179.731 27.6333 180.338 28.2867 180.765 29.1C181.205 29.9 181.425 30.7667 181.425 31.7C181.425 31.8333 181.418 31.9667 181.405 32.1C181.405 32.22 181.398 32.3133 181.385 32.38H172.725C172.778 33.06 172.965 33.6667 173.285 34.2C173.618 34.72 174.045 35.1333 174.565 35.44C175.085 35.7333 175.645 35.88 176.245 35.88C176.885 35.88 177.485 35.72 178.045 35.4C178.618 35.08 179.011 34.66 179.225 34.14L180.745 34.56C180.518 35.0667 180.178 35.52 179.725 35.92C179.285 36.32 178.758 36.6333 178.145 36.86C177.545 37.0867 176.891 37.2 176.185 37.2ZM172.665 31.16H179.785C179.731 30.48 179.538 29.88 179.205 29.36C178.871 28.84 178.445 28.4333 177.925 28.14C177.405 27.8467 176.831 27.7 176.205 27.7C175.591 27.7 175.025 27.8467 174.505 28.14C173.985 28.4333 173.558 28.84 173.225 29.36C172.905 29.88 172.718 30.48 172.665 31.16ZM188.001 37.2C187.214 37.2 186.494 37.06 185.841 36.78C185.201 36.4867 184.641 36.0867 184.161 35.58C183.694 35.0733 183.328 34.4933 183.061 33.84C182.808 33.1867 182.681 32.4933 182.681 31.76C182.681 30.7733 182.901 29.8733 183.341 29.06C183.781 28.2467 184.401 27.6 185.201 27.12C186.001 26.6267 186.928 26.38 187.981 26.38C189.008 26.38 189.901 26.6133 190.661 27.08C191.434 27.5333 192.008 28.1467 192.381 28.92L190.661 29.46C190.394 28.9667 190.021 28.5867 189.541 28.32C189.061 28.04 188.528 27.9 187.941 27.9C187.301 27.9 186.714 28.0667 186.181 28.4C185.661 28.7333 185.248 29.1933 184.941 29.78C184.634 30.3533 184.481 31.0133 184.481 31.76C184.481 32.4933 184.634 33.16 184.941 33.76C185.261 34.3467 185.681 34.8133 186.201 35.16C186.734 35.5067 187.321 35.68 187.961 35.68C188.374 35.68 188.768 35.6067 189.141 35.46C189.528 35.3133 189.861 35.12 190.141 34.88C190.434 34.6267 190.634 34.3533 190.741 34.06L192.461 34.58C192.248 35.0867 191.921 35.54 191.481 35.94C191.054 36.3267 190.541 36.6333 189.941 36.86C189.354 37.0867 188.708 37.2 188.001 37.2ZM201.815 37L198.195 31.92L196.215 33.78V37H194.455V22.4H196.215V31.94L201.615 26.58H203.515L199.355 30.9L203.715 37H201.815ZM209.25 37.2C208.463 37.2 207.75 37.06 207.11 36.78C206.47 36.4867 205.916 36.0933 205.45 35.6C204.983 35.0933 204.623 34.5133 204.37 33.86C204.116 33.2067 203.99 32.52 203.99 31.8C203.99 31.0667 204.116 30.3733 204.37 29.72C204.623 29.0667 204.983 28.4933 205.45 28C205.916 27.4933 206.47 27.1 207.11 26.82C207.763 26.5267 208.483 26.38 209.27 26.38C210.043 26.38 210.75 26.5267 211.39 26.82C212.03 27.1 212.583 27.4933 213.05 28C213.53 28.4933 213.896 29.0667 214.15 29.72C214.403 30.3733 214.53 31.0667 214.53 31.8C214.53 32.52 214.403 33.2067 214.15 33.86C213.896 34.5133 213.536 35.0933 213.07 35.6C212.603 36.0933 212.043 36.4867 211.39 36.78C210.75 37.06 210.036 37.2 209.25 37.2ZM205.79 31.82C205.79 32.54 205.943 33.1933 206.25 33.78C206.57 34.3667 206.99 34.8333 207.51 35.18C208.03 35.5133 208.61 35.68 209.25 35.68C209.89 35.68 210.47 35.5067 210.99 35.16C211.523 34.8133 211.943 34.3467 212.25 33.76C212.57 33.16 212.73 32.5 212.73 31.78C212.73 31.06 212.57 30.4067 212.25 29.82C211.943 29.2333 211.523 28.7667 210.99 28.42C210.47 28.0733 209.89 27.9 209.25 27.9C208.61 27.9 208.03 28.08 207.51 28.44C206.99 28.7867 206.57 29.2533 206.25 29.84C205.943 30.4267 205.79 31.0867 205.79 31.82ZM216.562 32.82V26.56H218.322V32.48C218.322 33.5467 218.509 34.3467 218.882 34.88C219.256 35.4133 219.809 35.68 220.542 35.68C221.022 35.68 221.482 35.58 221.922 35.38C222.376 35.1667 222.782 34.8667 223.142 34.48C223.502 34.0933 223.782 33.6333 223.982 33.1V26.56H225.742V35C225.742 35.2133 225.782 35.3733 225.862 35.48C225.956 35.5733 226.102 35.6267 226.302 35.64V37C226.102 37.0267 225.942 37.04 225.822 37.04C225.716 37.0533 225.609 37.06 225.502 37.06C225.169 37.06 224.882 36.96 224.642 36.76C224.402 36.5467 224.276 36.2867 224.262 35.98L224.222 34.76C223.769 35.5333 223.156 36.1333 222.382 36.56C221.622 36.9867 220.789 37.2 219.882 37.2C218.789 37.2 217.962 36.8333 217.402 36.1C216.842 35.3533 216.562 34.26 216.562 32.82ZM234.074 36.48C233.927 36.5467 233.727 36.6333 233.474 36.74C233.221 36.8467 232.927 36.94 232.594 37.02C232.261 37.1 231.907 37.14 231.534 37.14C231.107 37.14 230.714 37.0667 230.354 36.92C229.994 36.76 229.707 36.52 229.494 36.2C229.281 35.8667 229.174 35.4533 229.174 34.96V27.94H227.754V26.56H229.174V23.08H230.934V26.56H233.274V27.94H230.934V34.42C230.961 34.7933 231.087 35.0733 231.314 35.26C231.541 35.4333 231.807 35.52 232.114 35.52C232.461 35.52 232.781 35.46 233.074 35.34C233.367 35.22 233.561 35.1333 233.654 35.08L234.074 36.48Z" fill="#191817"/>
</svg>
