<svg width="378" height="60" viewBox="0 0 378 60" fill="none" xmlns="http://www.w3.org/2000/svg">
<path d="M0 32C0 14.3269 14.3269 0 32 0H348C364.569 0 378 13.4315 378 30C378 46.5685 364.569 60 348 60H4.00001C1.79087 60 0 58.2091 0 56V32Z" fill="#FEBE2D"/>
<path d="M73.4996 37.6C72.5663 37.6 71.6929 37.4 70.8796 37C70.0796 36.5867 69.3796 36.04 68.7796 35.36C68.1796 34.6667 67.7129 33.8933 67.3796 33.04C67.0463 32.1733 66.8796 31.28 66.8796 30.36C66.8796 29.4 67.0463 28.4933 67.3796 27.64C67.7129 26.7733 68.1729 26.0067 68.7596 25.34C69.3596 24.6733 70.0596 24.1533 70.8596 23.78C71.6729 23.3933 72.5529 23.2 73.4996 23.2C74.8729 23.2 76.0063 23.4867 76.8996 24.06C77.7929 24.6333 78.4663 25.38 78.9196 26.3L77.5396 27.26C77.1263 26.4333 76.5596 25.82 75.8396 25.42C75.1196 25.02 74.3263 24.82 73.4596 24.82C72.7396 24.82 72.0863 24.9733 71.4996 25.28C70.9129 25.5867 70.4063 26.0067 69.9796 26.54C69.5663 27.06 69.2463 27.6533 69.0196 28.32C68.8063 28.9867 68.6996 29.68 68.6996 30.4C68.6996 31.16 68.8196 31.88 69.0596 32.56C69.3129 33.2267 69.6663 33.82 70.1196 34.34C70.5729 34.8467 71.0996 35.2467 71.6996 35.54C72.2996 35.8333 72.9463 35.98 73.6396 35.98C74.4529 35.98 75.2263 35.7733 75.9596 35.36C76.6929 34.9467 77.3863 34.3133 78.0396 33.46V35.32C76.7596 36.84 75.2463 37.6 73.4996 37.6ZM77.8196 31.78H74.7596V30.42H79.3396V37.5H77.8196V31.78ZM81.797 37.5V27.06H83.557V37.5H81.797ZM81.797 25.1V22.9H83.557V25.1H81.797ZM102.146 37.5H100.386V31.66C100.386 30.5667 100.206 29.76 99.8463 29.24C99.4997 28.72 98.9797 28.46 98.2863 28.46C97.5797 28.46 96.9397 28.72 96.3663 29.24C95.793 29.7467 95.3863 30.4067 95.1463 31.22V37.5H93.3863V31.66C93.3863 30.5533 93.213 29.7467 92.8663 29.24C92.5197 28.72 91.9997 28.46 91.3063 28.46C90.613 28.46 89.973 28.7133 89.3863 29.22C88.813 29.7133 88.4063 30.3733 88.1663 31.2V37.5H86.4063V27.06H88.0063V29.3C88.433 28.5267 88.9863 27.9333 89.6663 27.52C90.3463 27.0933 91.113 26.88 91.9663 26.88C92.833 26.88 93.5263 27.12 94.0463 27.6C94.5663 28.0667 94.8863 28.6733 95.0063 29.42C95.473 28.5933 96.0397 27.9667 96.7063 27.54C97.373 27.1 98.133 26.88 98.9863 26.88C99.5863 26.88 100.086 26.9933 100.486 27.22C100.9 27.4333 101.226 27.74 101.466 28.14C101.706 28.5267 101.88 28.9867 101.986 29.52C102.093 30.0533 102.146 30.6333 102.146 31.26V37.5ZM120.623 37.5H118.863V31.66C118.863 30.5667 118.683 29.76 118.323 29.24C117.976 28.72 117.456 28.46 116.763 28.46C116.056 28.46 115.416 28.72 114.843 29.24C114.27 29.7467 113.863 30.4067 113.623 31.22V37.5H111.863V31.66C111.863 30.5533 111.69 29.7467 111.343 29.24C110.996 28.72 110.476 28.46 109.783 28.46C109.09 28.46 108.45 28.7133 107.863 29.22C107.29 29.7133 106.883 30.3733 106.643 31.2V37.5H104.883V27.06H106.483V29.3C106.91 28.5267 107.463 27.9333 108.143 27.52C108.823 27.0933 109.59 26.88 110.443 26.88C111.31 26.88 112.003 27.12 112.523 27.6C113.043 28.0667 113.363 28.6733 113.483 29.42C113.95 28.5933 114.516 27.9667 115.183 27.54C115.85 27.1 116.61 26.88 117.463 26.88C118.063 26.88 118.563 26.9933 118.963 27.22C119.376 27.4333 119.703 27.74 119.943 28.14C120.183 28.5267 120.356 28.9867 120.463 29.52C120.57 30.0533 120.623 30.6333 120.623 31.26V37.5ZM127.979 37.7C127.193 37.7 126.473 37.56 125.819 37.28C125.179 36.9867 124.619 36.5933 124.139 36.1C123.673 35.5933 123.306 35.0133 123.039 34.36C122.786 33.7067 122.659 33.0133 122.659 32.28C122.659 31.2933 122.886 30.3933 123.339 29.58C123.793 28.7667 124.419 28.1133 125.219 27.62C126.033 27.1267 126.959 26.88 127.999 26.88C129.053 26.88 129.966 27.1333 130.739 27.64C131.526 28.1333 132.133 28.7867 132.559 29.6C132.999 30.4 133.219 31.2667 133.219 32.2C133.219 32.3333 133.213 32.4667 133.199 32.6C133.199 32.72 133.193 32.8133 133.179 32.88H124.519C124.573 33.56 124.759 34.1667 125.079 34.7C125.413 35.22 125.839 35.6333 126.359 35.94C126.879 36.2333 127.439 36.38 128.039 36.38C128.679 36.38 129.279 36.22 129.839 35.9C130.413 35.58 130.806 35.16 131.019 34.64L132.539 35.06C132.313 35.5667 131.973 36.02 131.519 36.42C131.079 36.82 130.553 37.1333 129.939 37.36C129.339 37.5867 128.686 37.7 127.979 37.7ZM124.459 31.66H131.579C131.526 30.98 131.333 30.38 130.999 29.86C130.666 29.34 130.239 28.9333 129.719 28.64C129.199 28.3467 128.626 28.2 127.999 28.2C127.386 28.2 126.819 28.3467 126.299 28.64C125.779 28.9333 125.353 29.34 125.019 29.86C124.699 30.38 124.513 30.98 124.459 31.66ZM152.794 37.5V26.66L148.114 35H147.014L142.314 26.66V37.5H140.514V23.3H142.414L147.554 32.52L152.714 23.3H154.594V37.5H152.794ZM158.195 40.34C158.368 40.3533 158.542 40.3667 158.715 40.38C158.888 40.4067 159.022 40.42 159.115 40.42C159.328 40.42 159.515 40.3467 159.675 40.2C159.835 40.0533 160.008 39.7667 160.195 39.34C160.395 38.9267 160.648 38.3133 160.955 37.5L156.535 27.06H158.395L161.915 35.72L165.095 27.06H166.835L161.755 40.24C161.635 40.5467 161.455 40.8333 161.215 41.1C160.988 41.38 160.695 41.6 160.335 41.76C159.975 41.92 159.542 42 159.035 42C158.915 42 158.788 41.9933 158.655 41.98C158.535 41.9667 158.382 41.94 158.195 41.9V40.34ZM184.305 33.84C184.305 34.5733 184.118 35.2133 183.745 35.76C183.372 36.3067 182.865 36.7333 182.225 37.04C181.598 37.3467 180.905 37.5 180.145 37.5H173.405V23.3H180.465C181.132 23.3 181.705 23.48 182.185 23.84C182.678 24.1867 183.052 24.64 183.305 25.2C183.572 25.7467 183.705 26.32 183.705 26.92C183.705 27.6133 183.525 28.2667 183.165 28.88C182.818 29.48 182.318 29.9267 181.665 30.22C182.478 30.46 183.118 30.9067 183.585 31.56C184.065 32.2 184.305 32.96 184.305 33.84ZM182.485 33.52C182.485 33.08 182.385 32.6733 182.185 32.3C181.998 31.9267 181.738 31.6267 181.405 31.4C181.085 31.1733 180.712 31.06 180.285 31.06H175.205V35.94H180.145C180.585 35.94 180.978 35.8267 181.325 35.6C181.685 35.3733 181.965 35.08 182.165 34.72C182.378 34.3467 182.485 33.9467 182.485 33.52ZM175.205 24.86V29.6H179.725C180.152 29.6 180.525 29.4933 180.845 29.28C181.178 29.0667 181.438 28.78 181.625 28.42C181.825 28.06 181.925 27.6667 181.925 27.24C181.925 26.7867 181.832 26.3867 181.645 26.04C181.472 25.68 181.225 25.3933 180.905 25.18C180.598 24.9667 180.245 24.86 179.845 24.86H175.205ZM191.163 37.7C190.376 37.7 189.656 37.56 189.003 37.28C188.363 36.9867 187.803 36.5933 187.323 36.1C186.856 35.5933 186.49 35.0133 186.223 34.36C185.97 33.7067 185.843 33.0133 185.843 32.28C185.843 31.2933 186.07 30.3933 186.523 29.58C186.976 28.7667 187.603 28.1133 188.403 27.62C189.216 27.1267 190.143 26.88 191.183 26.88C192.236 26.88 193.15 27.1333 193.923 27.64C194.71 28.1333 195.316 28.7867 195.743 29.6C196.183 30.4 196.403 31.2667 196.403 32.2C196.403 32.3333 196.396 32.4667 196.383 32.6C196.383 32.72 196.376 32.8133 196.363 32.88H187.703C187.756 33.56 187.943 34.1667 188.263 34.7C188.596 35.22 189.023 35.6333 189.543 35.94C190.063 36.2333 190.623 36.38 191.223 36.38C191.863 36.38 192.463 36.22 193.023 35.9C193.596 35.58 193.99 35.16 194.203 34.64L195.723 35.06C195.496 35.5667 195.156 36.02 194.703 36.42C194.263 36.82 193.736 37.1333 193.123 37.36C192.523 37.5867 191.87 37.7 191.163 37.7ZM187.643 31.66H194.763C194.71 30.98 194.516 30.38 194.183 29.86C193.85 29.34 193.423 28.9333 192.903 28.64C192.383 28.3467 191.81 28.2 191.183 28.2C190.57 28.2 190.003 28.3467 189.483 28.64C188.963 28.9333 188.536 29.34 188.203 29.86C187.883 30.38 187.696 30.98 187.643 31.66ZM197.539 34.48C197.539 33.8133 197.726 33.24 198.099 32.76C198.486 32.2667 199.013 31.8867 199.679 31.62C200.346 31.3533 201.119 31.22 201.999 31.22C202.466 31.22 202.959 31.26 203.479 31.34C203.999 31.4067 204.459 31.5133 204.859 31.66V30.9C204.859 30.1 204.619 29.4733 204.139 29.02C203.659 28.5533 202.979 28.32 202.099 28.32C201.526 28.32 200.973 28.4267 200.439 28.64C199.919 28.84 199.366 29.1333 198.779 29.52L198.139 28.28C198.819 27.8133 199.499 27.4667 200.179 27.24C200.859 27 201.566 26.88 202.299 26.88C203.633 26.88 204.686 27.2533 205.459 28C206.233 28.7333 206.619 29.76 206.619 31.08V35.5C206.619 35.7133 206.659 35.8733 206.739 35.98C206.833 36.0733 206.979 36.1267 207.179 36.14V37.5C207.006 37.5267 206.853 37.5467 206.719 37.56C206.599 37.5733 206.499 37.58 206.419 37.58C206.006 37.58 205.693 37.4667 205.479 37.24C205.279 37.0133 205.166 36.7733 205.139 36.52L205.099 35.86C204.646 36.4467 204.053 36.9 203.319 37.22C202.586 37.54 201.859 37.7 201.139 37.7C200.446 37.7 199.826 37.56 199.279 37.28C198.733 36.9867 198.306 36.6 197.999 36.12C197.693 35.6267 197.539 35.08 197.539 34.48ZM204.339 35.22C204.499 35.0333 204.626 34.8467 204.719 34.66C204.813 34.46 204.859 34.2933 204.859 34.16V32.86C204.446 32.7 204.013 32.58 203.559 32.5C203.106 32.4067 202.659 32.36 202.219 32.36C201.326 32.36 200.599 32.54 200.039 32.9C199.493 33.2467 199.219 33.7267 199.219 34.34C199.219 34.6733 199.306 35 199.479 35.32C199.666 35.6267 199.933 35.88 200.279 36.08C200.639 36.28 201.079 36.38 201.599 36.38C202.146 36.38 202.666 36.2733 203.159 36.06C203.653 35.8333 204.046 35.5533 204.339 35.22ZM218.494 37.5H216.734V31.66C216.734 30.5533 216.56 29.7467 216.214 29.24C215.88 28.72 215.367 28.46 214.674 28.46C214.194 28.46 213.714 28.58 213.234 28.82C212.767 29.06 212.347 29.3867 211.974 29.8C211.614 30.2 211.354 30.6667 211.194 31.2V37.5H209.434V27.06H211.034V29.3C211.314 28.8067 211.674 28.38 212.114 28.02C212.554 27.66 213.054 27.38 213.614 27.18C214.174 26.98 214.76 26.88 215.374 26.88C215.974 26.88 216.474 26.9933 216.874 27.22C217.287 27.4333 217.607 27.74 217.834 28.14C218.074 28.5267 218.24 28.9867 218.334 29.52C218.44 30.0533 218.494 30.6333 218.494 31.26V37.5ZM224.811 37.7C223.944 37.7 223.131 37.56 222.371 37.28C221.611 36.9867 220.957 36.5533 220.411 35.98L221.091 34.74C221.691 35.3 222.291 35.7 222.891 35.94C223.491 36.18 224.104 36.3 224.731 36.3C225.451 36.3 226.037 36.1667 226.491 35.9C226.944 35.62 227.171 35.2133 227.171 34.68C227.171 34.2933 227.051 34.0067 226.811 33.82C226.584 33.6333 226.257 33.48 225.831 33.36C225.404 33.2267 224.897 33.08 224.311 32.92C223.591 32.7067 222.984 32.48 222.491 32.24C221.997 32 221.624 31.7 221.371 31.34C221.117 30.98 220.991 30.5267 220.991 29.98C220.991 29.3133 221.164 28.7533 221.511 28.3C221.857 27.8333 222.331 27.48 222.931 27.24C223.544 27 224.237 26.88 225.011 26.88C225.784 26.88 226.484 27 227.111 27.24C227.737 27.48 228.277 27.8333 228.731 28.3L227.931 29.52C227.517 29.0933 227.064 28.78 226.571 28.58C226.077 28.3667 225.524 28.26 224.911 28.26C224.551 28.26 224.197 28.3067 223.851 28.4C223.504 28.48 223.217 28.6333 222.991 28.86C222.764 29.0733 222.651 29.38 222.651 29.78C222.651 30.1133 222.737 30.38 222.911 30.58C223.097 30.7667 223.364 30.9267 223.711 31.06C224.071 31.1933 224.504 31.34 225.011 31.5C225.797 31.7267 226.477 31.9533 227.051 32.18C227.637 32.4067 228.091 32.7 228.411 33.06C228.731 33.42 228.891 33.92 228.891 34.56C228.891 35.5467 228.517 36.32 227.771 36.88C227.024 37.4267 226.037 37.7 224.811 37.7ZM240.03 23.3H241.55L247.35 37.5H245.43L243.75 33.34H237.79L236.13 37.5H234.21L240.03 23.3ZM243.35 31.94L240.79 25.38L238.15 31.94H243.35ZM249.005 22.9H250.765V34.8C250.765 35.3733 250.845 35.7267 251.005 35.86C251.165 35.9933 251.358 36.06 251.585 36.06C251.865 36.06 252.132 36.0333 252.385 35.98C252.638 35.9133 252.852 35.8467 253.025 35.78L253.305 37.22C253.012 37.34 252.665 37.44 252.265 37.52C251.865 37.6 251.512 37.64 251.205 37.64C250.525 37.64 249.985 37.4467 249.585 37.06C249.198 36.6733 249.005 36.1333 249.005 35.44V22.9ZM260.208 28.6C259.328 28.6133 258.548 28.84 257.868 29.28C257.201 29.7067 256.728 30.3 256.448 31.06V37.5H254.688V27.06H256.328V29.48C256.688 28.76 257.161 28.18 257.748 27.74C258.348 27.2867 258.974 27.0333 259.628 26.98C259.761 26.98 259.874 26.98 259.968 26.98C260.061 26.98 260.141 26.9867 260.208 27V28.6ZM266.339 37.7C265.552 37.7 264.832 37.56 264.179 37.28C263.539 36.9867 262.979 36.5933 262.499 36.1C262.032 35.5933 261.665 35.0133 261.399 34.36C261.145 33.7067 261.019 33.0133 261.019 32.28C261.019 31.2933 261.245 30.3933 261.699 29.58C262.152 28.7667 262.779 28.1133 263.579 27.62C264.392 27.1267 265.319 26.88 266.359 26.88C267.412 26.88 268.325 27.1333 269.099 27.64C269.885 28.1333 270.492 28.7867 270.919 29.6C271.359 30.4 271.579 31.2667 271.579 32.2C271.579 32.3333 271.572 32.4667 271.559 32.6C271.559 32.72 271.552 32.8133 271.539 32.88H262.879C262.932 33.56 263.119 34.1667 263.439 34.7C263.772 35.22 264.199 35.6333 264.719 35.94C265.239 36.2333 265.799 36.38 266.399 36.38C267.039 36.38 267.639 36.22 268.199 35.9C268.772 35.58 269.165 35.16 269.379 34.64L270.899 35.06C270.672 35.5667 270.332 36.02 269.879 36.42C269.439 36.82 268.912 37.1333 268.299 37.36C267.699 37.5867 267.045 37.7 266.339 37.7ZM262.819 31.66H269.939C269.885 30.98 269.692 30.38 269.359 29.86C269.025 29.34 268.599 28.9333 268.079 28.64C267.559 28.3467 266.985 28.2 266.359 28.2C265.745 28.2 265.179 28.3467 264.659 28.64C264.139 28.9333 263.712 29.34 263.379 29.86C263.059 30.38 262.872 30.98 262.819 31.66ZM272.715 34.48C272.715 33.8133 272.902 33.24 273.275 32.76C273.662 32.2667 274.189 31.8867 274.855 31.62C275.522 31.3533 276.295 31.22 277.175 31.22C277.642 31.22 278.135 31.26 278.655 31.34C279.175 31.4067 279.635 31.5133 280.035 31.66V30.9C280.035 30.1 279.795 29.4733 279.315 29.02C278.835 28.5533 278.155 28.32 277.275 28.32C276.702 28.32 276.149 28.4267 275.615 28.64C275.095 28.84 274.542 29.1333 273.955 29.52L273.315 28.28C273.995 27.8133 274.675 27.4667 275.355 27.24C276.035 27 276.742 26.88 277.475 26.88C278.809 26.88 279.862 27.2533 280.635 28C281.409 28.7333 281.795 29.76 281.795 31.08V35.5C281.795 35.7133 281.835 35.8733 281.915 35.98C282.009 36.0733 282.155 36.1267 282.355 36.14V37.5C282.182 37.5267 282.029 37.5467 281.895 37.56C281.775 37.5733 281.675 37.58 281.595 37.58C281.182 37.58 280.869 37.4667 280.655 37.24C280.455 37.0133 280.342 36.7733 280.315 36.52L280.275 35.86C279.822 36.4467 279.229 36.9 278.495 37.22C277.762 37.54 277.035 37.7 276.315 37.7C275.622 37.7 275.002 37.56 274.455 37.28C273.909 36.9867 273.482 36.6 273.175 36.12C272.869 35.6267 272.715 35.08 272.715 34.48ZM279.515 35.22C279.675 35.0333 279.802 34.8467 279.895 34.66C279.989 34.46 280.035 34.2933 280.035 34.16V32.86C279.622 32.7 279.189 32.58 278.735 32.5C278.282 32.4067 277.835 32.36 277.395 32.36C276.502 32.36 275.775 32.54 275.215 32.9C274.669 33.2467 274.395 33.7267 274.395 34.34C274.395 34.6733 274.482 35 274.655 35.32C274.842 35.6267 275.109 35.88 275.455 36.08C275.815 36.28 276.255 36.38 276.775 36.38C277.322 36.38 277.842 36.2733 278.335 36.06C278.829 35.8333 279.222 35.5533 279.515 35.22ZM283.929 32.3C283.929 31.3133 284.129 30.4133 284.529 29.6C284.943 28.7733 285.503 28.1133 286.209 27.62C286.929 27.1267 287.749 26.88 288.669 26.88C289.509 26.88 290.263 27.1 290.929 27.54C291.596 27.98 292.116 28.5133 292.489 29.14V22.9H294.249V35.5C294.249 35.7133 294.289 35.8733 294.369 35.98C294.463 36.0733 294.609 36.1267 294.809 36.14V37.5C294.476 37.5533 294.216 37.58 294.029 37.58C293.683 37.58 293.376 37.46 293.109 37.22C292.856 36.98 292.729 36.7133 292.729 36.42V35.54C292.316 36.2067 291.763 36.7333 291.069 37.12C290.376 37.5067 289.656 37.7 288.909 37.7C288.189 37.7 287.523 37.56 286.909 37.28C286.309 36.9867 285.783 36.5867 285.329 36.08C284.889 35.5733 284.543 35 284.289 34.36C284.049 33.7067 283.929 33.02 283.929 32.3ZM292.489 33.84V30.84C292.329 30.3867 292.069 29.98 291.709 29.62C291.349 29.2467 290.943 28.9533 290.489 28.74C290.049 28.5133 289.609 28.4 289.169 28.4C288.649 28.4 288.176 28.5133 287.749 28.74C287.336 28.9533 286.976 29.2467 286.669 29.62C286.376 29.98 286.149 30.3933 285.989 30.86C285.829 31.3267 285.749 31.8133 285.749 32.32C285.749 32.84 285.836 33.3333 286.009 33.8C286.196 34.2667 286.449 34.68 286.769 35.04C287.103 35.4 287.483 35.68 287.909 35.88C288.349 36.08 288.823 36.18 289.329 36.18C289.649 36.18 289.976 36.12 290.309 36C290.656 35.88 290.983 35.7133 291.289 35.5C291.596 35.2867 291.856 35.04 292.069 34.76C292.283 34.4667 292.423 34.16 292.489 33.84ZM297.668 40.34C297.841 40.3533 298.014 40.3667 298.188 40.38C298.361 40.4067 298.494 40.42 298.588 40.42C298.801 40.42 298.988 40.3467 299.148 40.2C299.308 40.0533 299.481 39.7667 299.668 39.34C299.868 38.9267 300.121 38.3133 300.428 37.5L296.008 27.06H297.868L301.388 35.72L304.568 27.06H306.308L301.228 40.24C301.108 40.5467 300.928 40.8333 300.688 41.1C300.461 41.38 300.168 41.6 299.808 41.76C299.448 41.92 299.014 42 298.508 42C298.388 42 298.261 41.9933 298.128 41.98C298.008 41.9667 297.854 41.94 297.668 41.9V40.34ZM308.406 32.7V23.16H310.166V32.7H308.406ZM308.406 37.5V35.02H310.166V37.5H308.406Z" fill="#191817"/>
</svg>
