<svg width="184" height="55" viewBox="0 0 184 55" fill="none" xmlns="http://www.w3.org/2000/svg">
<path d="M0.5 27.5C0.5 12.3122 12.8122 0 28 0H151.5C169.173 0 183.5 14.3269 183.5 32V51C183.5 53.2091 181.709 55 179.5 55H28C12.8122 55 0.5 42.6878 0.5 27.5Z" fill="#2784A7"/>
<path d="M73.3288 31.7617C72.508 30.5148 71.3041 29.37 69.8813 28.4297C68.4312 27.4894 66.7895 26.7535 65.0931 26.2016C63.1505 25.5679 59.7304 24.8995 57.733 24.6133L59.8672 22.8082C60.1955 21.8679 58.8275 21.132 57.733 21.643L48.1567 26.1402C47.2811 26.5491 47.2811 27.5303 48.1567 27.9391L57.733 32.4363C58.8275 32.9474 60.1955 32.2115 59.8672 31.2711L57.733 28.4297C59.1558 28.4706 62.1763 29.1577 63.5443 29.3826C66.3351 29.8732 68.7595 31.2711 70.4833 33.0087L70.5106 33.0291C70.9758 33.4993 71.8513 33.6628 72.5627 33.3971C73.3835 33.1109 73.7392 32.375 73.3288 31.7617Z" fill="white" stroke="black"/>
<path d="M102.426 31.34C102.426 32.0733 102.24 32.7133 101.866 33.26C101.493 33.8067 100.986 34.2333 100.346 34.54C99.7195 34.8467 99.0262 35 98.2662 35H91.5262V20.8H98.5862C99.2528 20.8 99.8262 20.98 100.306 21.34C100.8 21.6867 101.173 22.14 101.426 22.7C101.693 23.2467 101.826 23.82 101.826 24.42C101.826 25.1133 101.646 25.7667 101.286 26.38C100.94 26.98 100.44 27.4267 99.7862 27.72C100.6 27.96 101.24 28.4067 101.706 29.06C102.186 29.7 102.426 30.46 102.426 31.34ZM93.3262 22.36V27.1H97.8462C98.4728 27.1 98.9928 26.8733 99.4062 26.42C99.8328 25.9533 100.046 25.3933 100.046 24.74C100.046 24.0733 99.8462 23.5133 99.4462 23.06C99.0595 22.5933 98.5662 22.36 97.9662 22.36H93.3262ZM100.606 31.02C100.606 30.58 100.506 30.1733 100.306 29.8C100.12 29.4267 99.8595 29.1267 99.5262 28.9C99.2062 28.6733 98.8328 28.56 98.4062 28.56H93.3262V33.44H98.2662C98.7062 33.44 99.0995 33.3267 99.4462 33.1C99.8062 32.8733 100.086 32.58 100.286 32.22C100.5 31.8467 100.606 31.4467 100.606 31.02ZM103.844 31.98C103.844 31.3133 104.031 30.74 104.404 30.26C104.791 29.7667 105.317 29.3867 105.984 29.12C106.651 28.8533 107.424 28.72 108.304 28.72C108.771 28.72 109.264 28.76 109.784 28.84C110.304 28.9067 110.764 29.0133 111.164 29.16V28.4C111.164 27.6 110.924 26.9733 110.444 26.52C109.964 26.0533 109.284 25.82 108.404 25.82C107.831 25.82 107.277 25.9267 106.744 26.14C106.224 26.34 105.671 26.6333 105.084 27.02L104.444 25.78C105.124 25.3133 105.804 24.9667 106.484 24.74C107.164 24.5 107.871 24.38 108.604 24.38C109.937 24.38 110.991 24.7533 111.764 25.5C112.537 26.2333 112.924 27.26 112.924 28.58V33C112.924 33.4133 113.111 33.6267 113.484 33.64V35C113.311 35.0267 113.157 35.0467 113.024 35.06C112.904 35.0733 112.804 35.08 112.724 35.08C112.311 35.08 111.997 34.9667 111.784 34.74C111.584 34.5133 111.471 34.2733 111.444 34.02L111.404 33.36C110.951 33.9467 110.357 34.4 109.624 34.72C108.891 35.04 108.164 35.2 107.444 35.2C106.751 35.2 106.131 35.06 105.584 34.78C105.037 34.4867 104.611 34.1 104.304 33.62C103.997 33.1267 103.844 32.58 103.844 31.98ZM110.644 32.72C110.804 32.5333 110.931 32.3467 111.024 32.16C111.117 31.96 111.164 31.7933 111.164 31.66V30.36C110.311 30.0267 109.431 29.86 108.524 29.86C107.631 29.86 106.904 30.04 106.344 30.4C105.797 30.7467 105.524 31.2267 105.524 31.84C105.524 32.1733 105.611 32.5 105.784 32.82C105.971 33.1267 106.237 33.38 106.584 33.58C106.944 33.78 107.384 33.88 107.904 33.88C108.451 33.88 108.971 33.7733 109.464 33.56C109.957 33.3333 110.351 33.0533 110.644 32.72ZM120.358 35.2C119.318 35.2 118.398 34.9533 117.598 34.46C116.798 33.9533 116.172 33.2867 115.718 32.46C115.265 31.6333 115.038 30.7333 115.038 29.76C115.038 28.7733 115.258 27.8733 115.698 27.06C116.138 26.2467 116.758 25.6 117.558 25.12C118.358 24.6267 119.285 24.38 120.338 24.38C121.365 24.38 122.258 24.6133 123.018 25.08C123.792 25.5333 124.365 26.1467 124.738 26.92L123.018 27.46C122.752 26.9667 122.378 26.5867 121.898 26.32C121.418 26.04 120.885 25.9 120.298 25.9C119.658 25.9 119.072 26.0667 118.538 26.4C118.018 26.7333 117.605 27.1933 117.298 27.78C116.992 28.3533 116.838 29.0133 116.838 29.76C116.838 30.4933 116.992 31.16 117.298 31.76C117.618 32.3467 118.038 32.8133 118.558 33.16C119.092 33.5067 119.678 33.68 120.318 33.68C120.732 33.68 121.125 33.6067 121.498 33.46C121.885 33.3133 122.218 33.12 122.498 32.88C122.792 32.6267 122.992 32.3533 123.098 32.06L124.818 32.58C124.512 33.34 123.952 33.9667 123.138 34.46C122.338 34.9533 121.412 35.2 120.358 35.2ZM134.173 35L130.553 29.92L128.573 31.78V35H126.813V20.4H128.573V29.94L133.973 24.58H135.873L131.713 28.9L136.073 35H134.173Z" fill="white"/>
</svg>
