<svg width="182" height="56" viewBox="0 0 182 56" fill="none" xmlns="http://www.w3.org/2000/svg">
<path d="M0.5 27.5684C0.5 12.3805 12.8122 0.0683594 28 0.0683594H150C167.673 0.0683594 182 14.3952 182 32.0684V51.0684C182 53.2775 180.209 55.0684 178 55.0684H28C12.8122 55.0684 0.5 42.7562 0.5 27.5684Z" fill="#2784A7"/>
<path d="M72.5788 31.8301C71.758 30.5831 70.5541 29.4384 69.1313 28.4981C67.6812 27.5578 66.0395 26.8219 64.3431 26.2699C62.4005 25.6362 58.9804 24.9678 56.983 24.6816L59.1172 22.8766C59.4455 21.9363 58.0775 21.2004 56.983 21.7114L47.4067 26.2086C46.5311 26.6174 46.5311 27.5986 47.4067 28.0075L56.983 32.5047C58.0775 33.0157 59.4455 32.2798 59.1172 31.3395L56.983 28.4981C58.4058 28.539 61.4263 29.2261 62.7943 29.451C65.5851 29.9416 68.0095 31.3395 69.7333 33.077L69.7606 33.0975C70.2258 33.5677 71.1013 33.7312 71.8127 33.4654C72.6335 33.1793 72.9892 32.4434 72.5788 31.8301Z" fill="white" stroke="black"/>
<path d="M101.676 31.4084C101.676 32.1417 101.49 32.7817 101.116 33.3284C100.743 33.875 100.236 34.3017 99.5962 34.6084C98.9695 34.915 98.2762 35.0684 97.5162 35.0684H90.7762V20.8684H97.8362C98.5028 20.8684 99.0762 21.0484 99.5562 21.4084C100.05 21.755 100.423 22.2084 100.676 22.7684C100.943 23.315 101.076 23.8884 101.076 24.4884C101.076 25.1817 100.896 25.835 100.536 26.4484C100.19 27.0484 99.6895 27.495 99.0362 27.7884C99.8495 28.0284 100.49 28.475 100.956 29.1284C101.436 29.7684 101.676 30.5284 101.676 31.4084ZM92.5762 22.4284V27.1684H97.0962C97.7228 27.1684 98.2428 26.9417 98.6562 26.4884C99.0828 26.0217 99.2962 25.4617 99.2962 24.8084C99.2962 24.1417 99.0962 23.5817 98.6962 23.1284C98.3095 22.6617 97.8162 22.4284 97.2162 22.4284H92.5762ZM99.8562 31.0884C99.8562 30.6484 99.7562 30.2417 99.5562 29.8684C99.3695 29.495 99.1095 29.195 98.7762 28.9684C98.4562 28.7417 98.0828 28.6284 97.6562 28.6284H92.5762V33.5084H97.5162C97.9562 33.5084 98.3495 33.395 98.6962 33.1684C99.0562 32.9417 99.3362 32.6484 99.5362 32.2884C99.7495 31.915 99.8562 31.515 99.8562 31.0884ZM103.094 32.0484C103.094 31.3817 103.281 30.8084 103.654 30.3284C104.041 29.835 104.567 29.455 105.234 29.1884C105.901 28.9217 106.674 28.7884 107.554 28.7884C108.021 28.7884 108.514 28.8284 109.034 28.9084C109.554 28.975 110.014 29.0817 110.414 29.2284V28.4684C110.414 27.6684 110.174 27.0417 109.694 26.5884C109.214 26.1217 108.534 25.8884 107.654 25.8884C107.081 25.8884 106.527 25.995 105.994 26.2084C105.474 26.4084 104.921 26.7017 104.334 27.0884L103.694 25.8484C104.374 25.3817 105.054 25.035 105.734 24.8084C106.414 24.5684 107.121 24.4484 107.854 24.4484C109.187 24.4484 110.241 24.8217 111.014 25.5684C111.787 26.3017 112.174 27.3284 112.174 28.6484V33.0684C112.174 33.4817 112.361 33.695 112.734 33.7084V35.0684C112.561 35.095 112.407 35.115 112.274 35.1284C112.154 35.1417 112.054 35.1484 111.974 35.1484C111.561 35.1484 111.247 35.035 111.034 34.8084C110.834 34.5817 110.721 34.3417 110.694 34.0884L110.654 33.4284C110.201 34.015 109.607 34.4684 108.874 34.7884C108.141 35.1084 107.414 35.2684 106.694 35.2684C106.001 35.2684 105.381 35.1284 104.834 34.8484C104.287 34.555 103.861 34.1684 103.554 33.6884C103.247 33.195 103.094 32.6484 103.094 32.0484ZM109.894 32.7884C110.054 32.6017 110.181 32.415 110.274 32.2284C110.367 32.0284 110.414 31.8617 110.414 31.7284V30.4284C109.561 30.095 108.681 29.9284 107.774 29.9284C106.881 29.9284 106.154 30.1084 105.594 30.4684C105.047 30.815 104.774 31.295 104.774 31.9084C104.774 32.2417 104.861 32.5684 105.034 32.8884C105.221 33.195 105.487 33.4484 105.834 33.6484C106.194 33.8484 106.634 33.9484 107.154 33.9484C107.701 33.9484 108.221 33.8417 108.714 33.6284C109.207 33.4017 109.601 33.1217 109.894 32.7884ZM119.608 35.2684C118.568 35.2684 117.648 35.0217 116.848 34.5284C116.048 34.0217 115.422 33.355 114.968 32.5284C114.515 31.7017 114.288 30.8017 114.288 29.8284C114.288 28.8417 114.508 27.9417 114.948 27.1284C115.388 26.315 116.008 25.6684 116.808 25.1884C117.608 24.695 118.535 24.4484 119.588 24.4484C120.615 24.4484 121.508 24.6817 122.268 25.1484C123.042 25.6017 123.615 26.215 123.988 26.9884L122.268 27.5284C122.002 27.035 121.628 26.655 121.148 26.3884C120.668 26.1084 120.135 25.9684 119.548 25.9684C118.908 25.9684 118.322 26.135 117.788 26.4684C117.268 26.8017 116.855 27.2617 116.548 27.8484C116.242 28.4217 116.088 29.0817 116.088 29.8284C116.088 30.5617 116.242 31.2284 116.548 31.8284C116.868 32.415 117.288 32.8817 117.808 33.2284C118.342 33.575 118.928 33.7484 119.568 33.7484C119.982 33.7484 120.375 33.675 120.748 33.5284C121.135 33.3817 121.468 33.1884 121.748 32.9484C122.042 32.695 122.242 32.4217 122.348 32.1284L124.068 32.6484C123.762 33.4084 123.202 34.035 122.388 34.5284C121.588 35.0217 120.662 35.2684 119.608 35.2684ZM133.423 35.0684L129.803 29.9884L127.823 31.8484V35.0684H126.063V20.4684H127.823V30.0084L133.223 24.6484H135.123L130.963 28.9684L135.323 35.0684H133.423Z" fill="white"/>
</svg>
