<svg width="197" height="60" viewBox="0 0 197 60" fill="none" xmlns="http://www.w3.org/2000/svg">
<path d="M0 30C0 13.4315 13.4315 0 30 0H165C182.673 0 197 14.3269 197 32V56C197 58.2091 195.209 60 193 60H30C13.4315 60 0 46.5685 0 30Z" fill="#2784A7"/>
<path d="M79.8288 34.2617C79.008 33.0148 77.8041 31.87 76.3813 30.9297C74.9312 29.9894 73.2895 29.2535 71.5931 28.7016C69.6505 28.0679 66.2304 27.3995 64.233 27.1133L66.3672 25.3082C66.6955 24.3679 65.3275 23.632 64.233 24.143L54.6567 28.6402C53.7811 29.0491 53.7811 30.0303 54.6567 30.4391L64.233 34.9363C65.3275 35.4474 66.6955 34.7115 66.3672 33.7711L64.233 30.9297C65.6558 30.9706 68.6763 31.6577 70.0443 31.8826C72.8351 32.3732 75.2595 33.7711 76.9833 35.5087L77.0106 35.5291C77.4758 35.9993 78.3513 36.1628 79.0627 35.8971C79.8835 35.6109 80.2392 34.875 79.8288 34.2617Z" fill="white" stroke="black"/>
<path d="M108.926 33.84C108.926 34.5733 108.74 35.2133 108.366 35.76C107.993 36.3067 107.486 36.7333 106.846 37.04C106.22 37.3467 105.526 37.5 104.766 37.5H98.0262V23.3H105.086C105.753 23.3 106.326 23.48 106.806 23.84C107.3 24.1867 107.673 24.64 107.926 25.2C108.193 25.7467 108.326 26.32 108.326 26.92C108.326 27.6133 108.146 28.2667 107.786 28.88C107.44 29.48 106.94 29.9267 106.286 30.22C107.1 30.46 107.74 30.9067 108.206 31.56C108.686 32.2 108.926 32.96 108.926 33.84ZM107.106 33.52C107.106 33.08 107.006 32.6733 106.806 32.3C106.62 31.9267 106.36 31.6267 106.026 31.4C105.706 31.1733 105.333 31.06 104.906 31.06H99.8262V35.94H104.766C105.206 35.94 105.6 35.8267 105.946 35.6C106.306 35.3733 106.586 35.08 106.786 34.72C107 34.3467 107.106 33.9467 107.106 33.52ZM99.8262 24.86V29.6H104.346C104.773 29.6 105.146 29.4933 105.466 29.28C105.8 29.0667 106.06 28.78 106.246 28.42C106.446 28.06 106.546 27.6667 106.546 27.24C106.546 26.7867 106.453 26.3867 106.266 26.04C106.093 25.68 105.846 25.3933 105.526 25.18C105.22 24.9667 104.866 24.86 104.466 24.86H99.8262ZM110.344 34.48C110.344 33.8133 110.531 33.24 110.904 32.76C111.291 32.2667 111.817 31.8867 112.484 31.62C113.151 31.3533 113.924 31.22 114.804 31.22C115.271 31.22 115.764 31.26 116.284 31.34C116.804 31.4067 117.264 31.5133 117.664 31.66V30.9C117.664 30.1 117.424 29.4733 116.944 29.02C116.464 28.5533 115.784 28.32 114.904 28.32C114.331 28.32 113.777 28.4267 113.244 28.64C112.724 28.84 112.171 29.1333 111.584 29.52L110.944 28.28C111.624 27.8133 112.304 27.4667 112.984 27.24C113.664 27 114.371 26.88 115.104 26.88C116.437 26.88 117.491 27.2533 118.264 28C119.037 28.7333 119.424 29.76 119.424 31.08V35.5C119.424 35.7133 119.464 35.8733 119.544 35.98C119.637 36.0733 119.784 36.1267 119.984 36.14V37.5C119.811 37.5267 119.657 37.5467 119.524 37.56C119.404 37.5733 119.304 37.58 119.224 37.58C118.811 37.58 118.497 37.4667 118.284 37.24C118.084 37.0133 117.971 36.7733 117.944 36.52L117.904 35.86C117.451 36.4467 116.857 36.9 116.124 37.22C115.391 37.54 114.664 37.7 113.944 37.7C113.251 37.7 112.631 37.56 112.084 37.28C111.537 36.9867 111.111 36.6 110.804 36.12C110.497 35.6267 110.344 35.08 110.344 34.48ZM117.144 35.22C117.304 35.0333 117.431 34.8467 117.524 34.66C117.617 34.46 117.664 34.2933 117.664 34.16V32.86C117.251 32.7 116.817 32.58 116.364 32.5C115.911 32.4067 115.464 32.36 115.024 32.36C114.131 32.36 113.404 32.54 112.844 32.9C112.297 33.2467 112.024 33.7267 112.024 34.34C112.024 34.6733 112.111 35 112.284 35.32C112.471 35.6267 112.737 35.88 113.084 36.08C113.444 36.28 113.884 36.38 114.404 36.38C114.951 36.38 115.471 36.2733 115.964 36.06C116.457 35.8333 116.851 35.5533 117.144 35.22ZM126.858 37.7C126.072 37.7 125.352 37.56 124.698 37.28C124.058 36.9867 123.498 36.5867 123.018 36.08C122.552 35.5733 122.185 34.9933 121.918 34.34C121.665 33.6867 121.538 32.9933 121.538 32.26C121.538 31.2733 121.758 30.3733 122.198 29.56C122.638 28.7467 123.258 28.1 124.058 27.62C124.858 27.1267 125.785 26.88 126.838 26.88C127.865 26.88 128.758 27.1133 129.518 27.58C130.292 28.0333 130.865 28.6467 131.238 29.42L129.518 29.96C129.252 29.4667 128.878 29.0867 128.398 28.82C127.918 28.54 127.385 28.4 126.798 28.4C126.158 28.4 125.572 28.5667 125.038 28.9C124.518 29.2333 124.105 29.6933 123.798 30.28C123.492 30.8533 123.338 31.5133 123.338 32.26C123.338 32.9933 123.492 33.66 123.798 34.26C124.118 34.8467 124.538 35.3133 125.058 35.66C125.592 36.0067 126.178 36.18 126.818 36.18C127.232 36.18 127.625 36.1067 127.998 35.96C128.385 35.8133 128.718 35.62 128.998 35.38C129.292 35.1267 129.492 34.8533 129.598 34.56L131.318 35.08C131.105 35.5867 130.778 36.04 130.338 36.44C129.912 36.8267 129.398 37.1333 128.798 37.36C128.212 37.5867 127.565 37.7 126.858 37.7ZM140.673 37.5L137.053 32.42L135.073 34.28V37.5H133.313V22.9H135.073V32.44L140.473 27.08H142.373L138.213 31.4L142.573 37.5H140.673Z" fill="white"/>
</svg>
