<svg width="182" height="56" viewBox="0 0 182 56" fill="none" xmlns="http://www.w3.org/2000/svg">
<path d="M0 32.0684C0 14.3952 14.3269 0.0683594 32 0.0683594H154C169.188 0.0683594 181.5 12.3805 181.5 27.5684C181.5 42.7562 169.188 55.0684 154 55.0684H4C1.79086 55.0684 0 53.2775 0 51.0684V32.0684Z" fill="#2784A7"/>
<path d="M51.2871 24.1884V35.0684H49.4871V20.8684H51.0071L59.6871 31.9684V20.8884H61.4871V35.0684H59.8471L51.2871 24.1884ZM69.042 35.2684C68.002 35.2684 67.082 35.0217 66.282 34.5284C65.482 34.035 64.8553 33.375 64.402 32.5484C63.9486 31.7217 63.722 30.8217 63.722 29.8484C63.722 28.8617 63.9486 27.9617 64.402 27.1484C64.8553 26.335 65.482 25.6817 66.282 25.1884C67.0953 24.695 68.022 24.4484 69.062 24.4484C70.1153 24.4484 71.0286 24.7017 71.802 25.2084C72.5886 25.7017 73.1953 26.355 73.622 27.1684C74.062 27.9684 74.282 28.835 74.282 29.7684C74.282 30.0617 74.2686 30.2884 74.242 30.4484H65.582C65.6353 31.1284 65.822 31.735 66.142 32.2684C66.4753 32.7884 66.902 33.2017 67.422 33.5084C67.942 33.8017 68.502 33.9484 69.102 33.9484C69.742 33.9484 70.342 33.7884 70.902 33.4684C71.4753 33.1484 71.8686 32.7284 72.082 32.2084L73.602 32.6284C73.2686 33.4017 72.6886 34.035 71.862 34.5284C71.0353 35.0217 70.0953 35.2684 69.042 35.2684ZM65.522 29.2284H72.642C72.5886 28.5484 72.3953 27.9484 72.062 27.4284C71.7286 26.9084 71.302 26.5017 70.782 26.2084C70.262 25.915 69.6886 25.7684 69.062 25.7684C68.4486 25.7684 67.882 25.915 67.362 26.2084C66.842 26.5017 66.4153 26.9084 66.082 27.4284C65.762 27.9484 65.5753 28.5484 65.522 29.2284ZM76.6277 24.6284L79.3877 28.4684L79.5477 28.7884L79.7277 28.4684L82.4677 24.6284H84.4277L80.5677 29.8684L84.4477 35.0684H82.4877L79.7277 31.2484L79.5477 30.9484L79.3877 31.2484L76.6277 35.0684H74.6677L78.5477 29.8684L74.6877 24.6284H76.6277ZM91.5016 34.5484C91.2883 34.6417 90.9483 34.775 90.4816 34.9484C90.0283 35.1217 89.5216 35.2084 88.9616 35.2084C88.3216 35.2084 87.7683 35.035 87.3016 34.6884C86.835 34.3284 86.6016 33.775 86.6016 33.0284V26.0084H85.1816V24.6284H86.6016V21.1484H88.3616V24.6284H90.7016V26.0084H88.3616V32.4884C88.3883 32.8617 88.515 33.1417 88.7416 33.3284C88.9683 33.5017 89.235 33.5884 89.5416 33.5884C89.8883 33.5884 90.2083 33.5284 90.5016 33.4084C90.795 33.2884 90.9883 33.2017 91.0816 33.1484L91.5016 34.5484Z" fill="white"/>
<path d="M107.921 32.3963C108.742 30.9836 109.946 29.6868 111.369 28.6215C112.819 27.5562 114.46 26.7225 116.157 26.0972C118.099 25.3793 121.52 24.6221 123.517 24.2979L121.383 22.2529C121.054 21.1876 122.423 20.3539 123.517 20.9329L133.093 26.0277C133.969 26.4909 133.969 27.6025 133.093 28.0657L123.517 33.1605C122.423 33.7395 121.054 32.9058 121.383 31.8405L123.517 28.6215C122.094 28.6678 119.074 29.4462 117.706 29.701C114.915 30.2568 112.49 31.8405 110.767 33.809L110.739 33.8321C110.274 34.3648 109.399 34.55 108.687 34.249C107.866 33.9247 107.511 33.091 107.921 32.3963Z" fill="white" stroke="black"/>
</svg>
