<svg width="182" height="55" viewBox="0 0 182 55" fill="none" xmlns="http://www.w3.org/2000/svg">
<path d="M0.5 27.5C0.5 12.3122 12.8122 0 28 0H150C167.673 0 182 14.3269 182 32V51C182 53.2091 180.209 55 178 55H28C12.8122 55 0.5 42.6878 0.5 27.5Z" fill="#2784A7"/>
<path d="M72.5788 31.7617C71.758 30.5148 70.5541 29.37 69.1313 28.4297C67.6812 27.4894 66.0395 26.7535 64.3431 26.2016C62.4005 25.5679 58.9804 24.8995 56.983 24.6133L59.1172 22.8082C59.4455 21.8679 58.0775 21.132 56.983 21.643L47.4067 26.1402C46.5311 26.5491 46.5311 27.5303 47.4067 27.9391L56.983 32.4363C58.0775 32.9474 59.4455 32.2115 59.1172 31.2711L56.983 28.4297C58.4058 28.4706 61.4263 29.1577 62.7943 29.3826C65.5851 29.8732 68.0095 31.2711 69.7333 33.0087L69.7606 33.0291C70.2258 33.4993 71.1013 33.6628 71.8127 33.3971C72.6335 33.1109 72.9892 32.375 72.5788 31.7617Z" fill="white" stroke="black"/>
<path d="M101.676 31.34C101.676 32.0733 101.49 32.7133 101.116 33.26C100.743 33.8067 100.236 34.2333 99.5962 34.54C98.9695 34.8467 98.2762 35 97.5162 35H90.7762V20.8H97.8362C98.5028 20.8 99.0762 20.98 99.5562 21.34C100.05 21.6867 100.423 22.14 100.676 22.7C100.943 23.2467 101.076 23.82 101.076 24.42C101.076 25.1133 100.896 25.7667 100.536 26.38C100.19 26.98 99.6895 27.4267 99.0362 27.72C99.8495 27.96 100.49 28.4067 100.956 29.06C101.436 29.7 101.676 30.46 101.676 31.34ZM92.5762 22.36V27.1H97.0962C97.7228 27.1 98.2428 26.8733 98.6562 26.42C99.0828 25.9533 99.2962 25.3933 99.2962 24.74C99.2962 24.0733 99.0962 23.5133 98.6962 23.06C98.3095 22.5933 97.8162 22.36 97.2162 22.36H92.5762ZM99.8562 31.02C99.8562 30.58 99.7562 30.1733 99.5562 29.8C99.3695 29.4267 99.1095 29.1267 98.7762 28.9C98.4562 28.6733 98.0828 28.56 97.6562 28.56H92.5762V33.44H97.5162C97.9562 33.44 98.3495 33.3267 98.6962 33.1C99.0562 32.8733 99.3362 32.58 99.5362 32.22C99.7495 31.8467 99.8562 31.4467 99.8562 31.02ZM103.094 31.98C103.094 31.3133 103.281 30.74 103.654 30.26C104.041 29.7667 104.567 29.3867 105.234 29.12C105.901 28.8533 106.674 28.72 107.554 28.72C108.021 28.72 108.514 28.76 109.034 28.84C109.554 28.9067 110.014 29.0133 110.414 29.16V28.4C110.414 27.6 110.174 26.9733 109.694 26.52C109.214 26.0533 108.534 25.82 107.654 25.82C107.081 25.82 106.527 25.9267 105.994 26.14C105.474 26.34 104.921 26.6333 104.334 27.02L103.694 25.78C104.374 25.3133 105.054 24.9667 105.734 24.74C106.414 24.5 107.121 24.38 107.854 24.38C109.187 24.38 110.241 24.7533 111.014 25.5C111.787 26.2333 112.174 27.26 112.174 28.58V33C112.174 33.4133 112.361 33.6267 112.734 33.64V35C112.561 35.0267 112.407 35.0467 112.274 35.06C112.154 35.0733 112.054 35.08 111.974 35.08C111.561 35.08 111.247 34.9667 111.034 34.74C110.834 34.5133 110.721 34.2733 110.694 34.02L110.654 33.36C110.201 33.9467 109.607 34.4 108.874 34.72C108.141 35.04 107.414 35.2 106.694 35.2C106.001 35.2 105.381 35.06 104.834 34.78C104.287 34.4867 103.861 34.1 103.554 33.62C103.247 33.1267 103.094 32.58 103.094 31.98ZM109.894 32.72C110.054 32.5333 110.181 32.3467 110.274 32.16C110.367 31.96 110.414 31.7933 110.414 31.66V30.36C109.561 30.0267 108.681 29.86 107.774 29.86C106.881 29.86 106.154 30.04 105.594 30.4C105.047 30.7467 104.774 31.2267 104.774 31.84C104.774 32.1733 104.861 32.5 105.034 32.82C105.221 33.1267 105.487 33.38 105.834 33.58C106.194 33.78 106.634 33.88 107.154 33.88C107.701 33.88 108.221 33.7733 108.714 33.56C109.207 33.3333 109.601 33.0533 109.894 32.72ZM119.608 35.2C118.568 35.2 117.648 34.9533 116.848 34.46C116.048 33.9533 115.422 33.2867 114.968 32.46C114.515 31.6333 114.288 30.7333 114.288 29.76C114.288 28.7733 114.508 27.8733 114.948 27.06C115.388 26.2467 116.008 25.6 116.808 25.12C117.608 24.6267 118.535 24.38 119.588 24.38C120.615 24.38 121.508 24.6133 122.268 25.08C123.042 25.5333 123.615 26.1467 123.988 26.92L122.268 27.46C122.002 26.9667 121.628 26.5867 121.148 26.32C120.668 26.04 120.135 25.9 119.548 25.9C118.908 25.9 118.322 26.0667 117.788 26.4C117.268 26.7333 116.855 27.1933 116.548 27.78C116.242 28.3533 116.088 29.0133 116.088 29.76C116.088 30.4933 116.242 31.16 116.548 31.76C116.868 32.3467 117.288 32.8133 117.808 33.16C118.342 33.5067 118.928 33.68 119.568 33.68C119.982 33.68 120.375 33.6067 120.748 33.46C121.135 33.3133 121.468 33.12 121.748 32.88C122.042 32.6267 122.242 32.3533 122.348 32.06L124.068 32.58C123.762 33.34 123.202 33.9667 122.388 34.46C121.588 34.9533 120.662 35.2 119.608 35.2ZM133.423 35L129.803 29.92L127.823 31.78V35H126.063V20.4H127.823V29.94L133.223 24.58H135.123L130.963 28.9L135.323 35H133.423Z" fill="white"/>
</svg>
