<svg width="54" height="51" viewBox="0 0 54 51" fill="none" xmlns="http://www.w3.org/2000/svg">
<path d="M1.72061 30.5V20.56H5.92061C6.34994 20.56 6.74194 20.6487 7.09661 20.826C7.45128 21.0033 7.75928 21.246 8.02061 21.554C8.29128 21.8527 8.49661 22.1887 8.63661 22.562C8.78594 22.926 8.86061 23.2993 8.86061 23.682C8.86061 24.158 8.76728 24.606 8.58061 25.026C8.40328 25.446 8.14661 25.8007 7.81061 26.09C7.48394 26.3793 7.09661 26.5707 6.64861 26.664L9.08461 30.5H7.97861L5.64061 26.832H2.70061V30.5H1.72061ZM2.70061 25.964H5.94861C6.34061 25.964 6.68128 25.8567 6.97061 25.642C7.25994 25.4273 7.48394 25.1473 7.64261 24.802C7.80128 24.4473 7.88061 24.074 7.88061 23.682C7.88061 23.2807 7.78728 22.912 7.60061 22.576C7.42328 22.2307 7.18061 21.9553 6.87261 21.75C6.57394 21.5353 6.23794 21.428 5.86461 21.428H2.70061V25.964ZM13.6023 30.64C13.0797 30.64 12.5943 30.542 12.1463 30.346C11.6983 30.1407 11.311 29.8653 10.9843 29.52C10.6577 29.1653 10.401 28.7593 10.2143 28.302C10.037 27.8447 9.94834 27.3547 9.94834 26.832C9.94834 26.1507 10.1023 25.5253 10.4103 24.956C10.7277 24.3867 11.1617 23.934 11.7123 23.598C12.263 23.2527 12.8883 23.08 13.5883 23.08C14.307 23.08 14.9323 23.2527 15.4643 23.598C16.0057 23.9433 16.4303 24.4007 16.7383 24.97C17.0463 25.53 17.2003 26.146 17.2003 26.818C17.2003 26.8927 17.2003 26.9673 17.2003 27.042C17.2003 27.1073 17.1957 27.1587 17.1863 27.196H10.9423C10.989 27.7187 11.1337 28.1853 11.3763 28.596C11.6283 28.9973 11.9503 29.3193 12.3423 29.562C12.7437 29.7953 13.1777 29.912 13.6443 29.912C14.1203 29.912 14.5683 29.7907 14.9883 29.548C15.4177 29.3053 15.7163 28.988 15.8843 28.596L16.7103 28.82C16.561 29.1653 16.3323 29.478 16.0243 29.758C15.7163 30.038 15.3523 30.2573 14.9323 30.416C14.5217 30.5653 14.0783 30.64 13.6023 30.64ZM10.9143 26.51H16.3043C16.267 25.978 16.1223 25.5113 15.8703 25.11C15.6277 24.7087 15.3057 24.396 14.9043 24.172C14.5123 23.9387 14.0783 23.822 13.6023 23.822C13.1263 23.822 12.6923 23.9387 12.3003 24.172C11.9083 24.396 11.5863 24.7133 11.3343 25.124C11.0917 25.5253 10.9517 25.9873 10.9143 26.51ZM29.5191 30.5H28.5671V26.426C28.5671 25.5767 28.4318 24.9513 28.1611 24.55C27.8905 24.1487 27.4891 23.948 26.9571 23.948C26.4065 23.948 25.9118 24.144 25.4731 24.536C25.0438 24.928 24.7405 25.432 24.5631 26.048V30.5H23.6111V26.426C23.6111 25.5673 23.4805 24.942 23.2191 24.55C22.9578 24.1487 22.5565 23.948 22.0151 23.948C21.4738 23.948 20.9838 24.1393 20.5451 24.522C20.1065 24.9047 19.7985 25.4087 19.6211 26.034V30.5H18.6691V23.206H19.5371V24.858C19.8451 24.2887 20.2371 23.85 20.7131 23.542C21.1985 23.234 21.7351 23.08 22.3231 23.08C22.9298 23.08 23.4198 23.2527 23.7931 23.598C24.1665 23.9433 24.3951 24.396 24.4791 24.956C24.8151 24.34 25.2165 23.8733 25.6831 23.556C26.1591 23.2387 26.6958 23.08 27.2931 23.08C27.7038 23.08 28.0491 23.1547 28.3291 23.304C28.6185 23.4533 28.8471 23.668 29.0151 23.948C29.1925 24.2187 29.3185 24.55 29.3931 24.942C29.4771 25.3247 29.5191 25.754 29.5191 26.23V30.5ZM34.6424 30.64C34.1197 30.64 33.6344 30.542 33.1864 30.346C32.7477 30.1407 32.365 29.8653 32.0384 29.52C31.721 29.1653 31.4737 28.764 31.2964 28.316C31.119 27.8587 31.0304 27.378 31.0304 26.874C31.0304 26.3513 31.119 25.866 31.2964 25.418C31.4737 24.9607 31.7257 24.5593 32.0524 24.214C32.379 23.8593 32.7617 23.584 33.2004 23.388C33.6484 23.1827 34.1337 23.08 34.6564 23.08C35.179 23.08 35.6597 23.1827 36.0984 23.388C36.537 23.584 36.9197 23.8593 37.2464 24.214C37.573 24.5593 37.825 24.9607 38.0024 25.418C38.1797 25.866 38.2684 26.3513 38.2684 26.874C38.2684 27.378 38.1797 27.8587 38.0024 28.316C37.825 28.764 37.573 29.1653 37.2464 29.52C36.929 29.8653 36.5464 30.1407 36.0984 30.346C35.6597 30.542 35.1744 30.64 34.6424 30.64ZM31.9964 26.888C31.9964 27.4293 32.113 27.924 32.3464 28.372C32.589 28.8107 32.911 29.1607 33.3124 29.422C33.7137 29.674 34.157 29.8 34.6424 29.8C35.1277 29.8 35.571 29.6693 35.9724 29.408C36.3737 29.1467 36.6957 28.792 36.9384 28.344C37.181 27.8867 37.3024 27.392 37.3024 26.86C37.3024 26.3187 37.181 25.824 36.9384 25.376C36.6957 24.928 36.3737 24.5733 35.9724 24.312C35.571 24.0507 35.1277 23.92 34.6424 23.92C34.157 23.92 33.7137 24.0553 33.3124 24.326C32.9204 24.5967 32.603 24.956 32.3604 25.404C32.1177 25.8427 31.9964 26.3373 31.9964 26.888ZM41.7845 30.5L38.8305 23.206H39.8245L42.3165 29.548L44.8225 23.206H45.7605L42.8065 30.5H41.7845ZM49.9832 30.64C49.4605 30.64 48.9752 30.542 48.5272 30.346C48.0792 30.1407 47.6919 29.8653 47.3652 29.52C47.0385 29.1653 46.7819 28.7593 46.5952 28.302C46.4179 27.8447 46.3292 27.3547 46.3292 26.832C46.3292 26.1507 46.4832 25.5253 46.7912 24.956C47.1085 24.3867 47.5425 23.934 48.0932 23.598C48.6439 23.2527 49.2692 23.08 49.9692 23.08C50.6879 23.08 51.3132 23.2527 51.8452 23.598C52.3865 23.9433 52.8112 24.4007 53.1192 24.97C53.4272 25.53 53.5812 26.146 53.5812 26.818C53.5812 26.8927 53.5812 26.9673 53.5812 27.042C53.5812 27.1073 53.5765 27.1587 53.5672 27.196H47.3232C47.3699 27.7187 47.5145 28.1853 47.7572 28.596C48.0092 28.9973 48.3312 29.3193 48.7232 29.562C49.1245 29.7953 49.5585 29.912 50.0252 29.912C50.5012 29.912 50.9492 29.7907 51.3692 29.548C51.7985 29.3053 52.0972 28.988 52.2652 28.596L53.0912 28.82C52.9419 29.1653 52.7132 29.478 52.4052 29.758C52.0972 30.038 51.7332 30.2573 51.3132 30.416C50.9025 30.5653 50.4592 30.64 49.9832 30.64ZM47.2952 26.51H52.6852C52.6479 25.978 52.5032 25.5113 52.2512 25.11C52.0085 24.7087 51.6865 24.396 51.2852 24.172C50.8932 23.9387 50.4592 23.822 49.9832 23.822C49.5072 23.822 49.0732 23.9387 48.6812 24.172C48.2892 24.396 47.9672 24.7133 47.7152 25.124C47.4725 25.5253 47.3325 25.9873 47.2952 26.51Z" fill="#191817"/>
</svg>
