<svg width="241" height="457" viewBox="0 0 241 457" fill="none" xmlns="http://www.w3.org/2000/svg">
<path d="M0 0H241V457H16C7.16344 457 0 449.837 0 441V0Z" fill="#A5CADC"/>
<rect width="225" height="49" transform="translate(8 16)" fill="#A5CADC"/>
<path d="M127.556 30.12V50H124.392V41.236H114.368V50H111.232V30.12H114.368V38.436H124.392V30.12H127.556ZM137.983 50.28C136.452 50.28 135.117 49.9347 133.979 49.244C132.859 48.5347 131.991 47.6107 131.375 46.472C130.759 45.3147 130.451 44.0547 130.451 42.692C130.451 41.3293 130.759 40.0787 131.375 38.94C132.009 37.7827 132.887 36.8587 134.007 36.168C135.145 35.4587 136.471 35.104 137.983 35.104C139.495 35.104 140.811 35.4587 141.931 36.168C143.069 36.8587 143.947 37.7827 144.563 38.94C145.197 40.0787 145.515 41.3293 145.515 42.692C145.515 44.0547 145.207 45.3147 144.591 46.472C143.975 47.6107 143.097 48.5347 141.959 49.244C140.839 49.9347 139.513 50.28 137.983 50.28ZM133.615 42.72C133.615 43.6533 133.811 44.4933 134.203 45.24C134.595 45.9867 135.117 46.5747 135.771 47.004C136.424 47.4333 137.161 47.648 137.983 47.648C138.785 47.648 139.513 47.4333 140.167 47.004C140.839 46.556 141.371 45.9587 141.763 45.212C142.155 44.4653 142.351 43.6253 142.351 42.692C142.351 41.7587 142.155 40.9187 141.763 40.172C141.371 39.4253 140.839 38.8373 140.167 38.408C139.513 37.96 138.785 37.736 137.983 37.736C137.18 37.736 136.443 37.96 135.771 38.408C135.117 38.8373 134.595 39.4347 134.203 40.2C133.811 40.9467 133.615 41.7867 133.615 42.72ZM170.646 50H167.566V41.796C167.566 40.452 167.342 39.4627 166.894 38.828C166.446 38.1747 165.793 37.848 164.934 37.848C164.076 37.848 163.273 38.1747 162.526 38.828C161.798 39.4627 161.285 40.2933 160.986 41.32V50H157.906V41.796C157.906 40.4147 157.682 39.416 157.234 38.8C156.786 38.1653 156.142 37.848 155.302 37.848C154.444 37.848 153.641 38.1653 152.894 38.8C152.166 39.4347 151.644 40.2653 151.326 41.292V50H148.246V35.356H151.046V38.296C151.606 37.2693 152.362 36.4853 153.314 35.944C154.266 35.384 155.349 35.104 156.562 35.104C157.776 35.104 158.728 35.4213 159.418 36.056C160.128 36.6907 160.566 37.484 160.734 38.436C162.004 36.2147 163.842 35.104 166.25 35.104C167.408 35.104 168.304 35.384 168.938 35.944C169.573 36.4853 170.012 37.2133 170.254 38.128C170.516 39.024 170.646 40.004 170.646 41.068V50ZM180.832 50.28C179.32 50.28 177.994 49.9347 176.856 49.244C175.717 48.5533 174.83 47.6387 174.196 46.5C173.561 45.3427 173.244 44.0827 173.244 42.72C173.244 41.3387 173.561 40.0693 174.196 38.912C174.83 37.7547 175.717 36.8307 176.856 36.14C177.994 35.4493 179.329 35.104 180.86 35.104C182.39 35.104 183.716 35.4587 184.836 36.168C185.956 36.8587 186.814 37.7733 187.412 38.912C188.028 40.0507 188.336 41.2733 188.336 42.58C188.336 43.0467 188.308 43.42 188.252 43.7H176.52C176.576 44.5587 176.809 45.3147 177.22 45.968C177.649 46.6027 178.181 47.1067 178.816 47.48C179.469 47.8347 180.178 48.012 180.944 48.012C181.765 48.012 182.54 47.8067 183.268 47.396C183.996 46.9853 184.5 46.444 184.78 45.772L187.412 46.528C186.908 47.6293 186.068 48.5347 184.892 49.244C183.734 49.9347 182.381 50.28 180.832 50.28ZM176.436 41.656H185.284C185.209 40.816 184.966 40.0787 184.556 39.444C184.145 38.7907 183.613 38.2867 182.96 37.932C182.325 37.5587 181.616 37.372 180.832 37.372C180.066 37.372 179.357 37.5587 178.704 37.932C178.069 38.2867 177.546 38.7907 177.136 39.444C176.725 40.0787 176.492 40.816 176.436 41.656Z" fill="#191817"/>
<rect width="225" height="60" transform="translate(8 65)" fill="#A5CADC"/>
<path d="M134.777 89.296C134.535 89.016 134.133 88.7267 133.573 88.428C133.032 88.1107 132.397 87.84 131.669 87.616C130.941 87.392 130.185 87.28 129.401 87.28C128.076 87.28 127.096 87.5227 126.461 88.008C125.845 88.4933 125.537 89.1653 125.537 90.024C125.537 90.6587 125.715 91.1627 126.069 91.536C126.424 91.8907 126.965 92.1987 127.693 92.46C128.421 92.7027 129.336 92.9547 130.437 93.216C131.781 93.5333 132.939 93.916 133.909 94.364C134.899 94.7933 135.655 95.372 136.177 96.1C136.719 96.828 136.989 97.7893 136.989 98.984C136.989 100.347 136.663 101.448 136.009 102.288C135.356 103.128 134.469 103.744 133.349 104.136C132.248 104.509 131.035 104.696 129.709 104.696C128.197 104.696 126.732 104.463 125.313 103.996C123.895 103.529 122.625 102.867 121.505 102.008L122.933 99.32C123.251 99.6373 123.755 100.001 124.445 100.412C125.136 100.804 125.939 101.149 126.853 101.448C127.787 101.728 128.757 101.868 129.765 101.868C130.997 101.868 131.949 101.653 132.621 101.224C133.293 100.776 133.629 100.141 133.629 99.32C133.629 98.648 133.405 98.116 132.957 97.724C132.528 97.3133 131.903 96.9773 131.081 96.716C130.279 96.436 129.308 96.1467 128.169 95.848C126.863 95.512 125.771 95.1293 124.893 94.7C124.016 94.2707 123.353 93.7293 122.905 93.076C122.476 92.4227 122.261 91.5733 122.261 90.528C122.261 89.2213 122.579 88.12 123.213 87.224C123.848 86.3093 124.707 85.628 125.789 85.18C126.891 84.7133 128.123 84.48 129.485 84.48C130.829 84.48 132.071 84.6947 133.209 85.124C134.348 85.5533 135.347 86.0853 136.205 86.72L134.777 89.296ZM152.847 104.5H149.767V96.296C149.767 94.9707 149.525 93.9813 149.039 93.328C148.554 92.6747 147.873 92.348 146.995 92.348C146.435 92.348 145.866 92.4973 145.287 92.796C144.727 93.0947 144.223 93.5053 143.775 94.028C143.327 94.532 143.001 95.12 142.795 95.792V104.5H139.715V84.06H142.795V92.796C143.355 91.788 144.121 91.004 145.091 90.444C146.062 89.884 147.107 89.604 148.227 89.604C149.441 89.604 150.383 89.884 151.055 90.444C151.727 90.9853 152.194 91.7133 152.455 92.628C152.717 93.524 152.847 94.504 152.847 95.568V104.5ZM163.002 104.78C161.472 104.78 160.137 104.435 158.998 103.744C157.878 103.035 157.01 102.111 156.394 100.972C155.778 99.8147 155.47 98.5547 155.47 97.192C155.47 95.8293 155.778 94.5787 156.394 93.44C157.029 92.2827 157.906 91.3587 159.026 90.668C160.165 89.9587 161.49 89.604 163.002 89.604C164.514 89.604 165.83 89.9587 166.95 90.668C168.089 91.3587 168.966 92.2827 169.582 93.44C170.217 94.5787 170.534 95.8293 170.534 97.192C170.534 98.5547 170.226 99.8147 169.61 100.972C168.994 102.111 168.117 103.035 166.978 103.744C165.858 104.435 164.533 104.78 163.002 104.78ZM158.634 97.22C158.634 98.1533 158.83 98.9933 159.222 99.74C159.614 100.487 160.137 101.075 160.79 101.504C161.444 101.933 162.181 102.148 163.002 102.148C163.805 102.148 164.533 101.933 165.186 101.504C165.858 101.056 166.39 100.459 166.782 99.712C167.174 98.9653 167.37 98.1253 167.37 97.192C167.37 96.2587 167.174 95.4187 166.782 94.672C166.39 93.9253 165.858 93.3373 165.186 92.908C164.533 92.46 163.805 92.236 163.002 92.236C162.2 92.236 161.462 92.46 160.79 92.908C160.137 93.3373 159.614 93.9347 159.222 94.7C158.83 95.4467 158.634 96.2867 158.634 97.22ZM181.582 104.78C180.406 104.78 179.37 104.5 178.474 103.94C177.578 103.38 176.869 102.652 176.346 101.756V110.464H173.266V89.856H175.982V92.488C176.542 91.6107 177.27 90.9107 178.166 90.388C179.062 89.8653 180.061 89.604 181.162 89.604C182.506 89.604 183.691 89.9587 184.718 90.668C185.763 91.3587 186.585 92.2827 187.182 93.44C187.779 94.5787 188.078 95.82 188.078 97.164C188.078 98.5827 187.798 99.8707 187.238 101.028C186.678 102.167 185.913 103.081 184.942 103.772C183.971 104.444 182.851 104.78 181.582 104.78ZM180.574 102.148C181.451 102.148 182.207 101.915 182.842 101.448C183.495 100.963 183.999 100.347 184.354 99.6C184.727 98.8347 184.914 98.0227 184.914 97.164C184.914 96.268 184.709 95.4467 184.298 94.7C183.906 93.9533 183.365 93.356 182.674 92.908C182.002 92.46 181.227 92.236 180.35 92.236C179.827 92.236 179.277 92.3667 178.698 92.628C178.138 92.8893 177.643 93.2347 177.214 93.664C176.785 94.0933 176.495 94.5787 176.346 95.12V98.956C176.719 99.852 177.289 100.608 178.054 101.224C178.838 101.84 179.678 102.148 180.574 102.148Z" fill="#191817"/>
<path d="M204.52 95L214.24 102.794L214.24 87.2058L204.52 95Z" fill="#191817"/>
<rect width="225" height="60" transform="translate(8 125)" fill="#A5CADC"/>
<path d="M40.6444 147.392H34.0364V164.5H30.8724V147.392H24.2364V144.62H40.6444V147.392ZM42.9183 147.448V144.06H45.9983V147.448H42.9183ZM42.9183 164.5V149.856H45.9983V164.5H42.9183ZM58.0156 164.78C56.8396 164.78 55.8036 164.5 54.9076 163.94C54.0116 163.38 53.3022 162.652 52.7796 161.756V170.464H49.6996V149.856H52.4156V152.488C52.9756 151.611 53.7036 150.911 54.5996 150.388C55.4956 149.865 56.4942 149.604 57.5956 149.604C58.9396 149.604 60.1249 149.959 61.1516 150.668C62.1969 151.359 63.0182 152.283 63.6156 153.44C64.2129 154.579 64.5116 155.82 64.5116 157.164C64.5116 158.583 64.2316 159.871 63.6716 161.028C63.1116 162.167 62.3462 163.081 61.3756 163.772C60.4049 164.444 59.2849 164.78 58.0156 164.78ZM57.0076 162.148C57.8849 162.148 58.6409 161.915 59.2756 161.448C59.9289 160.963 60.4329 160.347 60.7876 159.6C61.1609 158.835 61.3476 158.023 61.3476 157.164C61.3476 156.268 61.1422 155.447 60.7316 154.7C60.3396 153.953 59.7982 153.356 59.1076 152.908C58.4356 152.46 57.6609 152.236 56.7836 152.236C56.2609 152.236 55.7102 152.367 55.1316 152.628C54.5716 152.889 54.0769 153.235 53.6476 153.664C53.2182 154.093 52.9289 154.579 52.7796 155.12V158.956C53.1529 159.852 53.7222 160.608 54.4876 161.224C55.2716 161.84 56.1116 162.148 57.0076 162.148ZM72.4896 164.78C71.2576 164.78 70.0909 164.575 68.9896 164.164C67.8883 163.753 66.9456 163.156 66.1616 162.372L67.3096 160.3C68.1496 161.047 68.9896 161.588 69.8296 161.924C70.6696 162.26 71.5189 162.428 72.3776 162.428C73.2363 162.428 73.9363 162.269 74.4776 161.952C75.0189 161.616 75.2896 161.131 75.2896 160.496C75.2896 160.048 75.1496 159.703 74.8696 159.46C74.5896 159.217 74.1789 159.021 73.6376 158.872C73.1149 158.723 72.4803 158.536 71.7336 158.312C70.6883 157.995 69.8109 157.668 69.1016 157.332C68.3923 156.977 67.8603 156.548 67.5056 156.044C67.1509 155.54 66.9736 154.896 66.9736 154.112C66.9736 152.693 67.5056 151.592 68.5696 150.808C69.6336 150.005 71.0243 149.604 72.7416 149.604C73.8056 149.604 74.7856 149.772 75.6816 150.108C76.5963 150.425 77.3989 150.929 78.0896 151.62L76.7736 153.664C75.5043 152.507 74.1043 151.928 72.5736 151.928C71.9016 151.928 71.2763 152.059 70.6976 152.32C70.1376 152.581 69.8576 153.067 69.8576 153.776C69.8576 154.373 70.1096 154.803 70.6136 155.064C71.1176 155.325 71.8643 155.605 72.8536 155.904C73.9736 156.24 74.9349 156.576 75.7376 156.912C76.5589 157.229 77.1843 157.649 77.6136 158.172C78.0616 158.676 78.2856 159.376 78.2856 160.272C78.2856 161.691 77.7536 162.801 76.6896 163.604C75.6256 164.388 74.2256 164.78 72.4896 164.78ZM101.449 164.5L99.6575 162.596C98.8361 163.287 97.9308 163.828 96.9415 164.22C95.9708 164.593 94.9441 164.78 93.8615 164.78C92.5735 164.78 91.4348 164.528 90.4455 164.024C89.4561 163.501 88.6815 162.811 88.1215 161.952C87.5801 161.093 87.3095 160.132 87.3095 159.068C87.3095 158.209 87.4775 157.444 87.8135 156.772C88.1681 156.081 88.6255 155.465 89.1855 154.924C89.7455 154.364 90.3428 153.86 90.9775 153.412C90.1375 152.46 89.5401 151.657 89.1855 151.004C88.8495 150.351 88.6815 149.679 88.6815 148.988C88.6815 148.073 88.9055 147.271 89.3535 146.58C89.8201 145.889 90.4548 145.348 91.2575 144.956C92.0601 144.564 92.9561 144.368 93.9455 144.368C94.8601 144.368 95.7001 144.536 96.4655 144.872C97.2308 145.189 97.8468 145.665 98.3135 146.3C98.7801 146.935 99.0135 147.7 99.0135 148.596C99.0135 149.697 98.6495 150.659 97.9215 151.48C97.2121 152.283 96.3255 153.048 95.2615 153.776L99.7415 158.452C100.059 157.817 100.301 157.127 100.469 156.38C100.656 155.615 100.749 154.803 100.749 153.944H103.269C103.269 155.195 103.111 156.361 102.793 157.444C102.495 158.508 102.075 159.479 101.533 160.356L105.509 164.5H101.449ZM91.5095 148.904C91.5095 149.277 91.6308 149.66 91.8735 150.052C92.1348 150.425 92.6481 151.013 93.4135 151.816C94.2721 151.275 94.9441 150.771 95.4295 150.304C95.9335 149.819 96.1855 149.268 96.1855 148.652C96.1855 148.055 95.9708 147.579 95.5415 147.224C95.1308 146.851 94.5988 146.664 93.9455 146.664C93.2361 146.664 92.6481 146.888 92.1815 147.336C91.7335 147.765 91.5095 148.288 91.5095 148.904ZM90.2775 159.096C90.2775 159.749 90.4548 160.319 90.8095 160.804C91.1641 161.289 91.6401 161.672 92.2375 161.952C92.8348 162.213 93.4881 162.344 94.1975 162.344C94.8881 162.344 95.5508 162.213 96.1855 161.952C96.8388 161.691 97.4361 161.317 97.9775 160.832L92.8255 155.372C92.0601 155.913 91.4441 156.483 90.9775 157.08C90.5108 157.677 90.2775 158.349 90.2775 159.096ZM128.5 147.392H121.892V164.5H118.728V147.392H112.092V144.62H128.5V147.392ZM137.146 152.516C135.952 152.553 134.888 152.833 133.954 153.356C133.04 153.86 132.386 154.588 131.994 155.54V164.5H128.914V149.856H131.77V153.132C132.274 152.124 132.937 151.321 133.758 150.724C134.58 150.108 135.448 149.772 136.362 149.716C136.53 149.716 136.68 149.716 136.81 149.716C136.941 149.716 137.053 149.725 137.146 149.744V152.516ZM139.387 147.448V144.06H142.467V147.448H139.387ZM139.387 164.5V149.856H142.467V164.5H139.387ZM152.804 164.78C151.292 164.78 149.967 164.435 148.828 163.744C147.69 163.035 146.803 162.101 146.168 160.944C145.534 159.787 145.216 158.527 145.216 157.164C145.216 155.801 145.524 154.551 146.14 153.412C146.775 152.255 147.652 151.331 148.772 150.64C149.911 149.949 151.255 149.604 152.804 149.604C154.316 149.604 155.614 149.94 156.696 150.612C157.798 151.265 158.619 152.143 159.16 153.244L156.164 154.196C155.828 153.58 155.352 153.104 154.736 152.768C154.139 152.413 153.476 152.236 152.748 152.236C151.927 152.236 151.18 152.451 150.508 152.88C149.855 153.291 149.332 153.869 148.94 154.616C148.567 155.363 148.38 156.212 148.38 157.164C148.38 158.116 148.576 158.965 148.968 159.712C149.379 160.459 149.911 161.056 150.564 161.504C151.236 161.933 151.974 162.148 152.776 162.148C153.523 162.148 154.232 161.952 154.904 161.56C155.576 161.168 156.024 160.692 156.248 160.132L159.272 161.028C158.787 162.129 157.975 163.035 156.836 163.744C155.698 164.435 154.354 164.78 152.804 164.78ZM172.001 164.5L167.297 157.752L164.889 160.048V164.5H161.809V144.06H164.889V156.94L171.665 149.884H174.969L169.285 156.016L175.277 164.5H172.001ZM182.302 164.78C181.07 164.78 179.903 164.575 178.802 164.164C177.701 163.753 176.758 163.156 175.974 162.372L177.122 160.3C177.962 161.047 178.802 161.588 179.642 161.924C180.482 162.26 181.331 162.428 182.19 162.428C183.049 162.428 183.749 162.269 184.29 161.952C184.831 161.616 185.102 161.131 185.102 160.496C185.102 160.048 184.962 159.703 184.682 159.46C184.402 159.217 183.991 159.021 183.45 158.872C182.927 158.723 182.293 158.536 181.546 158.312C180.501 157.995 179.623 157.668 178.914 157.332C178.205 156.977 177.673 156.548 177.318 156.044C176.963 155.54 176.786 154.896 176.786 154.112C176.786 152.693 177.318 151.592 178.382 150.808C179.446 150.005 180.837 149.604 182.554 149.604C183.618 149.604 184.598 149.772 185.494 150.108C186.409 150.425 187.211 150.929 187.902 151.62L186.586 153.664C185.317 152.507 183.917 151.928 182.386 151.928C181.714 151.928 181.089 152.059 180.51 152.32C179.95 152.581 179.67 153.067 179.67 153.776C179.67 154.373 179.922 154.803 180.426 155.064C180.93 155.325 181.677 155.605 182.666 155.904C183.786 156.24 184.747 156.576 185.55 156.912C186.371 157.229 186.997 157.649 187.426 158.172C187.874 158.676 188.098 159.376 188.098 160.272C188.098 161.691 187.566 162.801 186.502 163.604C185.438 164.388 184.038 164.78 182.302 164.78Z" fill="#191817"/>
<path d="M204.52 155L214.24 162.794L214.24 147.206L204.52 155Z" fill="#191817"/>
<rect width="225" height="49" transform="translate(8 185)" fill="#A5CADC"/>
<path d="M85.4175 208.92C85.4175 207.707 85.6322 206.512 86.0615 205.336C86.4908 204.16 87.1162 203.096 87.9375 202.144C88.7775 201.192 89.7855 200.436 90.9615 199.876C92.1562 199.297 93.5188 199.008 95.0495 199.008C96.8415 199.008 98.3908 199.409 99.6975 200.212C101.004 201.015 101.975 202.06 102.61 203.348L100.146 205C99.7722 204.197 99.2962 203.572 98.7175 203.124C98.1575 202.657 97.5415 202.331 96.8695 202.144C96.2162 201.939 95.5722 201.836 94.9375 201.836C93.8922 201.836 92.9775 202.051 92.1935 202.48C91.4095 202.891 90.7468 203.441 90.2055 204.132C89.6828 204.823 89.2815 205.597 89.0015 206.456C88.7402 207.315 88.6095 208.173 88.6095 209.032C88.6095 210.32 88.8802 211.524 89.4215 212.644C89.9815 213.745 90.7375 214.641 91.6895 215.332C92.6602 216.004 93.7708 216.34 95.0215 216.34C95.6562 216.34 96.3188 216.228 97.0095 216.004C97.7002 215.78 98.3348 215.435 98.9135 214.968C99.4922 214.483 99.9588 213.848 100.314 213.064L102.918 214.548C102.507 215.537 101.863 216.377 100.986 217.068C100.127 217.759 99.1562 218.281 98.0735 218.636C97.0095 218.991 95.9548 219.168 94.9095 219.168C93.5095 219.168 92.2308 218.879 91.0735 218.3C89.9162 217.703 88.9175 216.919 88.0775 215.948C87.2375 214.959 86.5842 213.857 86.1175 212.644C85.6508 211.412 85.4175 210.171 85.4175 208.92ZM111.979 219.28C110.448 219.28 109.113 218.935 107.975 218.244C106.855 217.535 105.987 216.611 105.371 215.472C104.755 214.315 104.447 213.055 104.447 211.692C104.447 210.329 104.755 209.079 105.371 207.94C106.005 206.783 106.883 205.859 108.003 205.168C109.141 204.459 110.467 204.104 111.979 204.104C113.491 204.104 114.807 204.459 115.927 205.168C117.065 205.859 117.943 206.783 118.559 207.94C119.193 209.079 119.511 210.329 119.511 211.692C119.511 213.055 119.203 214.315 118.587 215.472C117.971 216.611 117.093 217.535 115.955 218.244C114.835 218.935 113.509 219.28 111.979 219.28ZM107.611 211.72C107.611 212.653 107.807 213.493 108.199 214.24C108.591 214.987 109.113 215.575 109.767 216.004C110.42 216.433 111.157 216.648 111.979 216.648C112.781 216.648 113.509 216.433 114.163 216.004C114.835 215.556 115.367 214.959 115.759 214.212C116.151 213.465 116.347 212.625 116.347 211.692C116.347 210.759 116.151 209.919 115.759 209.172C115.367 208.425 114.835 207.837 114.163 207.408C113.509 206.96 112.781 206.736 111.979 206.736C111.176 206.736 110.439 206.96 109.767 207.408C109.113 207.837 108.591 208.435 108.199 209.2C107.807 209.947 107.611 210.787 107.611 211.72ZM135.375 219H132.295V210.796C132.295 209.415 132.071 208.416 131.623 207.8C131.193 207.165 130.549 206.848 129.691 206.848C129.093 206.848 128.496 206.997 127.899 207.296C127.32 207.595 126.797 208.005 126.331 208.528C125.864 209.051 125.528 209.639 125.323 210.292V219H122.243V204.356H125.043V207.296C125.603 206.325 126.415 205.551 127.479 204.972C128.543 204.393 129.719 204.104 131.007 204.104C132.164 204.104 133.06 204.384 133.695 204.944C134.329 205.485 134.768 206.204 135.011 207.1C135.253 207.996 135.375 208.985 135.375 210.068V219ZM146.988 218.244C146.596 218.431 146.055 218.645 145.364 218.888C144.674 219.112 143.936 219.224 143.152 219.224C142.182 219.224 141.342 218.963 140.632 218.44C139.942 217.917 139.596 217.068 139.596 215.892V206.736H137.664V204.356H139.596V199.54H142.676V204.356H145.868V206.736H142.676V214.912C142.714 215.435 142.872 215.817 143.152 216.06C143.451 216.284 143.815 216.396 144.244 216.396C144.674 216.396 145.084 216.321 145.476 216.172C145.868 216.023 146.158 215.901 146.344 215.808L146.988 218.244ZM148.057 214.716C148.057 213.783 148.319 212.971 148.841 212.28C149.364 211.571 150.092 211.029 151.025 210.656C151.977 210.264 153.069 210.068 154.301 210.068C154.955 210.068 155.617 210.124 156.289 210.236C156.98 210.329 157.587 210.469 158.109 210.656V209.732C158.109 208.705 157.801 207.903 157.185 207.324C156.569 206.745 155.683 206.456 154.525 206.456C153.723 206.456 152.948 206.596 152.201 206.876C151.455 207.156 150.68 207.567 149.877 208.108L148.841 206.036C149.812 205.401 150.783 204.925 151.753 204.608C152.743 204.272 153.779 204.104 154.861 204.104C156.821 204.104 158.361 204.627 159.481 205.672C160.62 206.699 161.189 208.164 161.189 210.068V215.528C161.189 215.883 161.245 216.135 161.357 216.284C161.488 216.433 161.703 216.517 162.001 216.536V219C161.721 219.056 161.469 219.093 161.245 219.112C161.021 219.131 160.835 219.14 160.685 219.14C160.013 219.14 159.509 218.981 159.173 218.664C158.856 218.328 158.669 217.955 158.613 217.544L158.529 216.704C157.895 217.525 157.083 218.16 156.093 218.608C155.104 219.056 154.105 219.28 153.097 219.28C152.127 219.28 151.259 219.084 150.493 218.692C149.728 218.281 149.131 217.731 148.701 217.04C148.272 216.349 148.057 215.575 148.057 214.716ZM157.381 215.612C157.867 215.127 158.109 214.669 158.109 214.24V212.56C157.008 212.149 155.888 211.944 154.749 211.944C153.629 211.944 152.715 212.177 152.005 212.644C151.315 213.092 150.969 213.699 150.969 214.464C150.969 215.099 151.221 215.687 151.725 216.228C152.248 216.751 152.995 217.012 153.965 217.012C154.619 217.012 155.253 216.881 155.869 216.62C156.485 216.359 156.989 216.023 157.381 215.612ZM171.562 219.28C170.05 219.28 168.725 218.935 167.586 218.244C166.447 217.535 165.561 216.601 164.926 215.444C164.291 214.287 163.974 213.027 163.974 211.664C163.974 210.301 164.282 209.051 164.898 207.912C165.533 206.755 166.41 205.831 167.53 205.14C168.669 204.449 170.013 204.104 171.562 204.104C173.074 204.104 174.371 204.44 175.454 205.112C176.555 205.765 177.377 206.643 177.918 207.744L174.922 208.696C174.586 208.08 174.11 207.604 173.494 207.268C172.897 206.913 172.234 206.736 171.506 206.736C170.685 206.736 169.938 206.951 169.266 207.38C168.613 207.791 168.09 208.369 167.698 209.116C167.325 209.863 167.138 210.712 167.138 211.664C167.138 212.616 167.334 213.465 167.726 214.212C168.137 214.959 168.669 215.556 169.322 216.004C169.994 216.433 170.731 216.648 171.534 216.648C172.281 216.648 172.99 216.452 173.662 216.06C174.334 215.668 174.782 215.192 175.006 214.632L178.03 215.528C177.545 216.629 176.733 217.535 175.594 218.244C174.455 218.935 173.111 219.28 171.562 219.28ZM188.715 218.244C188.323 218.431 187.781 218.645 187.091 218.888C186.4 219.112 185.663 219.224 184.879 219.224C183.908 219.224 183.068 218.963 182.359 218.44C181.668 217.917 181.323 217.068 181.323 215.892V206.736H179.391V204.356H181.323V199.54H184.403V204.356H187.595V206.736H184.403V214.912C184.44 215.435 184.599 215.817 184.879 216.06C185.177 216.284 185.541 216.396 185.971 216.396C186.4 216.396 186.811 216.321 187.203 216.172C187.595 216.023 187.884 215.901 188.071 215.808L188.715 218.244Z" fill="#191817"/>
<rect width="225" height="60" transform="translate(8 234)" fill="#A5CADC"/>
<path d="M116.343 253.62H119.311L127.039 273.5H123.735L121.635 268.096H113.963L111.891 273.5H108.559L116.343 253.62ZM121.019 265.772L117.827 257.064L114.523 265.772H121.019ZM137.002 273.78C135.882 273.78 134.864 273.519 133.95 272.996C133.035 272.455 132.326 271.736 131.822 270.84V273.5H129.106V253.06H132.186V261.628C132.764 260.695 133.483 259.957 134.342 259.416C135.219 258.875 136.246 258.604 137.422 258.604C138.728 258.604 139.867 258.959 140.838 259.668C141.808 260.377 142.564 261.32 143.106 262.496C143.647 263.653 143.918 264.904 143.918 266.248C143.918 267.629 143.61 268.889 142.994 270.028C142.396 271.167 141.575 272.081 140.53 272.772C139.484 273.444 138.308 273.78 137.002 273.78ZM136.19 271.148C137.086 271.148 137.879 270.924 138.57 270.476C139.26 270.009 139.792 269.403 140.166 268.656C140.558 267.909 140.754 267.107 140.754 266.248C140.754 265.371 140.567 264.549 140.194 263.784C139.839 263.019 139.335 262.403 138.682 261.936C138.028 261.469 137.272 261.236 136.414 261.236C135.48 261.236 134.64 261.544 133.894 262.16C133.147 262.776 132.578 263.523 132.186 264.4V268.264C132.335 268.824 132.624 269.319 133.054 269.748C133.483 270.177 133.978 270.523 134.538 270.784C135.116 271.027 135.667 271.148 136.19 271.148ZM153.268 273.78C151.737 273.78 150.403 273.435 149.264 272.744C148.144 272.035 147.276 271.111 146.66 269.972C146.044 268.815 145.736 267.555 145.736 266.192C145.736 264.829 146.044 263.579 146.66 262.44C147.295 261.283 148.172 260.359 149.292 259.668C150.431 258.959 151.756 258.604 153.268 258.604C154.78 258.604 156.096 258.959 157.216 259.668C158.355 260.359 159.232 261.283 159.848 262.44C160.483 263.579 160.8 264.829 160.8 266.192C160.8 267.555 160.492 268.815 159.876 269.972C159.26 271.111 158.383 272.035 157.244 272.744C156.124 273.435 154.799 273.78 153.268 273.78ZM148.9 266.22C148.9 267.153 149.096 267.993 149.488 268.74C149.88 269.487 150.403 270.075 151.056 270.504C151.709 270.933 152.447 271.148 153.268 271.148C154.071 271.148 154.799 270.933 155.452 270.504C156.124 270.056 156.656 269.459 157.048 268.712C157.44 267.965 157.636 267.125 157.636 266.192C157.636 265.259 157.44 264.419 157.048 263.672C156.656 262.925 156.124 262.337 155.452 261.908C154.799 261.46 154.071 261.236 153.268 261.236C152.465 261.236 151.728 261.46 151.056 261.908C150.403 262.337 149.88 262.935 149.488 263.7C149.096 264.447 148.9 265.287 148.9 266.22ZM163.392 267.816V258.856H166.472V267.2C166.472 269.832 167.405 271.148 169.272 271.148C170.149 271.148 170.98 270.877 171.764 270.336C172.548 269.776 173.154 268.992 173.584 267.984V258.856H176.664V270.028C176.664 270.383 176.729 270.635 176.86 270.784C176.99 270.933 177.205 271.017 177.504 271.036V273.5C177.186 273.556 176.925 273.593 176.72 273.612C176.514 273.631 176.318 273.64 176.132 273.64C175.572 273.64 175.105 273.491 174.732 273.192C174.358 272.893 174.144 272.492 174.088 271.988L174.032 270.532C173.378 271.596 172.529 272.408 171.484 272.968C170.438 273.509 169.29 273.78 168.04 273.78C166.509 273.78 165.352 273.276 164.568 272.268C163.784 271.26 163.392 269.776 163.392 267.816ZM188.715 272.744C188.323 272.931 187.781 273.145 187.091 273.388C186.4 273.612 185.663 273.724 184.879 273.724C183.908 273.724 183.068 273.463 182.359 272.94C181.668 272.417 181.323 271.568 181.323 270.392V261.236H179.391V258.856H181.323V254.04H184.403V258.856H187.595V261.236H184.403V269.412C184.44 269.935 184.599 270.317 184.879 270.56C185.177 270.784 185.541 270.896 185.971 270.896C186.4 270.896 186.811 270.821 187.203 270.672C187.595 270.523 187.884 270.401 188.071 270.308L188.715 272.744Z" fill="#191817"/>
<path d="M204.52 264L214.24 271.794L214.24 256.206L204.52 264Z" fill="#191817"/>
<rect width="225" height="49" transform="translate(8 294)" fill="#A5CADC"/>
<path d="M65.4336 308.12L71.4256 324.164L77.3896 308.12H80.7216L72.9096 328H69.9416L62.1016 308.12H65.4336ZM82.7582 310.948V307.56H85.8382V310.948H82.7582ZM82.7582 328V313.356H85.8382V328H82.7582ZM96.1754 328.28C94.6634 328.28 93.3381 327.935 92.1994 327.244C91.0607 326.553 90.1741 325.639 89.5394 324.5C88.9047 323.343 88.5874 322.083 88.5874 320.72C88.5874 319.339 88.9047 318.069 89.5394 316.912C90.1741 315.755 91.0607 314.831 92.1994 314.14C93.3381 313.449 94.6727 313.104 96.2034 313.104C97.7341 313.104 99.0594 313.459 100.179 314.168C101.299 314.859 102.158 315.773 102.755 316.912C103.371 318.051 103.679 319.273 103.679 320.58C103.679 321.047 103.651 321.42 103.595 321.7H91.8634C91.9194 322.559 92.1527 323.315 92.5634 323.968C92.9927 324.603 93.5247 325.107 94.1594 325.48C94.8127 325.835 95.5221 326.012 96.2874 326.012C97.1087 326.012 97.8834 325.807 98.6114 325.396C99.3394 324.985 99.8434 324.444 100.123 323.772L102.755 324.528C102.251 325.629 101.411 326.535 100.235 327.244C99.0781 327.935 97.7247 328.28 96.1754 328.28ZM91.7794 319.656H100.627C100.553 318.816 100.31 318.079 99.8994 317.444C99.4887 316.791 98.9567 316.287 98.3034 315.932C97.6687 315.559 96.9594 315.372 96.1754 315.372C95.4101 315.372 94.7007 315.559 94.0474 315.932C93.4127 316.287 92.8901 316.791 92.4794 317.444C92.0687 318.079 91.8354 318.816 91.7794 319.656ZM124.038 313.356H126.978L120.818 328H118.186L115.554 321.392L112.922 328H110.29L104.102 313.356H107.042L111.746 325.004L113.818 319.6L111.298 313.384H113.902L115.554 317.948L117.178 313.384H119.782L117.29 319.6L119.362 325.004L124.038 313.356ZM134.281 317.92C134.281 316.707 134.495 315.512 134.925 314.336C135.354 313.16 135.979 312.096 136.801 311.144C137.641 310.192 138.649 309.436 139.825 308.876C141.019 308.297 142.382 308.008 143.913 308.008C145.705 308.008 147.254 308.409 148.561 309.212C149.867 310.015 150.838 311.06 151.473 312.348L149.009 314C148.635 313.197 148.159 312.572 147.581 312.124C147.021 311.657 146.405 311.331 145.733 311.144C145.079 310.939 144.435 310.836 143.801 310.836C142.755 310.836 141.841 311.051 141.057 311.48C140.273 311.891 139.61 312.441 139.069 313.132C138.546 313.823 138.145 314.597 137.865 315.456C137.603 316.315 137.473 317.173 137.473 318.032C137.473 319.32 137.743 320.524 138.285 321.644C138.845 322.745 139.601 323.641 140.553 324.332C141.523 325.004 142.634 325.34 143.885 325.34C144.519 325.34 145.182 325.228 145.873 325.004C146.563 324.78 147.198 324.435 147.777 323.968C148.355 323.483 148.822 322.848 149.177 322.064L151.781 323.548C151.37 324.537 150.726 325.377 149.849 326.068C148.99 326.759 148.019 327.281 146.937 327.636C145.873 327.991 144.818 328.168 143.773 328.168C142.373 328.168 141.094 327.879 139.937 327.3C138.779 326.703 137.781 325.919 136.941 324.948C136.101 323.959 135.447 322.857 134.981 321.644C134.514 320.412 134.281 319.171 134.281 317.92ZM153.225 323.716C153.225 322.783 153.487 321.971 154.009 321.28C154.532 320.571 155.26 320.029 156.193 319.656C157.145 319.264 158.237 319.068 159.469 319.068C160.123 319.068 160.785 319.124 161.457 319.236C162.148 319.329 162.755 319.469 163.277 319.656V318.732C163.277 317.705 162.969 316.903 162.353 316.324C161.737 315.745 160.851 315.456 159.693 315.456C158.891 315.456 158.116 315.596 157.369 315.876C156.623 316.156 155.848 316.567 155.045 317.108L154.009 315.036C154.98 314.401 155.951 313.925 156.921 313.608C157.911 313.272 158.947 313.104 160.029 313.104C161.989 313.104 163.529 313.627 164.649 314.672C165.788 315.699 166.357 317.164 166.357 319.068V324.528C166.357 324.883 166.413 325.135 166.525 325.284C166.656 325.433 166.871 325.517 167.169 325.536V328C166.889 328.056 166.637 328.093 166.413 328.112C166.189 328.131 166.003 328.14 165.853 328.14C165.181 328.14 164.677 327.981 164.341 327.664C164.024 327.328 163.837 326.955 163.781 326.544L163.697 325.704C163.063 326.525 162.251 327.16 161.261 327.608C160.272 328.056 159.273 328.28 158.265 328.28C157.295 328.28 156.427 328.084 155.661 327.692C154.896 327.281 154.299 326.731 153.869 326.04C153.44 325.349 153.225 324.575 153.225 323.716ZM162.549 324.612C163.035 324.127 163.277 323.669 163.277 323.24V321.56C162.176 321.149 161.056 320.944 159.917 320.944C158.797 320.944 157.883 321.177 157.173 321.644C156.483 322.092 156.137 322.699 156.137 323.464C156.137 324.099 156.389 324.687 156.893 325.228C157.416 325.751 158.163 326.012 159.133 326.012C159.787 326.012 160.421 325.881 161.037 325.62C161.653 325.359 162.157 325.023 162.549 324.612ZM178.326 316.016C177.131 316.053 176.067 316.333 175.134 316.856C174.219 317.36 173.566 318.088 173.174 319.04V328H170.094V313.356H172.95V316.632C173.454 315.624 174.117 314.821 174.938 314.224C175.759 313.608 176.627 313.272 177.542 313.216C177.71 313.216 177.859 313.216 177.99 313.216C178.121 313.216 178.233 313.225 178.326 313.244V316.016ZM188.715 327.244C188.323 327.431 187.781 327.645 187.091 327.888C186.4 328.112 185.663 328.224 184.879 328.224C183.908 328.224 183.068 327.963 182.359 327.44C181.668 326.917 181.323 326.068 181.323 324.892V315.736H179.391V313.356H181.323V308.54H184.403V313.356H187.595V315.736H184.403V323.912C184.44 324.435 184.599 324.817 184.879 325.06C185.177 325.284 185.541 325.396 185.971 325.396C186.4 325.396 186.811 325.321 187.203 325.172C187.595 325.023 187.884 324.901 188.071 324.808L188.715 327.244Z" fill="#191817"/>
<rect width="225" height="49" transform="translate(8 343)" fill="#A5CADC"/>
<path d="M113.531 361.796C113.289 361.516 112.887 361.227 112.327 360.928C111.786 360.611 111.151 360.34 110.423 360.116C109.695 359.892 108.939 359.78 108.155 359.78C106.83 359.78 105.85 360.023 105.215 360.508C104.599 360.993 104.291 361.665 104.291 362.524C104.291 363.159 104.469 363.663 104.823 364.036C105.178 364.391 105.719 364.699 106.447 364.96C107.175 365.203 108.09 365.455 109.191 365.716C110.535 366.033 111.693 366.416 112.663 366.864C113.653 367.293 114.409 367.872 114.931 368.6C115.473 369.328 115.743 370.289 115.743 371.484C115.743 372.847 115.417 373.948 114.763 374.788C114.11 375.628 113.223 376.244 112.103 376.636C111.002 377.009 109.789 377.196 108.463 377.196C106.951 377.196 105.486 376.963 104.067 376.496C102.649 376.029 101.379 375.367 100.259 374.508L101.687 371.82C102.005 372.137 102.509 372.501 103.199 372.912C103.89 373.304 104.693 373.649 105.607 373.948C106.541 374.228 107.511 374.368 108.519 374.368C109.751 374.368 110.703 374.153 111.375 373.724C112.047 373.276 112.383 372.641 112.383 371.82C112.383 371.148 112.159 370.616 111.711 370.224C111.282 369.813 110.657 369.477 109.835 369.216C109.033 368.936 108.062 368.647 106.923 368.348C105.617 368.012 104.525 367.629 103.647 367.2C102.77 366.771 102.107 366.229 101.659 365.576C101.23 364.923 101.015 364.073 101.015 363.028C101.015 361.721 101.333 360.62 101.967 359.724C102.602 358.809 103.461 358.128 104.543 357.68C105.645 357.213 106.877 356.98 108.239 356.98C109.583 356.98 110.825 357.195 111.963 357.624C113.102 358.053 114.101 358.585 114.959 359.22L113.531 361.796ZM118.496 359.948V356.56H121.576V359.948H118.496ZM118.496 377V362.356H121.576V377H118.496ZM131.074 377.14C129.748 377.14 128.582 376.795 127.574 376.104C126.584 375.413 125.8 374.508 125.222 373.388C124.662 372.249 124.382 371.017 124.382 369.692C124.382 368.311 124.671 367.041 125.25 365.884C125.828 364.727 126.622 363.812 127.63 363.14C128.656 362.449 129.842 362.104 131.186 362.104C132.362 362.104 133.388 362.384 134.266 362.944C135.162 363.504 135.899 364.232 136.478 365.128V362.356H139.194V376.58C139.194 377.999 138.848 379.203 138.158 380.192C137.486 381.181 136.562 381.937 135.386 382.46C134.21 382.983 132.884 383.244 131.41 383.244C129.786 383.244 128.432 382.964 127.35 382.404C126.286 381.844 125.39 381.079 124.662 380.108L126.398 378.484C126.958 379.268 127.676 379.865 128.554 380.276C129.45 380.687 130.402 380.892 131.41 380.892C132.25 380.892 133.024 380.733 133.734 380.416C134.462 380.117 135.04 379.651 135.47 379.016C135.899 378.381 136.114 377.569 136.114 376.58V374.34C135.591 375.217 134.872 375.908 133.958 376.412C133.043 376.897 132.082 377.14 131.074 377.14ZM132.082 374.648C132.698 374.648 133.286 374.517 133.846 374.256C134.406 373.976 134.882 373.612 135.274 373.164C135.684 372.716 135.964 372.24 136.114 371.736V367.9C135.74 366.967 135.152 366.211 134.35 365.632C133.566 365.035 132.735 364.736 131.858 364.736C130.962 364.736 130.187 364.979 129.534 365.464C128.899 365.949 128.404 366.584 128.05 367.368C127.695 368.133 127.518 368.936 127.518 369.776C127.518 370.672 127.714 371.493 128.106 372.24C128.516 372.968 129.067 373.556 129.758 374.004C130.448 374.433 131.223 374.648 132.082 374.648ZM156.019 377H152.939V368.796C152.939 367.415 152.715 366.416 152.267 365.8C151.838 365.165 151.194 364.848 150.335 364.848C149.738 364.848 149.14 364.997 148.543 365.296C147.964 365.595 147.442 366.005 146.975 366.528C146.508 367.051 146.172 367.639 145.967 368.292V377H142.887V362.356H145.687V365.296C146.247 364.325 147.059 363.551 148.123 362.972C149.187 362.393 150.363 362.104 151.651 362.104C152.808 362.104 153.704 362.384 154.339 362.944C154.974 363.485 155.412 364.204 155.655 365.1C155.898 365.996 156.019 366.985 156.019 368.068V377ZM166.904 377V357.12H170.04V377H166.904ZM187.273 377H184.193V368.796C184.193 367.415 183.969 366.416 183.521 365.8C183.092 365.165 182.448 364.848 181.589 364.848C180.992 364.848 180.394 364.997 179.797 365.296C179.218 365.595 178.696 366.005 178.229 366.528C177.762 367.051 177.426 367.639 177.221 368.292V377H174.141V362.356H176.941V365.296C177.501 364.325 178.313 363.551 179.377 362.972C180.441 362.393 181.617 362.104 182.905 362.104C184.062 362.104 184.958 362.384 185.593 362.944C186.228 363.485 186.666 364.204 186.909 365.1C187.152 365.996 187.273 366.985 187.273 368.068V377Z" fill="#191817"/>
<rect width="225" height="49" transform="translate(8 392)" fill="#A5CADC"/>
<path d="M110.852 410.796C110.609 410.516 110.208 410.227 109.648 409.928C109.106 409.611 108.472 409.34 107.744 409.116C107.016 408.892 106.26 408.78 105.476 408.78C104.15 408.78 103.17 409.023 102.536 409.508C101.92 409.993 101.612 410.665 101.612 411.524C101.612 412.159 101.789 412.663 102.144 413.036C102.498 413.391 103.04 413.699 103.768 413.96C104.496 414.203 105.41 414.455 106.512 414.716C107.856 415.033 109.013 415.416 109.984 415.864C110.973 416.293 111.729 416.872 112.252 417.6C112.793 418.328 113.064 419.289 113.064 420.484C113.064 421.847 112.737 422.948 112.084 423.788C111.43 424.628 110.544 425.244 109.424 425.636C108.322 426.009 107.109 426.196 105.784 426.196C104.272 426.196 102.806 425.963 101.388 425.496C99.9689 425.029 98.6996 424.367 97.5796 423.508L99.0076 420.82C99.3249 421.137 99.8289 421.501 100.52 421.912C101.21 422.304 102.013 422.649 102.928 422.948C103.861 423.228 104.832 423.368 105.84 423.368C107.072 423.368 108.024 423.153 108.696 422.724C109.368 422.276 109.704 421.641 109.704 420.82C109.704 420.148 109.48 419.616 109.032 419.224C108.602 418.813 107.977 418.477 107.156 418.216C106.353 417.936 105.382 417.647 104.244 417.348C102.937 417.012 101.845 416.629 100.968 416.2C100.09 415.771 99.4276 415.229 98.9796 414.576C98.5502 413.923 98.3356 413.073 98.3356 412.028C98.3356 410.721 98.6529 409.62 99.2876 408.724C99.9222 407.809 100.781 407.128 101.864 406.68C102.965 406.213 104.197 405.98 105.56 405.98C106.904 405.98 108.145 406.195 109.284 406.624C110.422 407.053 111.421 407.585 112.28 408.22L110.852 410.796ZM122.453 426.28C120.941 426.28 119.615 425.935 118.477 425.244C117.338 424.553 116.451 423.639 115.817 422.5C115.182 421.343 114.865 420.083 114.865 418.72C114.865 417.339 115.182 416.069 115.817 414.912C116.451 413.755 117.338 412.831 118.477 412.14C119.615 411.449 120.95 411.104 122.481 411.104C124.011 411.104 125.337 411.459 126.457 412.168C127.577 412.859 128.435 413.773 129.033 414.912C129.649 416.051 129.957 417.273 129.957 418.58C129.957 419.047 129.929 419.42 129.873 419.7H118.141C118.197 420.559 118.43 421.315 118.841 421.968C119.27 422.603 119.802 423.107 120.437 423.48C121.09 423.835 121.799 424.012 122.565 424.012C123.386 424.012 124.161 423.807 124.889 423.396C125.617 422.985 126.121 422.444 126.401 421.772L129.033 422.528C128.529 423.629 127.689 424.535 126.513 425.244C125.355 425.935 124.002 426.28 122.453 426.28ZM118.057 417.656H126.905C126.83 416.816 126.587 416.079 126.177 415.444C125.766 414.791 125.234 414.287 124.581 413.932C123.946 413.559 123.237 413.372 122.453 413.372C121.687 413.372 120.978 413.559 120.325 413.932C119.69 414.287 119.167 414.791 118.757 415.444C118.346 416.079 118.113 416.816 118.057 417.656ZM131.405 421.716C131.405 420.783 131.666 419.971 132.189 419.28C132.712 418.571 133.44 418.029 134.373 417.656C135.325 417.264 136.417 417.068 137.649 417.068C138.302 417.068 138.965 417.124 139.637 417.236C140.328 417.329 140.934 417.469 141.457 417.656V416.732C141.457 415.705 141.149 414.903 140.533 414.324C139.917 413.745 139.03 413.456 137.873 413.456C137.07 413.456 136.296 413.596 135.549 413.876C134.802 414.156 134.028 414.567 133.225 415.108L132.189 413.036C133.16 412.401 134.13 411.925 135.101 411.608C136.09 411.272 137.126 411.104 138.209 411.104C140.169 411.104 141.709 411.627 142.829 412.672C143.968 413.699 144.537 415.164 144.537 417.068V422.528C144.537 422.883 144.593 423.135 144.705 423.284C144.836 423.433 145.05 423.517 145.349 423.536V426C145.069 426.056 144.817 426.093 144.593 426.112C144.369 426.131 144.182 426.14 144.033 426.14C143.361 426.14 142.857 425.981 142.521 425.664C142.204 425.328 142.017 424.955 141.961 424.544L141.877 423.704C141.242 424.525 140.43 425.16 139.441 425.608C138.452 426.056 137.453 426.28 136.445 426.28C135.474 426.28 134.606 426.084 133.841 425.692C133.076 425.281 132.478 424.731 132.049 424.04C131.62 423.349 131.405 422.575 131.405 421.716ZM140.729 422.612C141.214 422.127 141.457 421.669 141.457 421.24V419.56C140.356 419.149 139.236 418.944 138.097 418.944C136.977 418.944 136.062 419.177 135.353 419.644C134.662 420.092 134.317 420.699 134.317 421.464C134.317 422.099 134.569 422.687 135.073 423.228C135.596 423.751 136.342 424.012 137.313 424.012C137.966 424.012 138.601 423.881 139.217 423.62C139.833 423.359 140.337 423.023 140.729 422.612ZM156.506 414.016C155.311 414.053 154.247 414.333 153.314 414.856C152.399 415.36 151.746 416.088 151.354 417.04V426H148.274V411.356H151.13V414.632C151.634 413.624 152.296 412.821 153.118 412.224C153.939 411.608 154.807 411.272 155.722 411.216C155.89 411.216 156.039 411.216 156.17 411.216C156.3 411.216 156.412 411.225 156.506 411.244V414.016ZM165.136 426.28C163.624 426.28 162.299 425.935 161.16 425.244C160.022 424.535 159.135 423.601 158.5 422.444C157.866 421.287 157.548 420.027 157.548 418.664C157.548 417.301 157.856 416.051 158.472 414.912C159.107 413.755 159.984 412.831 161.104 412.14C162.243 411.449 163.587 411.104 165.136 411.104C166.648 411.104 167.946 411.44 169.028 412.112C170.13 412.765 170.951 413.643 171.492 414.744L168.496 415.696C168.16 415.08 167.684 414.604 167.068 414.268C166.471 413.913 165.808 413.736 165.08 413.736C164.259 413.736 163.512 413.951 162.84 414.38C162.187 414.791 161.664 415.369 161.272 416.116C160.899 416.863 160.712 417.712 160.712 418.664C160.712 419.616 160.908 420.465 161.3 421.212C161.711 421.959 162.243 422.556 162.896 423.004C163.568 423.433 164.306 423.648 165.108 423.648C165.855 423.648 166.564 423.452 167.236 423.06C167.908 422.668 168.356 422.192 168.58 421.632L171.604 422.528C171.119 423.629 170.307 424.535 169.168 425.244C168.03 425.935 166.686 426.28 165.136 426.28ZM187.273 426H184.193V417.796C184.193 416.471 183.95 415.481 183.465 414.828C182.98 414.175 182.298 413.848 181.421 413.848C180.861 413.848 180.292 413.997 179.713 414.296C179.153 414.595 178.649 415.005 178.201 415.528C177.753 416.032 177.426 416.62 177.221 417.292V426H174.141V405.56H177.221V414.296C177.781 413.288 178.546 412.504 179.517 411.944C180.488 411.384 181.533 411.104 182.653 411.104C183.866 411.104 184.809 411.384 185.481 411.944C186.153 412.485 186.62 413.213 186.881 414.128C187.142 415.024 187.273 416.004 187.273 417.068V426Z" fill="#191817"/>
</svg>
