<svg width="33" height="24" viewBox="0 0 33 24" fill="none" xmlns="http://www.w3.org/2000/svg">
<path fill-rule="evenodd" clip-rule="evenodd" d="M0.37854 2.48584C0.37854 1.65741 1.05011 0.98584 1.87854 0.98584H29.5917C30.4201 0.98584 31.0917 1.65741 31.0917 2.48584C31.0917 3.31427 30.4201 3.98584 29.5917 3.98584H1.87854C1.05011 3.98584 0.37854 3.31427 0.37854 2.48584ZM1.87854 11.2499C1.87854 10.4214 2.55011 9.74987 3.37854 9.74987H20.9068C21.7352 9.74987 22.4068 10.4214 22.4068 11.2499C22.4068 12.0783 21.7352 12.7499 20.9068 12.7499H3.37854C2.55011 12.7499 1.87854 12.0783 1.87854 11.2499ZM3.37854 20.0139C2.55011 20.0139 1.87854 20.6855 1.87854 21.5139C1.87854 22.3423 2.55011 23.0139 3.37854 23.0139H31.1709C31.9993 23.0139 32.6709 22.3423 32.6709 21.5139C32.6709 20.6855 31.9993 20.0139 31.1709 20.0139H3.37854Z" fill="black"/>
</svg>
