<svg width="33" height="24" viewBox="0 0 33 24" fill="none" xmlns="http://www.w3.org/2000/svg">
<path fill-rule="evenodd" clip-rule="evenodd" d="M0.378418 2.48633C0.378418 1.6579 1.04999 0.986328 1.87842 0.986328H29.5915C30.42 0.986328 31.0915 1.6579 31.0915 2.48633C31.0915 3.31476 30.42 3.98633 29.5915 3.98633H1.87842C1.04999 3.98633 0.378418 3.31476 0.378418 2.48633ZM1.87842 11.2504C1.87842 10.4219 2.54999 9.75036 3.37842 9.75036H20.9067C21.7351 9.75036 22.4067 10.4219 22.4067 11.2504C22.4067 12.0788 21.7351 12.7504 20.9067 12.7504H3.37842C2.54999 12.7504 1.87842 12.0788 1.87842 11.2504ZM3.37842 20.0144C2.54999 20.0144 1.87842 20.686 1.87842 21.5144C1.87842 22.3428 2.54999 23.0144 3.37842 23.0144H31.1708C31.9992 23.0144 32.6708 22.3428 32.6708 21.5144C32.6708 20.686 31.9992 20.0144 31.1708 20.0144H3.37842Z" fill="black"/>
</svg>
