<svg width="31" height="32" viewBox="0 0 31 32" fill="none" xmlns="http://www.w3.org/2000/svg">
<path d="M29.137 9.16567C28.25 8.03992 27.1153 7.3493 25.8886 7.18163C25.8726 6.38722 25.8607 5.78443 25.8567 5.26547V5.25748C25.8567 5.12974 25.8487 5.00599 25.8487 5.002V4.99401C25.8007 4.22355 25.3812 3.501 24.6061 2.84631C23.9268 2.27146 22.9879 1.76447 21.8132 1.33333C19.4718 0.471058 16.3872 0 13.1309 0C9.87453 0 6.78998 0.471058 4.4486 1.33333C3.27391 1.76048 2.33496 2.27146 1.65572 2.84631C0.880586 3.501 0.461055 4.22355 0.413108 4.99401V5.01397V5.02196C0.401122 5.16168 0.393131 5.41317 0.377148 5.92415C0.361166 6.45509 0.337193 7.30938 0.321211 8.36327C0.297238 10.2116 0.297238 13.0299 0.441077 15.9561C0.600898 19.2535 0.908554 22.012 1.35206 24.1557C1.92742 26.9501 2.73052 28.6946 3.79732 29.485C4.65237 30.3233 6.02284 30.9701 7.87277 31.4092C9.47897 31.7924 11.3649 31.996 13.3347 31.996C13.3866 31.996 13.4425 31.996 13.4945 31.996C15.5042 31.984 17.4341 31.7645 19.0802 31.3613C20.9062 30.9142 22.2447 30.2794 23.0678 29.473C23.9228 28.7824 24.5701 27.5449 25.0416 25.7006C25.3932 24.3194 25.6449 22.6307 25.8047 20.5469C27.0353 20.3832 28.214 19.6806 29.109 18.5669C30.1319 17.2894 30.6952 15.6208 30.6952 13.8603C30.6913 12.1038 30.1399 10.4351 29.137 9.16567ZM25.9965 12.9381C25.9925 12.2754 25.9805 11.5848 25.9685 10.8224C27.2951 11.2814 27.8864 12.2794 27.7266 13.8044C27.6307 14.7465 27.327 15.5968 26.8795 16.1956C26.6757 16.4671 26.3721 16.7784 25.9685 16.9461C25.9805 16.3952 25.9925 15.8243 25.9965 15.2136C26.0045 14.499 26.0045 13.7525 25.9965 12.9381ZM4.86014 2.45509C7.07766 1.64471 10.0144 1.1976 13.1309 1.1976C16.2514 1.1976 19.1881 1.64471 21.4016 2.45509C23.3515 3.16966 24.5581 4.12774 24.654 5.02994C24.654 5.04191 24.65 5.0499 24.65 5.06188C24.65 5.07784 24.646 5.08982 24.642 5.10579C24.638 5.12176 24.638 5.13772 24.634 5.1497C24.63 5.16567 24.626 5.17764 24.622 5.19361C24.618 5.20958 24.614 5.22156 24.6101 5.23752C24.6061 5.25349 24.6021 5.26547 24.5981 5.28144C24.5941 5.2974 24.5861 5.30938 24.5821 5.32535C24.5781 5.34132 24.5701 5.35329 24.5661 5.36926C24.5581 5.38523 24.5541 5.3972 24.5461 5.40918C24.5381 5.42515 24.5341 5.43712 24.5261 5.45309C24.5182 5.46507 24.5102 5.48104 24.5022 5.49301C24.4942 5.50499 24.4862 5.52096 24.4782 5.53293C24.4702 5.54491 24.4622 5.56088 24.4542 5.57285C24.4462 5.58483 24.4382 5.6008 24.4263 5.61277C24.4183 5.62475 24.4063 5.63673 24.3983 5.6487C24.3863 5.66068 24.3783 5.67665 24.3663 5.68862C24.3583 5.7006 24.3463 5.71257 24.3384 5.72455C24.3264 5.73653 24.3144 5.75249 24.3064 5.76447C24.2944 5.77645 24.2864 5.78842 24.2744 5.8004C24.2624 5.81237 24.2505 5.82834 24.2385 5.84032C24.2265 5.85229 24.2145 5.86427 24.2065 5.87625C24.1945 5.88822 24.1825 5.9002 24.1665 5.91617C24.1546 5.92814 24.1426 5.94012 24.1306 5.9481C24.1186 5.96008 24.1026 5.97205 24.0906 5.98403C24.0786 5.99601 24.0667 6.00399 24.0547 6.01597C24.0387 6.02794 24.0267 6.03992 24.0107 6.0519C23.9987 6.06387 23.9867 6.07185 23.9748 6.08383C23.9588 6.09581 23.9428 6.10778 23.9268 6.11976C23.9148 6.12774 23.9028 6.13972 23.8869 6.1477C23.8709 6.15968 23.8549 6.17166 23.8389 6.18363C23.8269 6.19162 23.8109 6.20359 23.799 6.21158C23.783 6.22355 23.767 6.23553 23.751 6.2475C23.739 6.25549 23.723 6.26347 23.7111 6.27545C23.6951 6.28742 23.6751 6.2994 23.6591 6.31138C23.6471 6.31936 23.6311 6.32734 23.6192 6.33533C23.6032 6.3473 23.5832 6.35928 23.5672 6.36726C23.5552 6.37525 23.5392 6.38323 23.5273 6.39122C23.5113 6.40319 23.4913 6.41118 23.4713 6.42315C23.4593 6.43114 23.4434 6.43912 23.4314 6.4471C23.4114 6.45908 23.3954 6.46706 23.3754 6.47904C23.3634 6.48702 23.3475 6.49501 23.3355 6.50299C23.3155 6.51497 23.2995 6.52295 23.2795 6.53493C23.2676 6.54291 23.2516 6.5509 23.2356 6.55888C23.2156 6.56686 23.1996 6.57884 23.1797 6.58682C23.1637 6.59481 23.1517 6.60279 23.1357 6.60678C23.1157 6.61477 23.0997 6.62674 23.0798 6.63473C23.0638 6.64271 23.0518 6.64671 23.0358 6.65469C23.0158 6.66267 22.9999 6.67066 22.9799 6.68263C22.9639 6.69062 22.9519 6.69461 22.9359 6.70259C22.9159 6.71058 22.9 6.71856 22.88 6.72655C22.868 6.73453 22.852 6.73852 22.84 6.74651C22.8201 6.75449 22.8041 6.76247 22.7841 6.77046C22.7681 6.77844 22.7561 6.78243 22.7401 6.79042C22.7242 6.7984 22.7042 6.80639 22.6882 6.81437C22.6722 6.82235 22.6602 6.82635 22.6443 6.83034C22.6283 6.83832 22.6083 6.84631 22.5923 6.8503C22.5763 6.85429 22.5643 6.86227 22.5484 6.86627C22.5324 6.87425 22.5164 6.87824 22.5004 6.88623C22.4844 6.89421 22.4684 6.8982 22.4525 6.90619C22.4365 6.91018 22.4245 6.91816 22.4085 6.92215C22.3925 6.93014 22.3766 6.93413 22.3606 6.94211C22.3486 6.94611 22.3366 6.9501 22.3246 6.95808C22.2966 6.97006 22.2687 6.97804 22.2407 6.99002C20.7903 7.52096 18.7966 7.88822 16.4472 8.06786C16.2035 8.08782 15.9557 8.10379 15.708 8.11577H15.68C14.857 8.16367 14.0099 8.18762 13.1589 8.18762H13.1229C13.0869 8.18762 13.055 8.18762 13.023 8.18762H13.019C9.77464 8.17964 6.84592 7.84431 4.78422 7.24152C4.66036 7.20559 4.54049 7.16966 4.42462 7.12974C4.42063 7.12974 4.41264 7.12575 4.40864 7.12575C4.3567 7.10978 4.30476 7.08982 4.25281 7.07385C4.23683 7.06986 4.22485 7.06187 4.20886 7.05788C4.16891 7.04191 4.12496 7.02994 4.085 7.01397C4.06502 7.00599 4.04904 7.00199 4.03306 6.99401C3.9971 6.98203 3.96114 6.96607 3.92518 6.95409C3.9052 6.94611 3.88523 6.93812 3.86525 6.93014C3.83328 6.91816 3.80132 6.90619 3.76936 6.89421C3.74938 6.88623 3.7294 6.87824 3.70543 6.87026C3.67746 6.85828 3.64549 6.84631 3.61753 6.83433C3.59355 6.82635 3.57357 6.81437 3.5536 6.80639C3.52563 6.79441 3.49766 6.78243 3.47369 6.77046C3.44971 6.76247 3.42974 6.7505 3.40576 6.74251C3.38179 6.73054 3.35382 6.71856 3.32985 6.71058C3.30587 6.6986 3.2859 6.69062 3.26592 6.67864C3.24195 6.66667 3.21797 6.65469 3.194 6.64671C3.17402 6.63473 3.15005 6.62674 3.13007 6.61477C3.1061 6.60279 3.08612 6.59082 3.06215 6.58283C3.04217 6.57086 3.02219 6.56287 2.99822 6.5509C2.97824 6.53892 2.95427 6.52694 2.93429 6.51896C2.91431 6.50698 2.89433 6.49501 2.87436 6.48303C2.85438 6.47106 2.8344 6.45908 2.81442 6.4511C2.79445 6.43912 2.77447 6.42714 2.75449 6.41517C2.73451 6.40319 2.71853 6.39122 2.69855 6.38323C2.67858 6.37126 2.66259 6.35928 2.64262 6.3473C2.62663 6.33533 2.60666 6.32335 2.59067 6.31537C2.5707 6.30339 2.55471 6.29142 2.53873 6.27944C2.52275 6.26746 2.50677 6.25549 2.49079 6.2475C2.4748 6.23553 2.45483 6.22355 2.43884 6.21158C2.42286 6.1996 2.40688 6.18762 2.3909 6.17565C2.37491 6.16367 2.35893 6.1517 2.34295 6.13972C2.32697 6.12774 2.31099 6.11577 2.299 6.10379C2.28302 6.09181 2.26704 6.07984 2.25505 6.06786C2.24306 6.05589 2.22708 6.04391 2.21509 6.03194C2.19911 6.01996 2.18712 6.00798 2.17114 5.99201C2.15916 5.98004 2.14317 5.96806 2.13119 5.95609C2.1192 5.94411 2.10322 5.93213 2.09123 5.91617C2.07925 5.90419 2.06726 5.89221 2.05527 5.88024C2.04329 5.86826 2.0313 5.85629 2.01931 5.84032C2.00733 5.82834 1.99534 5.81637 1.98735 5.80439C1.97536 5.79241 1.96337 5.77645 1.95538 5.76447C1.9434 5.75249 1.93541 5.74052 1.92342 5.72854C1.91143 5.71657 1.90344 5.7006 1.89146 5.68862C1.88346 5.67665 1.87148 5.66467 1.86349 5.65269C1.8555 5.64072 1.84351 5.62475 1.83552 5.61277C1.82753 5.6008 1.81954 5.58882 1.81154 5.57685C1.80355 5.56487 1.79556 5.5489 1.78757 5.53692C1.77958 5.52495 1.77159 5.51297 1.7636 5.501C1.75561 5.48902 1.74762 5.47305 1.74362 5.46108C1.73563 5.4491 1.73163 5.43712 1.72364 5.42515C1.71565 5.41317 1.71166 5.3972 1.70367 5.38523C1.69967 5.37325 1.69168 5.36128 1.68768 5.34531C1.68369 5.33333 1.6757 5.31736 1.6717 5.30539C1.66771 5.29341 1.66371 5.28144 1.65971 5.26547C1.65572 5.25349 1.65172 5.23752 1.64773 5.22555C1.64373 5.21357 1.63974 5.1976 1.63574 5.18563C1.63175 5.17365 1.63175 5.15768 1.62775 5.14571C1.62375 5.13373 1.62375 5.11776 1.61976 5.10579C1.61576 5.09381 1.61576 5.07784 1.61576 5.06587C1.61576 5.05389 1.61177 5.04591 1.61177 5.03393C1.70367 4.13174 2.91032 3.16966 4.86014 2.45509ZM22.2886 28.5629L22.2607 28.5828L22.2367 28.6068C21.5854 29.2575 20.3948 29.8084 18.7886 30.2036C17.2303 30.5828 15.3964 30.7904 13.4825 30.8024C9.44701 30.8223 5.9629 29.9641 4.60842 28.6068L4.57246 28.5709L4.5325 28.5429C3.97313 28.1437 3.17402 27.0299 2.53474 23.9681C2.10322 21.9042 1.80355 19.2335 1.64373 16.0239C1.46393 12.475 1.4959 9.06187 1.54384 7.01397C1.58779 7.04591 1.62775 7.08183 1.6757 7.11377C2.21509 7.51696 2.93429 7.87225 3.8173 8.17565C3.88523 8.1996 3.95315 8.22355 4.02507 8.24351C4.16491 8.28742 4.30875 8.33134 4.45659 8.37525C4.52451 8.39521 4.59643 8.41517 4.66435 8.43513C6.0508 8.81836 7.72493 9.08982 9.61082 9.23752C9.67475 9.24152 9.73469 9.24551 9.79861 9.25349C9.8985 9.26148 10.0024 9.26946 10.1023 9.27345C11.0292 9.33333 12.0081 9.36527 13.023 9.36926C13.059 9.36926 13.0989 9.36926 13.1349 9.36926H13.1668C13.2188 9.36926 13.2707 9.36926 13.3227 9.36926C13.3546 9.36926 13.3866 9.36926 13.4146 9.36926C13.4625 9.36926 13.5105 9.36926 13.5544 9.36926C13.6143 9.36926 13.6743 9.36926 13.7342 9.36926C13.7822 9.36926 13.8261 9.36926 13.8741 9.36926C13.934 9.36926 13.9939 9.36926 14.0539 9.36527C14.0978 9.36527 14.1458 9.36527 14.1897 9.36128C14.2496 9.36128 14.3096 9.35728 14.3695 9.35728C14.4135 9.35728 14.4614 9.35329 14.5054 9.35329C14.5653 9.35329 14.6252 9.3493 14.6852 9.3493C14.7291 9.3493 14.7731 9.34531 14.821 9.34531C14.8809 9.34132 14.9449 9.34132 15.0048 9.33732C15.0487 9.33732 15.0887 9.33333 15.1327 9.33333C15.2006 9.32934 15.2645 9.32535 15.3284 9.32535C15.3684 9.32535 15.4043 9.32135 15.4443 9.32135C15.5402 9.31736 15.6361 9.30938 15.732 9.30539C15.74 9.30539 15.744 9.30539 15.752 9.30539C15.7639 9.30539 15.7759 9.30539 15.7879 9.3014C15.9437 9.29341 16.1036 9.28144 16.2554 9.27345C16.4791 9.25748 16.6989 9.24152 16.9187 9.22155C19.2161 9.02595 21.1859 8.64271 22.6562 8.10778C22.7122 8.08782 22.7681 8.06786 22.8201 8.0479C22.836 8.03992 22.856 8.03593 22.872 8.02794C22.908 8.01597 22.9439 8 22.9799 7.98403C22.9999 7.97605 23.0198 7.96806 23.0398 7.96008C23.0718 7.9481 23.1037 7.93213 23.1357 7.92016C23.1557 7.91217 23.1797 7.90419 23.1996 7.89221C23.2316 7.88024 23.2596 7.86826 23.2875 7.85229C23.3075 7.84431 23.3275 7.83233 23.3515 7.82435C23.3794 7.81237 23.4074 7.79641 23.4394 7.78443C23.4593 7.77645 23.4793 7.76447 23.4993 7.75649C23.5273 7.74451 23.5552 7.72854 23.5832 7.71657C23.6032 7.70858 23.6232 7.69661 23.6391 7.68862C23.6671 7.67265 23.6951 7.66068 23.723 7.64471C23.739 7.63672 23.759 7.62874 23.775 7.61677C23.8069 7.6008 23.8389 7.58483 23.8709 7.56487C23.8829 7.55688 23.8988 7.55289 23.9108 7.54491C23.9548 7.52096 23.9987 7.497 24.0387 7.47305C24.0467 7.46906 24.0547 7.46507 24.0627 7.45708C24.0946 7.43712 24.1306 7.41716 24.1626 7.3972C24.1785 7.38922 24.1905 7.37724 24.2065 7.36926C24.2305 7.35329 24.2584 7.33732 24.2824 7.32136C24.2984 7.30938 24.3144 7.3014 24.3304 7.28942C24.3543 7.27345 24.3783 7.25748 24.3983 7.24551C24.4143 7.23353 24.4303 7.22555 24.4462 7.21357C24.4662 7.1976 24.4902 7.18164 24.5102 7.16966C24.5261 7.15768 24.5421 7.14571 24.5581 7.13772C24.5781 7.12176 24.5981 7.10579 24.618 7.08982C24.634 7.07784 24.646 7.06587 24.662 7.05788C24.67 7.05389 24.674 7.04591 24.682 7.04191C24.686 7.21357 24.69 7.39321 24.694 7.58084V7.64471C24.694 7.66068 24.694 7.68064 24.694 7.69661C24.694 7.7006 24.694 7.70459 24.694 7.70858C24.682 7.84032 24.686 8.27944 24.7059 9.00998C24.7139 9.27744 24.7219 9.5489 24.7299 9.74451C24.7339 9.8483 24.7379 9.93213 24.7419 9.98802C24.7419 10.0239 24.7459 10.0519 24.7459 10.0719C24.7459 10.0758 24.7459 10.0838 24.7459 10.0878C24.7659 11.1617 24.7819 12.0719 24.7899 12.9421C24.7978 13.7485 24.7978 14.487 24.7899 15.1976C24.7819 16.016 24.7699 16.7665 24.7459 17.489V17.501C24.7459 17.517 24.7459 17.5289 24.7459 17.5449V17.5489C24.7459 17.5808 24.7419 17.6088 24.7419 17.6407C24.7379 17.7206 24.7059 18.2515 24.678 18.7864C24.662 19.1218 24.646 19.3932 24.638 19.5888C24.634 19.7006 24.63 19.7964 24.626 19.8603C24.626 19.8962 24.622 19.9321 24.626 19.9721C24.4782 22.1796 24.2185 24.004 23.8629 25.4012C23.4673 26.99 22.9359 28.0519 22.2886 28.5629ZM28.1661 17.8243C27.5268 18.6188 26.7157 19.1457 25.8766 19.3253C25.8966 18.9621 25.9166 18.5908 25.9286 18.2076C26.6558 18.0519 27.323 17.6048 27.8384 16.9142C28.4138 16.1437 28.7974 15.0818 28.9172 13.9281C29.149 11.6846 28.0702 10.1198 25.9406 9.56487C25.9326 9.16567 25.9246 8.77844 25.9126 8.40319C26.7557 8.57485 27.5508 9.09381 28.1901 9.90818C29.0251 10.9661 29.4846 12.3752 29.4846 13.8683C29.4926 15.3533 29.0211 16.7585 28.1661 17.8243Z" fill="black"/>
</svg>
