<svg width="34" height="23" viewBox="0 0 34 23" fill="none" xmlns="http://www.w3.org/2000/svg">
<path d="M30.0502 4.1907H9.13726L9.09508 3.99044C8.90088 3.08702 8.40476 2.27722 7.68891 1.69519C6.97305 1.11315 6.08041 0.793805 5.15883 0.790039H0.751784C0.553855 0.790039 0.364033 0.868887 0.224077 1.00924C0.08412 1.14959 0.00549316 1.33995 0.00549316 1.53843C0.00549316 1.73692 0.08412 1.92727 0.224077 2.06763C0.364033 2.20798 0.553855 2.28682 0.751784 2.28682H5.15883C5.73854 2.28922 6.30005 2.49015 6.7503 2.85634C7.20056 3.22253 7.51254 3.732 7.63457 4.30032L10.7633 19.1527C10.9769 20.1474 11.5231 21.039 12.3112 21.6798C13.0993 22.3206 14.0821 22.6722 15.0967 22.6761H27.0017C27.1996 22.6761 27.3894 22.5973 27.5294 22.4569C27.6693 22.3166 27.748 22.1262 27.748 21.9277C27.748 21.7293 27.6693 21.5389 27.5294 21.3986C27.3894 21.2582 27.1996 21.1794 27.0017 21.1794H15.0967C14.4239 21.1769 13.7722 20.9438 13.2497 20.5188C12.7271 20.0938 12.3651 19.5025 12.2238 18.8428L12.1239 18.3685H25.5084C26.0922 18.3704 26.6668 18.2226 27.1777 17.9391C27.6885 17.6557 28.1187 17.246 28.4272 16.7489L32.9691 9.47913C33.2957 8.95633 33.4767 8.35537 33.4933 7.73868C33.51 7.12199 33.3616 6.51209 33.0637 5.97234C32.7658 5.43259 32.3292 4.98268 31.7993 4.66937C31.2694 4.35606 30.6654 4.19078 30.0502 4.19069V4.1907ZM31.7039 8.68397L27.162 15.9538C26.9873 16.2355 26.7436 16.4677 26.4542 16.6284C26.1648 16.789 25.8392 16.8728 25.5084 16.8717H11.8086L9.45254 5.68748H30.0502C30.3988 5.68757 30.741 5.78125 31.0412 5.95879C31.3414 6.13632 31.5888 6.39125 31.7576 6.69707C31.9263 7.0029 32.0104 7.34846 32.0009 7.69786C31.9915 8.04727 31.8889 8.38776 31.7039 8.68397H31.7039Z" fill="#191817"/>
</svg>
