<svg width="18" height="7" viewBox="0 0 18 7" fill="none" xmlns="http://www.w3.org/2000/svg">
<path d="M3.1267 6.99992C3.81338 6.99797 4.47977 6.76619 5.02019 6.34133C5.56061 5.91648 5.94413 5.32286 6.10995 4.65461H11.652C11.8341 5.3874 12.2773 6.02805 12.898 6.45581C13.5186 6.88358 14.2738 7.06891 15.0213 6.97688C15.7688 6.88485 16.4569 6.52181 16.9559 5.95619C17.4549 5.39057 17.7304 4.66144 17.7304 3.90622C17.7304 3.15101 17.4549 2.42188 16.9559 1.85626C16.4569 1.29064 15.7688 0.927597 15.0213 0.835565C14.2738 0.743533 13.5186 0.928866 12.898 1.35663C12.2773 1.7844 11.8341 2.42504 11.652 3.15783H6.10995C5.96928 2.59644 5.67417 2.08599 5.25824 1.68464C4.84232 1.28329 4.32232 1.00719 3.75751 0.887829C3.19271 0.768465 2.60583 0.810632 2.06376 1.00952C1.5217 1.20841 1.04625 1.55603 0.691634 2.01274C0.337014 2.46945 0.11748 3.01688 0.058057 3.59264C-0.0013662 4.1684 0.101711 4.74932 0.355541 5.26919C0.609371 5.78905 1.00374 6.22694 1.4937 6.53295C1.98365 6.83895 2.54949 7.00075 3.1267 6.99992ZM14.6352 2.30931C14.9501 2.30931 15.258 2.40297 15.5199 2.57844C15.7817 2.75391 15.9859 3.00331 16.1064 3.29511C16.2269 3.58691 16.2584 3.90799 16.197 4.21776C16.1356 4.52754 15.9839 4.81208 15.7612 5.03541C15.5385 5.25874 15.2547 5.41083 14.9458 5.47245C14.6369 5.53407 14.3168 5.50245 14.0258 5.38158C13.7348 5.26071 13.4861 5.05603 13.3111 4.79342C13.1361 4.53081 13.0427 4.22206 13.0427 3.90622C13.0431 3.48281 13.211 3.07686 13.5096 2.77747C13.8081 2.47807 14.2129 2.3097 14.6352 2.30931ZM3.1267 2.30931C3.44165 2.30931 3.74953 2.40296 4.0114 2.57843C4.27328 2.7539 4.47739 3.0033 4.59792 3.2951C4.71845 3.5869 4.74998 3.90798 4.68854 4.21776C4.6271 4.52753 4.47544 4.81207 4.25273 5.03541C4.03003 5.25874 3.74628 5.41083 3.43738 5.47245C3.12848 5.53407 2.8083 5.50244 2.51732 5.38158C2.22634 5.26071 1.97763 5.05603 1.80266 4.79342C1.62768 4.53081 1.53428 4.22206 1.53428 3.90622C1.53472 3.48283 1.70263 3.07691 2.00117 2.77752C2.29971 2.47814 2.70449 2.30975 3.1267 2.30931Z" fill="#191817"/>
</svg>
