<svg width="24" height="23" viewBox="0 0 24 23" fill="none" xmlns="http://www.w3.org/2000/svg">
<path d="M2.89165 19.2599C2.9898 19.2599 3.06342 19.2845 3.13703 19.2599C4.56025 18.7201 5.88531 17.984 7.13676 17.1251C8.68266 16.0209 9.81142 14.4995 10.9647 13.0027C11.4064 12.4138 11.8236 11.8003 12.2162 11.1623C13.1732 9.61643 14.4246 8.36498 15.9214 7.30984C17.5164 6.15655 19.1114 4.95418 21.0499 4.34072C21.3198 4.26711 21.5652 4.16896 21.8351 4.14442C23.013 3.99719 23.8227 4.75787 23.7246 5.9357C23.6264 7.01538 23.381 8.04599 22.8903 9.02752C20.3874 13.9352 16.903 17.9103 12.0689 20.6341C10.1795 21.6892 8.16736 22.5235 5.98346 22.6953C5.32093 22.7689 4.63386 22.7198 3.97133 22.6462C1.24759 22.18 -0.249238 19.8979 0.364216 17.2723C0.830442 15.3338 1.61566 13.5671 2.81803 11.9721C3.65233 10.8433 4.48663 9.66551 5.41908 8.6349C8.04467 5.66578 11.0874 3.21196 14.7927 1.66606C16.2895 1.0526 17.8109 0.709069 19.4304 0.758145C20.1175 0.758145 20.7555 0.905375 21.3198 1.3716C21.9333 1.8869 22.0069 2.35313 21.5161 2.99112C21.099 3.5555 20.4855 3.82542 19.8475 4.0708C18.6206 4.56156 17.3446 5.05233 16.1668 5.64125C15.5043 5.96024 14.9399 6.47555 14.4001 6.96631C13.6885 7.57976 13.0505 8.26683 12.3634 8.9539C11.5536 9.76366 10.9156 10.647 10.4249 11.6776C9.00166 14.6713 6.71961 16.8552 3.89772 18.5483C3.60326 18.7446 3.3088 18.9409 3.03888 19.1127C2.9898 19.1127 2.96526 19.1863 2.89165 19.2599ZM10.8175 8.09507C10.7929 8.07053 10.7684 8.04599 10.7193 8.04599C10.5476 8.26683 10.3758 8.4386 10.2286 8.68398C9.59058 9.81274 8.95258 10.9415 8.36367 12.0703C7.70113 13.3217 6.81776 14.3523 5.71354 15.2602C5.19824 15.6774 4.68294 16.0945 4.16764 16.5607C3.97133 16.708 3.72595 16.8552 3.67687 17.2969C3.92225 17.1987 4.11856 17.1497 4.26579 17.0515C4.78109 16.6834 5.29639 16.2663 5.78716 15.8737C7.1613 14.7449 8.36367 13.4935 9.0262 11.7513C9.41881 10.7697 9.93411 9.81274 10.4003 8.85575C10.523 8.58583 10.6703 8.34045 10.8175 8.09507ZM16.633 15.1375C16.6576 15.1621 16.6821 15.1866 16.7067 15.2111C16.8784 15.0884 17.0747 14.9412 17.222 14.794C18.3998 13.3708 19.5531 11.9721 20.6573 10.4753C21.3444 9.5919 21.8351 8.56129 22.1296 7.48161C22.2277 7.18715 22.3504 6.86816 22.0805 6.59824C21.6879 6.84362 21.6879 6.84362 21.5652 7.16261C20.9518 8.90483 20.0684 10.4753 19.0378 11.9476C18.2771 13.0518 17.4428 14.0824 16.633 15.1375ZM3.03888 17.7877C2.35181 17.7877 1.9592 18.1312 1.88558 18.6956C2.54812 18.6219 2.69534 18.4747 3.03888 17.7877Z" fill="black"/>
</svg>
