<svg width="37" height="24" viewBox="0 0 37 24" fill="none" xmlns="http://www.w3.org/2000/svg">
<path d="M32.9641 3.65563H10.4831L10.4378 3.44036C10.229 2.4692 9.69571 1.59869 8.92618 0.973012C8.15665 0.347339 7.19708 0.00404795 6.2064 0H1.46893C1.25616 0 1.05211 0.0847598 0.901659 0.235634C0.751209 0.386508 0.666687 0.591137 0.666687 0.804505C0.666687 1.01787 0.751209 1.2225 0.901659 1.37338C1.05211 1.52425 1.25616 1.60901 1.46893 1.60901H6.2064C6.82958 1.61158 7.43318 1.82758 7.9172 2.22123C8.40121 2.61487 8.73659 3.16253 8.86776 3.77347L12.2311 19.7394C12.4607 20.8087 13.0478 21.7672 13.895 22.456C14.7422 23.1449 15.7987 23.5228 16.8894 23.527H29.687C29.8997 23.527 30.1038 23.4423 30.2542 23.2914C30.4047 23.1405 30.4892 22.9359 30.4892 22.7225C30.4892 22.5092 30.4047 22.3045 30.2542 22.1537C30.1038 22.0028 29.8997 21.918 29.687 21.918H16.8894C16.1662 21.9154 15.4656 21.6648 14.9038 21.208C14.3421 20.7511 13.953 20.1154 13.8011 19.4063L13.6937 18.8964H28.0817C28.7093 18.8984 29.327 18.7396 29.8762 18.4349C30.4253 18.1301 30.8877 17.6897 31.2194 17.1554L36.1018 9.34057C36.4529 8.77857 36.6474 8.13255 36.6653 7.46963C36.6832 6.8067 36.5238 6.15107 36.2035 5.57085C35.8833 4.99063 35.4139 4.50699 34.8443 4.17019C34.2746 3.83339 33.6254 3.65571 32.9641 3.65562V3.65563ZM34.7417 8.48579L29.8593 16.3006C29.6715 16.6035 29.4096 16.8531 29.0984 17.0258C28.7873 17.1985 28.4373 17.2886 28.0817 17.2874H13.3547L10.822 5.26464H32.9641C33.3388 5.26473 33.7066 5.36543 34.0293 5.55628C34.3521 5.74713 34.618 6.02117 34.7994 6.34992C34.9808 6.67868 35.0712 7.05015 35.061 7.42575C35.0509 7.80135 34.9406 8.16738 34.7417 8.48579H34.7417Z" fill="black"/>
</svg>
