<svg width="8" height="4" viewBox="0 0 8 4" fill="none" xmlns="http://www.w3.org/2000/svg">
<path d="M1.92214 3.59398C2.20771 3.59309 2.48485 3.4871 2.70959 3.29283C2.93434 3.09855 3.09384 2.82711 3.1628 2.52154H5.46758C5.54335 2.85662 5.72765 3.14957 5.98576 3.34518C6.24387 3.54078 6.55795 3.62553 6.86881 3.58344C7.17967 3.54136 7.46583 3.37535 7.67336 3.11671C7.88089 2.85807 7.99545 2.52466 7.99545 2.17932C7.99545 1.83398 7.88089 1.50057 7.67336 1.24193C7.46583 0.983287 7.17967 0.817279 6.86881 0.775195C6.55795 0.733112 6.24387 0.817859 5.98576 1.01346C5.72765 1.20907 5.54335 1.50202 5.46758 1.8371H3.1628C3.1043 1.5804 2.98157 1.34698 2.80859 1.16345C2.63562 0.979925 2.41937 0.853676 2.18448 0.799094C1.94959 0.744512 1.70552 0.763794 1.48009 0.854741C1.25466 0.945688 1.05693 1.10464 0.909457 1.31348C0.761979 1.52232 0.670681 1.77265 0.645968 2.03593C0.621255 2.29921 0.664123 2.56485 0.769684 2.80256C0.875246 3.04028 1.03925 3.24052 1.24301 3.38045C1.44678 3.52037 1.68209 3.59436 1.92214 3.59398ZM6.70822 1.4491C6.8392 1.4491 6.96724 1.49192 7.07615 1.57216C7.18505 1.6524 7.26994 1.76644 7.32006 1.89987C7.37019 2.03331 7.3833 2.18013 7.35775 2.32178C7.33219 2.46343 7.26912 2.59354 7.1765 2.69567C7.08389 2.79779 6.96588 2.86733 6.83742 2.89551C6.70896 2.92369 6.5758 2.90923 6.45479 2.85396C6.33378 2.79869 6.23035 2.70509 6.15758 2.58501C6.08481 2.46492 6.04597 2.32374 6.04597 2.17932C6.04613 1.98571 6.11596 1.80008 6.24012 1.66317C6.36428 1.52627 6.53263 1.44927 6.70822 1.4491ZM1.92214 1.4491C2.05312 1.4491 2.18116 1.49192 2.29007 1.57216C2.39897 1.6524 2.48386 1.76644 2.53398 1.89987C2.58411 2.0333 2.59722 2.18013 2.57167 2.32177C2.54612 2.46342 2.48304 2.59354 2.39043 2.69566C2.29781 2.79779 2.17981 2.86733 2.05134 2.89551C1.92288 2.92369 1.78972 2.90923 1.66871 2.85396C1.5477 2.79869 1.44427 2.7051 1.3715 2.58501C1.29873 2.46493 1.25989 2.32374 1.25989 2.17932C1.26007 1.98571 1.3299 1.8001 1.45406 1.6632C1.57822 1.5263 1.74655 1.4493 1.92214 1.4491Z" fill="#191817"/>
</svg>
