<svg width="83" height="61" viewBox="0 0 83 61" fill="none" xmlns="http://www.w3.org/2000/svg">
<path d="M38.9129 60.79C31.5459 60.79 25.5389 58.366 24.0819 54.987C22.8529 55.303 21.5749 55.462 20.2699 55.462C13.5189 55.462 8.02592 51.165 8.02592 45.882C8.02592 45.378 8.07692 44.876 8.17592 44.378C3.92392 43.831 0.597918 39.372 0.597918 33.969C0.597918 31.08 1.57492 28.321 3.25192 26.358C1.39692 24.632 0.315918 22.159 0.315918 19.532C0.315918 14.778 3.81792 10.857 8.28092 10.414C8.28492 10.389 8.28892 10.364 8.29392 10.338C9.04092 6.078 13.7269 3.103 19.6869 3.103C20.7379 3.103 21.8089 3.197 22.8699 3.383C23.5069 3.495 24.1399 3.64 24.7619 3.818C26.9489 1.447 30.8879 0 35.2679 0C38.3819 0 41.2899 0.728 43.5459 2.06C45.6859 0.727 48.3919 0 51.2469 0C56.0689 0 60.3009 2.064 62.1289 5.22C62.9849 4.983 63.8619 4.812 64.7459 4.708C65.4339 4.627 66.1309 4.586 66.8139 4.586C73.0589 4.586 77.9769 7.883 78.5089 12.425C78.7249 14.265 78.1849 16.128 76.9739 17.795C80.4479 19.357 82.8329 23.389 82.8329 28.012C82.8329 31.609 81.3829 34.928 78.9839 36.953C80.0259 38.394 80.5899 40.089 80.5899 41.826C80.5899 46.726 76.1969 50.713 70.7979 50.713C70.7619 50.713 70.7259 50.713 70.6889 50.713C69.9379 54.979 64.5849 58.297 58.1149 58.297C55.9619 58.297 53.8579 57.93 51.9849 57.229C49.3109 59.438 44.3959 60.79 38.9129 60.79ZM24.7919 52.672C24.9849 52.672 25.1779 52.729 25.3459 52.834C25.6089 53.002 25.7819 53.279 25.8159 53.59C26.0909 56.07 31.4199 58.729 38.9139 58.729C44.1669 58.729 48.9329 57.383 51.0539 55.299C51.3509 55.006 51.7959 54.924 52.1779 55.086C53.9469 55.838 55.9999 56.234 58.1169 56.234C63.8439 56.234 68.6839 53.255 68.7209 49.72C68.7179 49.683 68.7159 49.644 68.7159 49.618C68.7159 49.325 68.8399 49.046 69.0579 48.85C69.2759 48.654 69.5669 48.561 69.8569 48.592C70.2159 48.631 70.5169 48.649 70.8009 48.649C75.0649 48.649 78.5319 45.586 78.5319 41.823C78.5319 40.241 77.8999 38.698 76.7529 37.476C76.5439 37.253 76.4449 36.949 76.4819 36.646C76.5199 36.341 76.6899 36.072 76.9469 35.906C79.3079 34.38 80.7749 31.355 80.7749 28.01C80.7749 23.688 78.3399 20.022 74.9849 19.294C74.6179 19.214 74.3229 18.94 74.2149 18.579C74.1089 18.218 74.2069 17.828 74.4719 17.561C75.9529 16.07 76.6599 14.331 76.4639 12.664C76.0629 9.232 71.9139 6.645 66.8159 6.645C66.2119 6.645 65.5969 6.681 64.9879 6.752C63.9459 6.874 62.9149 7.104 61.9239 7.433C61.4159 7.603 60.8589 7.351 60.6499 6.854C59.4639 4.03 55.5989 2.058 51.2499 2.058C48.5529 2.058 46.0359 2.792 44.1609 4.124C43.8109 4.373 43.3449 4.378 42.9869 4.139C41.0259 2.816 38.2139 2.058 35.2699 2.058C31.2479 2.058 27.5819 3.457 25.9329 5.624C25.6669 5.973 25.2099 6.116 24.7919 5.979C24.0529 5.737 23.2859 5.546 22.5149 5.411C21.5729 5.245 20.6209 5.161 19.6899 5.161C14.7479 5.161 10.8979 7.436 10.3259 10.693C10.2849 10.925 10.2629 11.165 10.2579 11.426C10.2459 11.991 9.80892 12.447 9.21792 12.435C9.19292 12.435 9.11792 12.431 9.09392 12.429C5.40792 12.429 2.37992 15.615 2.37992 19.53C2.37992 21.899 3.49792 24.103 5.37092 25.426C5.62692 25.607 5.78592 25.895 5.80492 26.207C5.82292 26.52 5.69792 26.824 5.46492 27.033C3.70892 28.611 2.66092 31.204 2.66092 33.967C2.66092 38.603 5.53092 42.372 9.05992 42.372C9.16192 42.372 9.25992 42.362 9.35992 42.354L9.46692 42.344C9.82692 42.321 10.1689 42.473 10.3799 42.758C10.5919 43.045 10.6399 43.422 10.5069 43.754C10.2299 44.447 10.0889 45.162 10.0889 45.879C10.0889 50.025 14.6569 53.4 20.2729 53.4C21.7249 53.4 23.1359 53.171 24.4649 52.724C24.5689 52.692 24.6809 52.672 24.7919 52.672Z" fill="black"/>
</svg>
