<svg width="26" height="27" viewBox="0 0 26 27" fill="none" xmlns="http://www.w3.org/2000/svg">
<path d="M25.4009 10.2099C25.3929 10.9803 25.3809 11.7508 25.3569 12.5173C25.3569 12.5372 25.3569 12.5572 25.3569 12.5771C25.333 13.3556 25.297 14.126 25.2451 14.8805C24.9694 19.1001 24.2742 22.7568 22.664 24.0342C19.5874 27.1081 7.43299 27.2757 4.18862 24.0342C0.0372571 21.0801 1.01217 -0.00170258 1.01217 0.0342256C1.17199 2.46137 6.47806 3.76676 13.0267 3.77874C13.0627 3.77874 13.0987 3.77874 13.1346 3.77874H13.1706C14.0296 3.78273 14.8887 3.75878 15.7277 3.70688C15.7357 3.70688 15.7437 3.70688 15.7557 3.70688C21.1017 3.40349 25.1252 2.13802 25.2611 0.0342256C25.2611 0.0342256 25.2651 0.146002 25.269 0.265762V0.269755C25.273 0.952389 25.289 1.72684 25.309 2.57315C25.309 2.59311 25.309 2.61307 25.309 2.63303C25.325 3.35558 25.345 4.13003 25.3609 4.94041C25.3809 5.90249 25.3969 6.91247 25.4049 7.94241C25.4049 8.68892 25.4049 9.45139 25.4009 10.2099Z" fill="#853E3E"/>
</svg>
