<svg width="37" height="24" viewBox="0 0 37 24" fill="none" xmlns="http://www.w3.org/2000/svg">
<path d="M32.9642 3.65563H10.4832L10.4378 3.44036C10.2291 2.4692 9.69577 1.59869 8.92624 0.973012C8.15671 0.347339 7.19714 0.00404795 6.20647 0H1.46899C1.25622 0 1.05217 0.0847598 0.90172 0.235634C0.75127 0.386508 0.666748 0.591137 0.666748 0.804505C0.666748 1.01787 0.75127 1.2225 0.90172 1.37338C1.05217 1.52425 1.25622 1.60901 1.46899 1.60901H6.20647C6.82964 1.61158 7.43324 1.82758 7.91726 2.22123C8.40127 2.61487 8.73665 3.16253 8.86782 3.77347L12.2311 19.7394C12.4608 20.8087 13.0479 21.7672 13.8951 22.456C14.7423 23.1449 15.7988 23.5228 16.8895 23.527H29.687C29.8998 23.527 30.1038 23.4423 30.2543 23.2914C30.4047 23.1405 30.4893 22.9359 30.4893 22.7225C30.4893 22.5092 30.4047 22.3045 30.2543 22.1537C30.1038 22.0028 29.8998 21.918 29.687 21.918H16.8895C16.1662 21.9154 15.4656 21.6648 14.9039 21.208C14.3422 20.7511 13.9531 20.1154 13.8012 19.4063L13.6937 18.8964H28.0817C28.7094 18.8984 29.3271 18.7396 29.8762 18.4349C30.4254 18.1301 30.8877 17.6897 31.2194 17.1554L36.1018 9.34057C36.4529 8.77857 36.6475 8.13255 36.6654 7.46963C36.6833 6.8067 36.5238 6.15107 36.2036 5.57085C35.8833 4.99063 35.414 4.50699 34.8443 4.17019C34.2747 3.83339 33.6255 3.65571 32.9642 3.65562V3.65563ZM34.7418 8.48579L29.8594 16.3006C29.6716 16.6035 29.4096 16.8531 29.0985 17.0258C28.7874 17.1985 28.4374 17.2886 28.0817 17.2874H13.3548L10.8221 5.26464H32.9641C33.3388 5.26473 33.7066 5.36543 34.0294 5.55628C34.3521 5.74713 34.618 6.02117 34.7995 6.34992C34.9809 6.67868 35.0712 7.05015 35.0611 7.42575C35.0509 7.80135 34.9407 8.16738 34.7418 8.48579H34.7418Z" fill="black"/>
</svg>
