<svg width="8" height="4" viewBox="0 0 8 4" fill="none" xmlns="http://www.w3.org/2000/svg">
<path d="M1.92226 3.59447C2.20784 3.59358 2.48497 3.48759 2.70972 3.29331C2.93446 3.09904 3.09396 2.8276 3.16292 2.52203H5.46771C5.54347 2.85711 5.72777 3.15006 5.98588 3.34566C6.24399 3.54127 6.55807 3.62601 6.86893 3.58393C7.17979 3.54185 7.46595 3.37584 7.67348 3.1172C7.88101 2.85856 7.99557 2.52515 7.99557 2.17981C7.99557 1.83447 7.88101 1.50106 7.67348 1.24242C7.46595 0.983775 7.17979 0.817767 6.86893 0.775684C6.55807 0.7336 6.24399 0.818348 5.98588 1.01395C5.72777 1.20956 5.54347 1.50251 5.46771 1.83759H3.16292C3.10442 1.58088 2.98169 1.34747 2.80872 1.16394C2.63574 0.980414 2.41949 0.854164 2.1846 0.799583C1.94971 0.745001 1.70564 0.764282 1.48021 0.855229C1.25478 0.946176 1.05706 1.10513 0.909579 1.31397C0.762101 1.52281 0.670803 1.77314 0.64609 2.03642C0.621377 2.2997 0.664245 2.56533 0.769806 2.80305C0.875368 3.04077 1.03938 3.24101 1.24314 3.38093C1.4469 3.52086 1.68221 3.59485 1.92226 3.59447ZM6.70834 1.44958C6.83932 1.44958 6.96736 1.49241 7.07627 1.57265C7.18518 1.65289 7.27006 1.76693 7.32018 1.90036C7.37031 2.03379 7.38342 2.18062 7.35787 2.32227C7.33232 2.46392 7.26924 2.59403 7.17663 2.69615C7.08401 2.79828 6.96601 2.86782 6.83754 2.896C6.70908 2.92417 6.57592 2.90972 6.45491 2.85445C6.3339 2.79918 6.23047 2.70558 6.1577 2.5855C6.08493 2.46541 6.04609 2.32423 6.04609 2.17981C6.04625 1.9862 6.11608 1.80056 6.24024 1.66366C6.3644 1.52675 6.53275 1.44976 6.70834 1.44958ZM1.92226 1.44958C2.05324 1.44958 2.18128 1.49241 2.29019 1.57265C2.3991 1.65288 2.48398 1.76693 2.5341 1.90036C2.58423 2.03379 2.59734 2.18061 2.57179 2.32226C2.54624 2.46391 2.48317 2.59403 2.39055 2.69615C2.29793 2.79828 2.17993 2.86782 2.05147 2.896C1.923 2.92418 1.78985 2.90971 1.66883 2.85445C1.54782 2.79918 1.44439 2.70558 1.37162 2.5855C1.29886 2.46541 1.26002 2.32423 1.26002 2.17981C1.2602 1.9862 1.33003 1.80059 1.45418 1.66369C1.57834 1.52679 1.74668 1.44979 1.92226 1.44958Z" fill="#191817"/>
</svg>
