<svg width="32" height="32" viewBox="0 0 32 32" fill="none" xmlns="http://www.w3.org/2000/svg">
<path d="M29.637 9.16567C28.75 8.03992 27.6153 7.3493 26.3886 7.18163C26.3726 6.38722 26.3607 5.78443 26.3567 5.26547V5.25748C26.3567 5.12974 26.3487 5.00599 26.3487 5.002V4.99401C26.3007 4.22355 25.8812 3.501 25.1061 2.84631C24.4268 2.27146 23.4879 1.76447 22.3132 1.33333C19.9718 0.471058 16.8872 0 13.6309 0C10.3745 0 7.28998 0.471058 4.9486 1.33333C3.77391 1.76048 2.83496 2.27146 2.15572 2.84631C1.38059 3.501 0.961055 4.22355 0.913108 4.99401V5.01397V5.02196C0.901122 5.16168 0.893131 5.41317 0.877148 5.92415C0.861166 6.45509 0.837193 7.30938 0.821211 8.36327C0.797238 10.2116 0.797238 13.0299 0.941077 15.9561C1.1009 19.2535 1.40855 22.012 1.85206 24.1557C2.42742 26.9501 3.23052 28.6946 4.29732 29.485C5.15237 30.3233 6.52284 30.9701 8.37277 31.4092C9.97897 31.7924 11.8649 31.996 13.8347 31.996C13.8866 31.996 13.9425 31.996 13.9945 31.996C16.0042 31.984 17.9341 31.7645 19.5802 31.3613C21.4062 30.9142 22.7447 30.2794 23.5678 29.473C24.4228 28.7824 25.0701 27.5449 25.5416 25.7006C25.8932 24.3194 26.1449 22.6307 26.3047 20.5469C27.5353 20.3832 28.714 19.6806 29.609 18.5669C30.6319 17.2894 31.1952 15.6208 31.1952 13.8603C31.1913 12.1038 30.6399 10.4351 29.637 9.16567ZM26.4965 12.9381C26.4925 12.2754 26.4805 11.5848 26.4685 10.8224C27.7951 11.2814 28.3864 12.2794 28.2266 13.8044C28.1307 14.7465 27.827 15.5968 27.3795 16.1956C27.1757 16.4671 26.8721 16.7784 26.4685 16.9461C26.4805 16.3952 26.4925 15.8243 26.4965 15.2136C26.5045 14.499 26.5045 13.7525 26.4965 12.9381ZM5.36014 2.45509C7.57766 1.64471 10.5144 1.1976 13.6309 1.1976C16.7514 1.1976 19.6881 1.64471 21.9016 2.45509C23.8515 3.16966 25.0581 4.12774 25.154 5.02994C25.154 5.04191 25.15 5.0499 25.15 5.06188C25.15 5.07784 25.146 5.08982 25.142 5.10579C25.138 5.12176 25.138 5.13772 25.134 5.1497C25.13 5.16567 25.126 5.17764 25.122 5.19361C25.118 5.20958 25.114 5.22156 25.1101 5.23752C25.1061 5.25349 25.1021 5.26547 25.0981 5.28144C25.0941 5.2974 25.0861 5.30938 25.0821 5.32535C25.0781 5.34132 25.0701 5.35329 25.0661 5.36926C25.0581 5.38523 25.0541 5.3972 25.0461 5.40918C25.0381 5.42515 25.0341 5.43712 25.0261 5.45309C25.0182 5.46507 25.0102 5.48104 25.0022 5.49301C24.9942 5.50499 24.9862 5.52096 24.9782 5.53293C24.9702 5.54491 24.9622 5.56088 24.9542 5.57285C24.9462 5.58483 24.9382 5.6008 24.9263 5.61277C24.9183 5.62475 24.9063 5.63673 24.8983 5.6487C24.8863 5.66068 24.8783 5.67665 24.8663 5.68862C24.8583 5.7006 24.8463 5.71257 24.8384 5.72455C24.8264 5.73653 24.8144 5.75249 24.8064 5.76447C24.7944 5.77645 24.7864 5.78842 24.7744 5.8004C24.7624 5.81237 24.7505 5.82834 24.7385 5.84032C24.7265 5.85229 24.7145 5.86427 24.7065 5.87625C24.6945 5.88822 24.6825 5.9002 24.6665 5.91617C24.6546 5.92814 24.6426 5.94012 24.6306 5.9481C24.6186 5.96008 24.6026 5.97205 24.5906 5.98403C24.5786 5.99601 24.5667 6.00399 24.5547 6.01597C24.5387 6.02794 24.5267 6.03992 24.5107 6.0519C24.4987 6.06387 24.4867 6.07185 24.4748 6.08383C24.4588 6.09581 24.4428 6.10778 24.4268 6.11976C24.4148 6.12774 24.4028 6.13972 24.3869 6.1477C24.3709 6.15968 24.3549 6.17166 24.3389 6.18363C24.3269 6.19162 24.3109 6.20359 24.299 6.21158C24.283 6.22355 24.267 6.23553 24.251 6.2475C24.239 6.25549 24.223 6.26347 24.2111 6.27545C24.1951 6.28742 24.1751 6.2994 24.1591 6.31138C24.1471 6.31936 24.1311 6.32734 24.1192 6.33533C24.1032 6.3473 24.0832 6.35928 24.0672 6.36726C24.0552 6.37525 24.0392 6.38323 24.0273 6.39122C24.0113 6.40319 23.9913 6.41118 23.9713 6.42315C23.9593 6.43114 23.9434 6.43912 23.9314 6.4471C23.9114 6.45908 23.8954 6.46706 23.8754 6.47904C23.8634 6.48702 23.8475 6.49501 23.8355 6.50299C23.8155 6.51497 23.7995 6.52295 23.7795 6.53493C23.7676 6.54291 23.7516 6.5509 23.7356 6.55888C23.7156 6.56686 23.6996 6.57884 23.6797 6.58682C23.6637 6.59481 23.6517 6.60279 23.6357 6.60678C23.6157 6.61477 23.5997 6.62674 23.5798 6.63473C23.5638 6.64271 23.5518 6.64671 23.5358 6.65469C23.5158 6.66267 23.4999 6.67066 23.4799 6.68263C23.4639 6.69062 23.4519 6.69461 23.4359 6.70259C23.4159 6.71058 23.4 6.71856 23.38 6.72655C23.368 6.73453 23.352 6.73852 23.34 6.74651C23.3201 6.75449 23.3041 6.76247 23.2841 6.77046C23.2681 6.77844 23.2561 6.78243 23.2401 6.79042C23.2242 6.7984 23.2042 6.80639 23.1882 6.81437C23.1722 6.82235 23.1602 6.82635 23.1443 6.83034C23.1283 6.83832 23.1083 6.84631 23.0923 6.8503C23.0763 6.85429 23.0643 6.86227 23.0484 6.86627C23.0324 6.87425 23.0164 6.87824 23.0004 6.88623C22.9844 6.89421 22.9684 6.8982 22.9525 6.90619C22.9365 6.91018 22.9245 6.91816 22.9085 6.92215C22.8925 6.93014 22.8766 6.93413 22.8606 6.94211C22.8486 6.94611 22.8366 6.9501 22.8246 6.95808C22.7966 6.97006 22.7687 6.97804 22.7407 6.99002C21.2903 7.52096 19.2966 7.88822 16.9472 8.06786C16.7035 8.08782 16.4557 8.10379 16.208 8.11577H16.18C15.357 8.16367 14.5099 8.18762 13.6589 8.18762H13.6229C13.5869 8.18762 13.555 8.18762 13.523 8.18762H13.519C10.2746 8.17964 7.34592 7.84431 5.28422 7.24152C5.16036 7.20559 5.04049 7.16966 4.92462 7.12974C4.92063 7.12974 4.91264 7.12575 4.90864 7.12575C4.8567 7.10978 4.80476 7.08982 4.75281 7.07385C4.73683 7.06986 4.72485 7.06187 4.70886 7.05788C4.66891 7.04191 4.62496 7.02994 4.585 7.01397C4.56502 7.00599 4.54904 7.00199 4.53306 6.99401C4.4971 6.98203 4.46114 6.96607 4.42518 6.95409C4.4052 6.94611 4.38523 6.93812 4.36525 6.93014C4.33328 6.91816 4.30132 6.90619 4.26936 6.89421C4.24938 6.88623 4.2294 6.87824 4.20543 6.87026C4.17746 6.85828 4.14549 6.84631 4.11753 6.83433C4.09355 6.82635 4.07357 6.81437 4.0536 6.80639C4.02563 6.79441 3.99766 6.78243 3.97369 6.77046C3.94971 6.76247 3.92974 6.7505 3.90576 6.74251C3.88179 6.73054 3.85382 6.71856 3.82985 6.71058C3.80587 6.6986 3.7859 6.69062 3.76592 6.67864C3.74195 6.66667 3.71797 6.65469 3.694 6.64671C3.67402 6.63473 3.65005 6.62674 3.63007 6.61477C3.6061 6.60279 3.58612 6.59082 3.56215 6.58283C3.54217 6.57086 3.52219 6.56287 3.49822 6.5509C3.47824 6.53892 3.45427 6.52694 3.43429 6.51896C3.41431 6.50698 3.39433 6.49501 3.37436 6.48303C3.35438 6.47106 3.3344 6.45908 3.31442 6.4511C3.29445 6.43912 3.27447 6.42714 3.25449 6.41517C3.23451 6.40319 3.21853 6.39122 3.19855 6.38323C3.17858 6.37126 3.16259 6.35928 3.14262 6.3473C3.12663 6.33533 3.10666 6.32335 3.09067 6.31537C3.0707 6.30339 3.05471 6.29142 3.03873 6.27944C3.02275 6.26746 3.00677 6.25549 2.99079 6.2475C2.9748 6.23553 2.95483 6.22355 2.93884 6.21158C2.92286 6.1996 2.90688 6.18762 2.8909 6.17565C2.87491 6.16367 2.85893 6.1517 2.84295 6.13972C2.82697 6.12774 2.81099 6.11577 2.799 6.10379C2.78302 6.09181 2.76704 6.07984 2.75505 6.06786C2.74306 6.05589 2.72708 6.04391 2.71509 6.03194C2.69911 6.01996 2.68712 6.00798 2.67114 5.99201C2.65916 5.98004 2.64317 5.96806 2.63119 5.95609C2.6192 5.94411 2.60322 5.93213 2.59123 5.91617C2.57925 5.90419 2.56726 5.89221 2.55527 5.88024C2.54329 5.86826 2.5313 5.85629 2.51931 5.84032C2.50733 5.82834 2.49534 5.81637 2.48735 5.80439C2.47536 5.79241 2.46337 5.77645 2.45538 5.76447C2.4434 5.75249 2.43541 5.74052 2.42342 5.72854C2.41143 5.71657 2.40344 5.7006 2.39146 5.68862C2.38346 5.67665 2.37148 5.66467 2.36349 5.65269C2.3555 5.64072 2.34351 5.62475 2.33552 5.61277C2.32753 5.6008 2.31954 5.58882 2.31154 5.57685C2.30355 5.56487 2.29556 5.5489 2.28757 5.53692C2.27958 5.52495 2.27159 5.51297 2.2636 5.501C2.25561 5.48902 2.24762 5.47305 2.24362 5.46108C2.23563 5.4491 2.23163 5.43712 2.22364 5.42515C2.21565 5.41317 2.21166 5.3972 2.20367 5.38523C2.19967 5.37325 2.19168 5.36128 2.18768 5.34531C2.18369 5.33333 2.1757 5.31736 2.1717 5.30539C2.16771 5.29341 2.16371 5.28144 2.15971 5.26547C2.15572 5.25349 2.15172 5.23752 2.14773 5.22555C2.14373 5.21357 2.13974 5.1976 2.13574 5.18563C2.13175 5.17365 2.13175 5.15768 2.12775 5.14571C2.12375 5.13373 2.12375 5.11776 2.11976 5.10579C2.11576 5.09381 2.11576 5.07784 2.11576 5.06587C2.11576 5.05389 2.11177 5.04591 2.11177 5.03393C2.20367 4.13174 3.41032 3.16966 5.36014 2.45509ZM22.7886 28.5629L22.7607 28.5828L22.7367 28.6068C22.0854 29.2575 20.8948 29.8084 19.2886 30.2036C17.7303 30.5828 15.8964 30.7904 13.9825 30.8024C9.94701 30.8223 6.4629 29.9641 5.10842 28.6068L5.07246 28.5709L5.0325 28.5429C4.47313 28.1437 3.67402 27.0299 3.03474 23.9681C2.60322 21.9042 2.30355 19.2335 2.14373 16.0239C1.96393 12.475 1.9959 9.06187 2.04384 7.01397C2.08779 7.04591 2.12775 7.08183 2.1757 7.11377C2.71509 7.51696 3.43429 7.87225 4.3173 8.17565C4.38523 8.1996 4.45315 8.22355 4.52507 8.24351C4.66491 8.28742 4.80875 8.33134 4.95659 8.37525C5.02451 8.39521 5.09643 8.41517 5.16435 8.43513C6.5508 8.81836 8.22493 9.08982 10.1108 9.23752C10.1748 9.24152 10.2347 9.24551 10.2986 9.25349C10.3985 9.26148 10.5024 9.26946 10.6023 9.27345C11.5292 9.33333 12.5081 9.36527 13.523 9.36926C13.559 9.36926 13.5989 9.36926 13.6349 9.36926H13.6668C13.7188 9.36926 13.7707 9.36926 13.8227 9.36926C13.8546 9.36926 13.8866 9.36926 13.9146 9.36926C13.9625 9.36926 14.0105 9.36926 14.0544 9.36926C14.1143 9.36926 14.1743 9.36926 14.2342 9.36926C14.2822 9.36926 14.3261 9.36926 14.3741 9.36926C14.434 9.36926 14.4939 9.36926 14.5539 9.36527C14.5978 9.36527 14.6458 9.36527 14.6897 9.36128C14.7496 9.36128 14.8096 9.35728 14.8695 9.35728C14.9135 9.35728 14.9614 9.35329 15.0054 9.35329C15.0653 9.35329 15.1252 9.3493 15.1852 9.3493C15.2291 9.3493 15.2731 9.34531 15.321 9.34531C15.3809 9.34132 15.4449 9.34132 15.5048 9.33732C15.5487 9.33732 15.5887 9.33333 15.6327 9.33333C15.7006 9.32934 15.7645 9.32535 15.8284 9.32535C15.8684 9.32535 15.9043 9.32135 15.9443 9.32135C16.0402 9.31736 16.1361 9.30938 16.232 9.30539C16.24 9.30539 16.244 9.30539 16.252 9.30539C16.2639 9.30539 16.2759 9.30539 16.2879 9.3014C16.4437 9.29341 16.6036 9.28144 16.7554 9.27345C16.9791 9.25748 17.1989 9.24152 17.4187 9.22155C19.7161 9.02595 21.6859 8.64271 23.1562 8.10778C23.2122 8.08782 23.2681 8.06786 23.3201 8.0479C23.336 8.03992 23.356 8.03593 23.372 8.02794C23.408 8.01597 23.4439 8 23.4799 7.98403C23.4999 7.97605 23.5198 7.96806 23.5398 7.96008C23.5718 7.9481 23.6037 7.93213 23.6357 7.92016C23.6557 7.91217 23.6797 7.90419 23.6996 7.89221C23.7316 7.88024 23.7596 7.86826 23.7875 7.85229C23.8075 7.84431 23.8275 7.83233 23.8515 7.82435C23.8794 7.81237 23.9074 7.79641 23.9394 7.78443C23.9593 7.77645 23.9793 7.76447 23.9993 7.75649C24.0273 7.74451 24.0552 7.72854 24.0832 7.71657C24.1032 7.70858 24.1232 7.69661 24.1391 7.68862C24.1671 7.67265 24.1951 7.66068 24.223 7.64471C24.239 7.63672 24.259 7.62874 24.275 7.61677C24.3069 7.6008 24.3389 7.58483 24.3709 7.56487C24.3829 7.55688 24.3988 7.55289 24.4108 7.54491C24.4548 7.52096 24.4987 7.497 24.5387 7.47305C24.5467 7.46906 24.5547 7.46507 24.5627 7.45708C24.5946 7.43712 24.6306 7.41716 24.6626 7.3972C24.6785 7.38922 24.6905 7.37724 24.7065 7.36926C24.7305 7.35329 24.7584 7.33732 24.7824 7.32136C24.7984 7.30938 24.8144 7.3014 24.8304 7.28942C24.8543 7.27345 24.8783 7.25748 24.8983 7.24551C24.9143 7.23353 24.9303 7.22555 24.9462 7.21357C24.9662 7.1976 24.9902 7.18164 25.0102 7.16966C25.0261 7.15768 25.0421 7.14571 25.0581 7.13772C25.0781 7.12176 25.0981 7.10579 25.118 7.08982C25.134 7.07784 25.146 7.06587 25.162 7.05788C25.17 7.05389 25.174 7.04591 25.182 7.04191C25.186 7.21357 25.19 7.39321 25.194 7.58084V7.64471C25.194 7.66068 25.194 7.68064 25.194 7.69661C25.194 7.7006 25.194 7.70459 25.194 7.70858C25.182 7.84032 25.186 8.27944 25.2059 9.00998C25.2139 9.27744 25.2219 9.5489 25.2299 9.74451C25.2339 9.8483 25.2379 9.93213 25.2419 9.98802C25.2419 10.0239 25.2459 10.0519 25.2459 10.0719C25.2459 10.0758 25.2459 10.0838 25.2459 10.0878C25.2659 11.1617 25.2819 12.0719 25.2899 12.9421C25.2978 13.7485 25.2978 14.487 25.2899 15.1976C25.2819 16.016 25.2699 16.7665 25.2459 17.489V17.501C25.2459 17.517 25.2459 17.5289 25.2459 17.5449V17.5489C25.2459 17.5808 25.2419 17.6088 25.2419 17.6407C25.2379 17.7206 25.2059 18.2515 25.178 18.7864C25.162 19.1218 25.146 19.3932 25.138 19.5888C25.134 19.7006 25.13 19.7964 25.126 19.8603C25.126 19.8962 25.122 19.9321 25.126 19.9721C24.9782 22.1796 24.7185 24.004 24.3629 25.4012C23.9673 26.99 23.4359 28.0519 22.7886 28.5629ZM28.6661 17.8243C28.0268 18.6188 27.2157 19.1457 26.3766 19.3253C26.3966 18.9621 26.4166 18.5908 26.4286 18.2076C27.1558 18.0519 27.823 17.6048 28.3384 16.9142C28.9138 16.1437 29.2974 15.0818 29.4172 13.9281C29.649 11.6846 28.5702 10.1198 26.4406 9.56487C26.4326 9.16567 26.4246 8.77844 26.4126 8.40319C27.2557 8.57485 28.0508 9.09381 28.6901 9.90818C29.5251 10.9661 29.9846 12.3752 29.9846 13.8683C29.9926 15.3533 29.5211 16.7585 28.6661 17.8243Z" fill="black"/>
</svg>
