<svg width="23" height="9" viewBox="0 0 23 9" fill="none" xmlns="http://www.w3.org/2000/svg">
<path d="M4.56809 8.11058C5.38828 8.10825 6.18423 7.83141 6.82972 7.32396C7.47521 6.8165 7.93329 6.10748 8.13134 5.30931H14.7508C14.9684 6.18456 15.4978 6.94976 16.2391 7.46069C16.9804 7.97162 17.8824 8.19299 18.7752 8.08306C19.668 7.97314 20.4899 7.53952 21.0859 6.86393C21.682 6.18834 22.011 5.31745 22.011 4.41541C22.011 3.51337 21.682 2.64248 21.0859 1.9669C20.4899 1.29131 19.668 0.857688 18.7752 0.747764C17.8824 0.637839 16.9804 0.859205 16.2391 1.37014C15.4978 1.88107 14.9684 2.64627 14.7508 3.52152H8.13134C7.96333 2.85099 7.61084 2.24129 7.11405 1.76191C6.61726 1.28253 5.99616 0.95276 5.32155 0.810189C4.64694 0.667619 3.94596 0.717983 3.2985 0.955541C2.65105 1.1931 2.08317 1.6083 1.65961 2.1538C1.23604 2.6993 0.973829 3.35317 0.902853 4.04087C0.831877 4.72857 0.954994 5.42243 1.25817 6.04336C1.56135 6.6643 2.0324 7.18732 2.61761 7.55282C3.20282 7.91832 3.87866 8.11158 4.56809 8.11058ZM18.314 2.50803C18.6902 2.50803 19.0579 2.6199 19.3707 2.82948C19.6835 3.03907 19.9273 3.33696 20.0713 3.68549C20.2152 4.03402 20.2529 4.41753 20.1795 4.78753C20.1061 5.15752 19.925 5.49739 19.659 5.76414C19.393 6.03089 19.054 6.21255 18.6851 6.28614C18.3161 6.35974 17.9337 6.32197 17.5861 6.17761C17.2386 6.03324 16.9415 5.78877 16.7325 5.4751C16.5235 5.16143 16.412 4.79266 16.412 4.41541C16.4125 3.90969 16.613 3.42481 16.9696 3.06721C17.3262 2.7096 17.8097 2.5085 18.314 2.50803ZM4.56809 2.50803C4.94428 2.50803 5.31202 2.61989 5.6248 2.82948C5.93759 3.03906 6.18138 3.33695 6.32535 3.68548C6.46931 4.03401 6.50698 4.41752 6.43359 4.78752C6.3602 5.15751 6.17905 5.49738 5.91305 5.76413C5.64705 6.03089 5.30814 6.21255 4.93918 6.28614C4.57023 6.35974 4.18779 6.32197 3.84024 6.17761C3.49269 6.03324 3.19563 5.78877 2.98663 5.4751C2.77764 5.16143 2.66608 4.79266 2.66608 4.41541C2.66661 3.90971 2.86716 3.42486 3.22374 3.06727C3.58033 2.70968 4.06381 2.50856 4.56809 2.50803Z" fill="black"/>
</svg>
