<svg width="84" height="61" viewBox="0 0 84 61" fill="none" xmlns="http://www.w3.org/2000/svg">
<path d="M39.4129 60.79C32.0459 60.79 26.0389 58.366 24.5819 54.987C23.3529 55.303 22.0749 55.462 20.7699 55.462C14.0189 55.462 8.52592 51.165 8.52592 45.882C8.52592 45.378 8.57692 44.876 8.67592 44.378C4.42392 43.831 1.09792 39.372 1.09792 33.969C1.09792 31.08 2.07492 28.321 3.75192 26.358C1.89692 24.632 0.815918 22.159 0.815918 19.532C0.815918 14.778 4.31792 10.857 8.78092 10.414C8.78492 10.389 8.78892 10.364 8.79392 10.338C9.54092 6.078 14.2269 3.103 20.1869 3.103C21.2379 3.103 22.3089 3.197 23.3699 3.383C24.0069 3.495 24.6399 3.64 25.2619 3.818C27.4489 1.447 31.3879 0 35.7679 0C38.8819 0 41.7899 0.728 44.0459 2.06C46.1859 0.727 48.8919 0 51.7469 0C56.5689 0 60.8009 2.064 62.6289 5.22C63.4849 4.983 64.3619 4.812 65.2459 4.708C65.9339 4.627 66.6309 4.586 67.3139 4.586C73.5589 4.586 78.4769 7.883 79.0089 12.425C79.2249 14.265 78.6849 16.128 77.4739 17.795C80.9479 19.357 83.3329 23.389 83.3329 28.012C83.3329 31.609 81.8829 34.928 79.4839 36.953C80.5259 38.394 81.0899 40.089 81.0899 41.826C81.0899 46.726 76.6969 50.713 71.2979 50.713C71.2619 50.713 71.2259 50.713 71.1889 50.713C70.4379 54.979 65.0849 58.297 58.6149 58.297C56.4619 58.297 54.3579 57.93 52.4849 57.229C49.8109 59.438 44.8959 60.79 39.4129 60.79ZM25.2919 52.672C25.4849 52.672 25.6779 52.729 25.8459 52.834C26.1089 53.002 26.2819 53.279 26.3159 53.59C26.5909 56.07 31.9199 58.729 39.4139 58.729C44.6669 58.729 49.4329 57.383 51.5539 55.299C51.8509 55.006 52.2959 54.924 52.6779 55.086C54.4469 55.838 56.4999 56.234 58.6169 56.234C64.3439 56.234 69.1839 53.255 69.2209 49.72C69.2179 49.683 69.2159 49.644 69.2159 49.618C69.2159 49.325 69.3399 49.046 69.5579 48.85C69.7759 48.654 70.0669 48.561 70.3569 48.592C70.7159 48.631 71.0169 48.649 71.3009 48.649C75.5649 48.649 79.0319 45.586 79.0319 41.823C79.0319 40.241 78.3999 38.698 77.2529 37.476C77.0439 37.253 76.9449 36.949 76.9819 36.646C77.0199 36.341 77.1899 36.072 77.4469 35.906C79.8079 34.38 81.2749 31.355 81.2749 28.01C81.2749 23.688 78.8399 20.022 75.4849 19.294C75.1179 19.214 74.8229 18.94 74.7149 18.579C74.6089 18.218 74.7069 17.828 74.9719 17.561C76.4529 16.07 77.1599 14.331 76.9639 12.664C76.5629 9.232 72.4139 6.645 67.3159 6.645C66.7119 6.645 66.0969 6.681 65.4879 6.752C64.4459 6.874 63.4149 7.104 62.4239 7.433C61.9159 7.603 61.3589 7.351 61.1499 6.854C59.9639 4.03 56.0989 2.058 51.7499 2.058C49.0529 2.058 46.5359 2.792 44.6609 4.124C44.3109 4.373 43.8449 4.378 43.4869 4.139C41.5259 2.816 38.7139 2.058 35.7699 2.058C31.7479 2.058 28.0819 3.457 26.4329 5.624C26.1669 5.973 25.7099 6.116 25.2919 5.979C24.5529 5.737 23.7859 5.546 23.0149 5.411C22.0729 5.245 21.1209 5.161 20.1899 5.161C15.2479 5.161 11.3979 7.436 10.8259 10.693C10.7849 10.925 10.7629 11.165 10.7579 11.426C10.7459 11.991 10.3089 12.447 9.71792 12.435C9.69292 12.435 9.61792 12.431 9.59392 12.429C5.90792 12.429 2.87992 15.615 2.87992 19.53C2.87992 21.899 3.99792 24.103 5.87092 25.426C6.12692 25.607 6.28592 25.895 6.30492 26.207C6.32292 26.52 6.19792 26.824 5.96492 27.033C4.20892 28.611 3.16092 31.204 3.16092 33.967C3.16092 38.603 6.03092 42.372 9.55992 42.372C9.66192 42.372 9.75992 42.362 9.85992 42.354L9.96692 42.344C10.3269 42.321 10.6689 42.473 10.8799 42.758C11.0919 43.045 11.1399 43.422 11.0069 43.754C10.7299 44.447 10.5889 45.162 10.5889 45.879C10.5889 50.025 15.1569 53.4 20.7729 53.4C22.2249 53.4 23.6359 53.171 24.9649 52.724C25.0689 52.692 25.1809 52.672 25.2919 52.672Z" fill="black"/>
</svg>
