<svg width="34" height="29" viewBox="0 0 34 29" fill="none" xmlns="http://www.w3.org/2000/svg">
<path d="M11.7096 18.4794C12.2244 17.9989 12.4303 17.5185 12.6705 17.0723C14.1119 14.6013 16.1025 12.5765 18.1616 10.6203C18.848 9.96822 19.4657 9.21319 20.1521 8.56113C21.8681 6.81084 23.6527 5.16352 25.5403 3.61915C26.7414 2.65821 28.1142 1.90318 29.487 1.18248C29.8645 0.976562 30.242 0.976562 30.6538 0.976562C30.7225 2.07478 31.1343 3.03572 31.3745 4.0653C31.5805 4.99192 32.0952 5.74694 32.6787 6.46765C33.3307 7.25699 33.1935 8.11497 32.3012 8.66408C31.3402 9.24751 30.345 9.7623 29.384 10.3457C28.3888 10.9635 27.3935 11.6155 26.3982 12.2676C26.055 12.5078 25.6775 12.7138 25.5403 13.1942C25.4716 13.4001 25.1971 13.6061 24.9911 13.7433C22.3142 15.6309 19.9462 17.8617 17.6125 20.161C16.5143 21.2593 15.622 22.4948 14.6267 23.6616C13.7687 24.6569 12.8764 25.6521 12.0871 26.6817C11.7439 27.1279 11.2634 27.4024 11.0918 28.0545C10.9546 28.535 10.4741 28.5006 10.2339 28.0202C9.2386 26.064 8.24334 24.0734 7.24808 22.1172C6.97353 21.5338 6.63033 21.019 6.25282 20.5386C5.3262 19.3374 4.33094 18.2048 3.37 17.038C3.12977 16.7291 2.88953 16.4202 2.40906 16.5575C2.10019 16.6262 1.89427 16.3859 1.96291 16.077C2.10019 15.6309 1.82563 15.4936 1.5854 15.2534C1.27652 14.9788 1.00197 14.7043 0.727415 14.4297C0.555819 14.2924 0.452861 14.1208 0.5215 13.9149C0.590138 13.709 0.761735 13.6061 1.00197 13.6404C1.48244 13.7433 1.79131 13.4688 2.13451 13.1942C2.82089 12.6794 3.5416 12.2333 4.2623 11.7528C4.53686 11.5812 4.74277 11.4096 4.94869 11.0664C5.18892 10.6203 5.56643 10.2085 6.14986 10.1398C6.42442 10.1055 6.45874 9.9339 6.3901 9.62502C6.2185 9.04159 6.32146 8.97296 6.87057 9.04159C7.1108 9.07591 7.31672 9.11023 7.55695 9.00728C7.69423 8.93864 7.86583 8.97296 7.86583 9.11023C7.96878 9.86526 8.68949 10.2428 8.8954 10.9635C9.10132 11.6499 9.41019 12.3019 9.75339 12.954C10.2682 13.9836 10.6114 15.0818 11.0232 16.1457C11.2978 16.8664 11.6066 17.5871 11.7096 18.4794ZM14.1463 17.9989C14.3522 18.0676 14.4551 17.9303 14.5238 17.7587C14.764 17.0037 15.1758 16.2486 15.3131 15.322C14.6954 15.7682 14.4551 16.3516 14.0776 16.8321C13.8031 17.1409 13.7001 17.4155 14.1806 17.6557C14.3179 17.7244 14.2492 17.896 14.1463 17.9989C14.1119 18.2392 14.0433 18.4451 13.9747 18.8226C14.3522 18.4794 14.3522 18.2392 14.1463 17.9989ZM14.9013 21.5338C15.4847 20.8131 16.1368 20.1267 16.8232 19.4747C17.1664 19.1658 17.6811 18.8912 16.9261 18.4794C16.7888 18.4108 16.9261 18.0676 16.7545 17.8617C16.48 18.1705 16.48 18.548 16.3427 18.8569C16.0681 19.5776 16.0681 19.5776 15.2445 19.3374C15.1415 20.0581 14.764 20.7445 14.9013 21.5338C14.2835 21.6368 14.0776 21.2249 13.906 20.7102C13.6658 21.4309 13.4599 22.1172 13.1853 22.9409C13.9403 22.5634 14.2149 21.8084 14.9013 21.5338ZM8.72381 13.2285C7.69423 14.5327 7.04216 15.9055 6.63033 17.4155C7.24808 16.8321 7.72855 16.18 8.10606 15.4593C8.20902 15.2534 8.27766 15.0132 8.48357 14.9102C8.58653 14.8416 8.72381 14.8072 8.86109 14.8759C8.99836 14.9445 9.03268 15.0818 8.99836 15.2191C8.96404 15.3563 8.86109 15.5279 8.75813 15.6652C8.1747 16.5232 7.76287 17.4498 7.31672 18.3421C7.17944 18.6167 6.97353 18.8912 7.07648 19.3717C7.76287 18.7196 8.27766 18.0676 8.72381 17.4155C8.92972 17.1066 9.13564 16.6948 9.54747 16.9693C9.9593 17.2439 9.54747 17.5528 9.41019 17.793C9.03268 18.4451 8.68949 19.0628 8.44925 19.9894C8.92972 19.4747 9.10132 18.9942 9.37588 18.6167C9.51315 18.3764 9.65043 18.0332 10.0279 18.2392C10.4055 18.4451 10.1995 18.7196 10.0279 18.9942C9.92498 19.1658 9.78771 19.3374 9.71907 19.509C9.51315 20.0238 9.10132 20.4699 9.16996 21.1563C9.78771 20.6758 9.85635 19.7835 10.6457 19.5433C10.783 19.509 10.7143 19.2344 10.7143 19.0971C10.7143 18.5137 10.5084 17.9989 10.3711 17.4498C9.9593 16.0084 9.65043 14.6013 8.72381 13.2285ZM21.4219 12.7481C22.074 11.6842 22.4858 10.483 22.9663 9.35047C23.3438 8.42385 23.687 7.42859 24.2704 6.57061C24.4077 6.39901 24.545 6.15877 24.8196 6.33037C25.0598 6.50197 24.9911 6.7422 24.8196 6.9138C24.3734 7.49723 24.0988 8.14929 23.8586 8.83568C23.3095 10.3457 22.932 11.8901 22.7947 13.5031C23.4125 12.3019 24.0988 11.1694 24.3734 9.83094C24.7166 8.21793 25.1627 6.63924 26.3296 5.36943C26.5355 5.1292 26.6385 4.82032 26.6042 4.44281C26.4326 4.47713 26.3296 4.51145 26.261 4.54577C25.3343 4.99192 24.648 5.74694 23.8586 6.36469C23.4468 6.67356 22.932 6.87948 23.1722 7.56587C23.2065 7.66882 23.1036 7.8061 23.035 7.90906C21.9024 9.38479 21.7308 11.1008 21.4219 12.7481ZM29.7615 1.97182C29.3497 2.1091 29.0065 2.17774 29.0065 2.65821C29.0065 2.93276 28.8349 3.07004 28.5947 3.13868C28.1142 3.27595 27.9426 3.65347 27.8053 4.0653C27.3935 5.47239 26.9473 6.9138 26.5355 8.32089C26.5012 8.38953 26.5012 8.52681 26.6042 8.59544C26.8101 8.52681 26.8787 8.32089 26.9473 8.14929C27.5994 6.84516 27.9426 5.43807 28.5947 4.13394C28.732 3.85938 28.732 3.24164 29.2467 3.51619C29.6929 3.75642 29.3154 4.16826 29.1781 4.44281C28.6633 5.54103 28.2515 6.70788 27.9083 7.87474C27.771 8.32089 27.6337 8.80136 27.7367 9.41911C28.1828 8.87 28.4574 8.42385 28.5604 7.84042C28.732 6.84516 29.1438 5.95286 29.5899 5.06056C29.7959 4.61441 30.1047 4.37417 30.5509 4.27121C30.3106 3.44755 29.7615 2.8298 29.7615 1.97182ZM17.8527 16.5918C17.9214 16.4546 18.0243 16.3173 18.093 16.1457C18.745 14.4297 19.4314 12.7138 20.2551 11.0664C20.461 10.6889 20.461 10.1055 21.1131 10.2085C21.2503 10.2428 21.2847 10.0369 21.3533 9.9339C21.5249 9.45343 21.7995 9.00728 21.7308 8.38953C20.2208 9.38479 19.0539 10.6203 17.9214 11.8901C17.5782 12.2676 17.8184 12.4735 18.093 12.6794C18.2989 12.4735 18.2989 12.2333 18.3332 11.9931C18.4018 11.7528 18.5391 11.6499 18.7794 11.7185C18.9853 11.7871 19.1226 11.9244 19.0539 12.1646C18.9853 12.3362 18.9166 12.5422 18.848 12.7138C18.4018 13.9836 18.0243 15.2534 17.8527 16.5918ZM13.2883 18.6167C12.8421 19.1658 12.4646 19.7835 12.293 20.5042C12.2244 20.7102 12.1557 20.8818 11.9155 20.8818C11.6753 20.9161 11.538 20.8131 11.4694 20.5729C11.4007 20.4013 11.3321 20.1954 11.0918 19.9894C10.5771 21.1906 9.9593 22.2888 9.78771 23.6959C10.4055 23.2498 10.5084 22.6664 10.7143 22.1859C10.8173 21.9456 10.9202 21.7054 11.0575 21.4652C11.1262 21.3622 11.2978 21.3279 11.4007 21.3965C11.538 21.4309 11.5723 21.5681 11.6066 21.7054C11.6409 21.9113 11.4694 22.0829 11.4007 22.2545C11.0918 22.9752 10.7143 23.6616 10.5084 24.451C10.4398 24.6912 10.3368 24.9657 10.5771 25.1373C10.7143 25.1717 10.8173 25.103 10.8516 25.0344C11.3664 23.8675 11.6409 22.5634 12.5676 21.5681C12.6019 21.5338 12.6019 21.4309 12.6362 21.3965C12.8764 20.4699 13.0824 19.5433 13.2883 18.6167ZM22.1426 12.7824C21.7995 13.2629 21.6965 13.6061 21.5592 13.9836C21.4563 14.2924 21.319 14.6013 21.1817 14.8759C21.1131 15.0475 20.9415 15.1161 20.7699 15.0818C20.564 15.0475 20.5296 14.8759 20.5296 14.7043C20.5296 14.3611 20.5296 14.0522 20.5296 13.709C20.4953 13.709 20.461 13.709 20.4267 13.6747C20.0149 14.8072 19.603 15.9398 19.1569 17.2096C20.0149 16.7291 20.564 16.077 21.216 15.5966C22.1426 14.9445 22.1426 13.9836 22.1426 12.7824ZM26.9817 9.65934C26.7758 9.79662 26.5698 10.0369 26.4326 10.0025C25.8148 9.86526 25.7119 10.3114 25.5746 10.6889C25.4373 11.1351 25.2314 11.5469 24.9911 11.9244C24.8539 12.1303 24.648 12.3362 24.442 12.1646C24.1332 11.8901 23.9959 12.0617 23.8929 12.3362C23.7557 12.6794 23.6184 13.0226 23.3781 13.5717C24.5793 12.6794 25.5746 11.8901 26.6042 11.1351C26.8787 10.9292 27.2905 10.8262 27.3249 10.5173C27.3935 10.2771 27.1533 9.96822 26.9817 9.65934ZM30.7225 4.786C29.7615 6.05582 29.1095 7.84042 29.2811 8.66408C30.2077 8.04634 30.5166 7.05108 30.9627 6.15877C31.2029 5.71262 30.8597 5.33511 30.7225 4.786ZM4.81141 14.9788C4.88005 15.0132 4.94869 15.0475 5.01733 15.0818C5.80667 13.8806 6.59601 12.6451 7.35104 11.4096C7.59127 11.0321 7.55695 11.0321 7.04216 10.6203C6.3901 12.1646 5.3262 13.4345 4.81141 14.9788ZM8.10606 11.8558C7.1108 12.8854 5.56643 15.5623 5.4978 16.3173C5.56643 16.283 5.63507 16.2486 5.66939 16.2143C6.52737 14.9788 7.35104 13.709 8.31198 12.5422C8.51789 12.2333 8.27766 12.0274 8.10606 11.8558ZM24.8882 10.9978C25.4716 9.96821 26.055 8.93864 25.8835 7.49723C25.2314 8.6984 24.9911 9.83094 24.8882 10.9978ZM5.87531 16.8664C5.70371 17.3125 4.98301 17.5528 5.39484 18.1705C5.66939 18.5824 5.87531 19.0285 6.25282 19.3374C6.52737 19.1658 6.59601 18.9256 6.59601 18.5824C6.14986 18.6853 5.84099 18.548 5.77235 18.0676C5.70371 17.6901 6.0469 17.3125 5.87531 16.8664ZM17.6811 18.4108C18.1959 18.3078 18.5048 18.0332 18.7794 17.7244C18.2989 17.5185 18.6421 16.9694 18.4018 16.5918C18.1616 17.2096 17.9214 17.8273 17.6811 18.4108ZM9.54747 21.9113C8.58653 23.0439 8.58653 23.0439 9.10132 23.6959C9.2386 23.1125 9.41019 22.5291 9.54747 21.9113ZM3.02681 14.9445C3.74751 14.1895 4.05639 13.7433 4.29662 13.0226C3.74751 13.4688 3.30136 14.0179 3.02681 14.9445ZM4.22798 14.567C3.71319 14.9102 3.57592 15.3563 3.40432 15.7339C3.33568 15.8711 3.47296 16.0427 3.64455 16.1114C3.78183 16.1457 3.88479 16.0427 3.91911 15.9055C4.02207 15.4936 4.12502 15.0818 4.22798 14.567ZM17.7155 13.3658C17.132 14.2238 17.0291 14.4984 17.132 15.1504C17.4409 14.567 17.6468 13.9836 17.7155 13.3658ZM16.7545 13.4001C16.5143 13.709 16.3084 14.0179 16.0681 14.3268C15.9995 14.4297 16.0338 14.4984 16.1025 14.567C16.2054 14.67 16.3427 14.7043 16.4456 14.567C16.6859 14.2238 16.8232 13.8463 16.7545 13.4001ZM11.5037 24.9314C11.538 24.9657 11.6066 25.0001 11.6409 25.0001C11.9155 24.6226 12.1557 24.2794 12.4303 23.9018C12.4989 23.7646 12.4646 23.6273 12.3617 23.5587C12.2244 23.49 12.1214 23.593 12.0528 23.6959C11.8469 24.1078 11.6753 24.5196 11.5037 24.9314ZM7.35104 20.8131C7.55695 20.2983 7.76287 19.9894 7.72855 19.4403C7.41968 19.8865 6.93921 20.1267 7.35104 20.8131ZM31.3059 7.15403C31.2716 7.25699 31.2029 7.39427 31.1686 7.49723C31.1343 7.60018 31.0657 7.73746 31.2373 7.84042C31.2716 7.87474 31.3745 7.84042 31.4432 7.8061C31.5805 7.73746 31.6148 7.6345 31.5805 7.49723C31.4775 7.39427 31.4775 7.25699 31.3059 7.15403ZM28.5947 9.38479C28.4917 9.41911 28.4231 9.55638 28.3544 9.69366C28.3201 9.79662 28.3201 9.83094 28.4231 9.83094C28.5947 9.83094 28.732 9.7623 28.8006 9.5907C28.8349 9.48775 28.7663 9.41911 28.5947 9.38479Z" fill="#8DC63F"/>
</svg>
