<svg width="34" height="23" viewBox="0 0 34 23" fill="none" xmlns="http://www.w3.org/2000/svg">
<path d="M30.3002 4.1907H9.3872L9.34502 3.99044C9.15082 3.08702 8.6547 2.27722 7.93885 1.69519C7.22299 1.11315 6.33035 0.793805 5.40877 0.790039H1.00172C0.803794 0.790039 0.613972 0.868887 0.474016 1.00924C0.334059 1.14959 0.255432 1.33995 0.255432 1.53843C0.255432 1.73692 0.334059 1.92727 0.474016 2.06763C0.613972 2.20798 0.803794 2.28682 1.00172 2.28682H5.40877C5.98848 2.28922 6.54998 2.49015 7.00024 2.85634C7.4505 3.22253 7.76248 3.732 7.88451 4.30032L11.0132 19.1527C11.2269 20.1474 11.773 21.039 12.5611 21.6798C13.3492 22.3206 14.3321 22.6722 15.3467 22.6761H27.2516C27.4496 22.6761 27.6394 22.5973 27.7793 22.4569C27.9193 22.3166 27.9979 22.1262 27.9979 21.9277C27.9979 21.7293 27.9193 21.5389 27.7793 21.3986C27.6394 21.2582 27.4496 21.1794 27.2516 21.1794H15.3467C14.6739 21.1769 14.0221 20.9438 13.4996 20.5188C12.977 20.0938 12.6151 19.5025 12.4738 18.8428L12.3738 18.3685H25.7583C26.3421 18.3704 26.9168 18.2226 27.4276 17.9391C27.9385 17.6557 28.3686 17.246 28.6771 16.7489L33.219 9.47913C33.5456 8.95633 33.7266 8.35537 33.7433 7.73868C33.7599 7.12199 33.6116 6.51209 33.3137 5.97234C33.0158 5.43259 32.5792 4.98268 32.0492 4.66937C31.5193 4.35606 30.9154 4.19078 30.3002 4.19069V4.1907ZM31.9538 8.68397L27.412 15.9538C27.2372 16.2355 26.9936 16.4677 26.7042 16.6284C26.4147 16.789 26.0891 16.8728 25.7583 16.8717H12.0585L9.70248 5.68748H30.3002C30.6487 5.68757 30.9909 5.78125 31.2911 5.95879C31.5914 6.13632 31.8387 6.39125 32.0075 6.69707C32.1763 7.0029 32.2603 7.34846 32.2509 7.69786C32.2414 8.04727 32.1389 8.38776 31.9538 8.68397H31.9538Z" fill="#191817"/>
</svg>
