<svg width="23" height="9" viewBox="0 0 23 9" fill="none" xmlns="http://www.w3.org/2000/svg">
<path d="M4.56809 8.11107C5.38828 8.10874 6.18423 7.8319 6.82972 7.32444C7.47521 6.81699 7.93329 6.10796 8.13134 5.3098H14.7508C14.9684 6.18505 15.4978 6.95025 16.2391 7.46118C16.9804 7.97211 17.8824 8.19347 18.7752 8.08355C19.668 7.97363 20.4899 7.54001 21.0859 6.86442C21.682 6.18883 22.011 5.31794 22.011 4.4159C22.011 3.51386 21.682 2.64297 21.0859 1.96739C20.4899 1.2918 19.668 0.858177 18.7752 0.748252C17.8824 0.638327 16.9804 0.859693 16.2391 1.37062C15.4978 1.88155 14.9684 2.64676 14.7508 3.52201H8.13134C7.96333 2.85148 7.61084 2.24178 7.11405 1.7624C6.61726 1.28302 5.99616 0.953249 5.32155 0.810678C4.64694 0.668107 3.94596 0.718472 3.2985 0.95603C2.65105 1.19359 2.08317 1.60878 1.65961 2.15429C1.23604 2.69979 0.973829 3.35366 0.902853 4.04136C0.831877 4.72906 0.954994 5.42292 1.25817 6.04385C1.56135 6.66479 2.0324 7.18781 2.61761 7.55331C3.20282 7.91881 3.87866 8.11207 4.56809 8.11107ZM18.314 2.50852C18.6902 2.50852 19.0579 2.62038 19.3707 2.82997C19.6835 3.03956 19.9273 3.33745 20.0713 3.68598C20.2152 4.03451 20.2529 4.41802 20.1795 4.78801C20.1061 5.15801 19.925 5.49787 19.659 5.76463C19.393 6.03138 19.054 6.21304 18.6851 6.28663C18.3161 6.36023 17.9337 6.32246 17.5861 6.17809C17.2386 6.03373 16.9415 5.78925 16.7325 5.47559C16.5235 5.16192 16.412 4.79315 16.412 4.4159C16.4125 3.91017 16.613 3.4253 16.9696 3.06769C17.3262 2.71009 17.8097 2.50899 18.314 2.50852ZM4.56809 2.50852C4.94428 2.50852 5.31202 2.62038 5.6248 2.82996C5.93759 3.03955 6.18138 3.33744 6.32535 3.68597C6.46931 4.03449 6.50698 4.41801 6.43359 4.788C6.3602 5.158 6.17905 5.49787 5.91305 5.76462C5.64705 6.03137 5.30814 6.21303 4.93918 6.28663C4.57023 6.36023 4.18779 6.32246 3.84024 6.17809C3.49269 6.03373 3.19563 5.78926 2.98663 5.47559C2.77764 5.16192 2.66608 4.79315 2.66608 4.4159C2.66661 3.9102 2.86716 3.42535 3.22374 3.06776C3.58033 2.71017 4.06381 2.50905 4.56809 2.50852Z" fill="black"/>
</svg>
