<svg width="30" height="30" viewBox="0 0 30 30" fill="none" xmlns="http://www.w3.org/2000/svg">
<path d="M15 2.72727C19.0227 2.72727 19.5 2.72727 21.0682 2.79545C22.5 2.86364 23.3182 3.06818 23.8636 3.27273C24.5455 3.54545 25.0909 3.88636 25.5682 4.36364C26.0455 4.84091 26.4545 5.45455 26.7273 6.13636C26.9318 6.68182 27.2045 7.43182 27.2727 8.93182C27.3409 10.5 27.3409 10.9773 27.3409 15C27.3409 19.0227 27.3409 19.5 27.2727 21.0682C27.2045 22.5 26.9318 23.3182 26.7273 23.8636C26.4545 24.5455 26.1136 25.0909 25.6364 25.5682C25.0909 26.1136 24.6136 26.3864 23.9318 26.6591C23.3864 26.8636 22.6364 27.1364 21.1364 27.2045C19.5 27.2727 19.0227 27.2727 15 27.2727C10.9773 27.2727 10.5 27.2727 8.93182 27.2045C7.5 27.1364 6.68182 26.9318 6.13636 26.7273C5.45455 26.4545 4.90909 26.1136 4.43182 25.6364C3.88636 25.0227 3.54545 24.5455 3.27273 23.8636C3.06818 23.3182 2.79545 22.5682 2.72727 21.0682C2.72727 19.5 2.72727 19.0227 2.72727 15C2.72727 10.9773 2.72727 10.5 2.79545 8.93182C2.86364 7.5 3.06818 6.68182 3.27273 6.13636C3.54545 5.45455 3.88636 4.90909 4.36364 4.43182C4.97727 3.88636 5.45455 3.54545 6.13636 3.27273C6.68182 3.06818 7.43182 2.79545 8.93182 2.72727C10.5 2.72727 10.9773 2.72727 15 2.72727ZM15 0C10.9091 0 10.4318 0 8.79545 0.0681818C7.22727 0.136364 6.13636 0.409091 5.18182 0.75C4.15909 1.15909 3.34091 1.70455 2.52273 2.52273C1.70455 3.34091 1.15909 4.15909 0.818182 5.18182C0.477273 6.13636 0.204545 7.22727 0.136364 8.79545C0 10.4318 0 10.9091 0 15C0 19.0909 0 19.5682 0.0681818 21.2045C0.136364 22.7727 0.409091 23.8636 0.75 24.8182C1.15909 25.7727 1.63636 26.6591 2.45455 27.4773C3.27273 28.2955 4.09091 28.8409 5.11364 29.1818C6.06818 29.5227 7.15909 29.7955 8.72727 29.8636C10.4318 30 10.9091 30 15 30C19.0909 30 19.5682 30 21.2045 29.9318C22.7727 29.8636 23.8636 29.5909 24.8182 29.25C25.7727 28.8409 26.6591 28.3636 27.4773 27.5455C28.2955 26.7273 28.8409 25.9091 29.1818 24.8864C29.5227 23.9318 29.7955 22.8409 29.8636 21.2727C30 19.5682 30 19.0909 30 15C30 10.9091 30 10.4318 29.9318 8.79545C29.8636 7.22727 29.5909 6.13636 29.25 5.18182C28.8409 4.22727 28.3636 3.34091 27.5455 2.52273C26.7273 1.70455 25.9091 1.15909 24.8864 0.818182C23.9318 0.477273 22.8409 0.204545 21.2727 0.136364C19.5682 0 19.0909 0 15 0ZM15 7.29545C10.7727 7.29545 7.29545 10.7727 7.29545 15C7.29545 19.2273 10.7727 22.7045 15 22.7045C19.2273 22.7045 22.7045 19.2273 22.7045 15C22.7045 10.7727 19.2273 7.29545 15 7.29545ZM15 19.9773C12.2045 19.9773 10.0227 17.7273 10.0227 15C10.0227 12.2727 12.2727 10.0227 15 10.0227C17.7273 10.0227 19.9773 12.2727 19.9773 15C19.9773 17.7273 17.7955 19.9773 15 19.9773ZM24.8182 7.02273C24.8182 8.04545 24 8.79545 23.0455 8.79545C22.0909 8.79545 21.2727 7.97727 21.2727 7.02273C21.2727 6.06818 22.0909 5.25 23.0455 5.25C24 5.25 24.8182 6 24.8182 7.02273Z" fill="#0A0A08"/>
</svg>
