<svg width="26" height="24" viewBox="0 0 26 24" fill="none" xmlns="http://www.w3.org/2000/svg">
<path d="M3.89165 19.2599C3.9898 19.2599 4.06342 19.2845 4.13703 19.2599C5.56025 18.7201 6.88531 17.984 8.13676 17.1251C9.68266 16.0209 10.8114 14.4995 11.9647 13.0027C12.4064 12.4138 12.8236 11.8003 13.2162 11.1623C14.1732 9.61643 15.4246 8.36499 16.9214 7.30984C18.5164 6.15655 20.1114 4.95418 22.0499 4.34072C22.3198 4.26711 22.5652 4.16896 22.8351 4.14442C24.013 3.99719 24.8227 4.75787 24.7246 5.9357C24.6264 7.01538 24.381 8.04599 23.8903 9.02752C21.3874 13.9352 17.903 17.9103 13.0689 20.6341C11.1795 21.6892 9.16736 22.5235 6.98346 22.6953C6.32093 22.7689 5.63386 22.7198 4.97133 22.6462C2.24759 22.18 0.750762 19.8979 1.36422 17.2723C1.83044 15.3338 2.61566 13.5671 3.81803 11.9721C4.65233 10.8433 5.48663 9.66551 6.41908 8.63491C9.04467 5.66578 12.0874 3.21196 15.7927 1.66606C17.2895 1.0526 18.8109 0.709069 20.4304 0.758146C21.1175 0.758146 21.7555 0.905375 22.3198 1.3716C22.9333 1.8869 23.0069 2.35313 22.5161 2.99112C22.099 3.5555 21.4855 3.82542 20.8475 4.0708C19.6206 4.56156 18.3446 5.05233 17.1668 5.64125C16.5043 5.96024 15.9399 6.47554 15.4001 6.96631C14.6885 7.57976 14.0505 8.26683 13.3634 8.9539C12.5536 9.76366 11.9156 10.647 11.4249 11.6776C10.0017 14.6713 7.71961 16.8552 4.89772 18.5483C4.60326 18.7446 4.3088 18.9409 4.03888 19.1127C3.9898 19.1127 3.96526 19.1863 3.89165 19.2599ZM11.8175 8.09506C11.7929 8.07053 11.7684 8.04599 11.7193 8.04599C11.5476 8.26683 11.3758 8.4386 11.2286 8.68398C10.5906 9.81274 9.95258 10.9415 9.36367 12.0703C8.70114 13.3217 7.81776 14.3523 6.71354 15.2602C6.19824 15.6774 5.68294 16.0945 5.16764 16.5607C4.97133 16.708 4.72595 16.8552 4.67687 17.2969C4.92225 17.1987 5.11856 17.1497 5.26579 17.0515C5.78109 16.6834 6.29639 16.2663 6.78716 15.8737C8.1613 14.7449 9.36367 13.4935 10.0262 11.7513C10.4188 10.7697 10.9341 9.81274 11.4003 8.85575C11.523 8.58583 11.6703 8.34045 11.8175 8.09506ZM17.633 15.1375C17.6576 15.1621 17.6821 15.1866 17.7067 15.2111C17.8784 15.0885 18.0747 14.9412 18.222 14.794C19.3998 13.3708 20.5531 11.9721 21.6573 10.4753C22.3444 9.59189 22.8351 8.56129 23.1296 7.48161C23.2277 7.18715 23.3504 6.86816 23.0805 6.59824C22.6879 6.84362 22.6879 6.84362 22.5652 7.16261C21.9518 8.90483 21.0684 10.4753 20.0378 11.9476C19.2771 13.0518 18.4428 14.0824 17.633 15.1375ZM4.03888 17.7877C3.35181 17.7877 2.9592 18.1312 2.88558 18.6956C3.54812 18.6219 3.69534 18.4747 4.03888 17.7877Z" stroke="black" stroke-linejoin="round"/>
</svg>
