<svg width="18" height="10" viewBox="0 0 18 10" fill="none" xmlns="http://www.w3.org/2000/svg">
<path d="M16.8947 8.14419C16.3895 7.22426 15.6487 6.37974 14.7731 5.68602C13.8807 4.99231 12.8705 4.4494 11.8265 4.04222C10.6311 3.57471 8.52639 3.08161 7.29725 2.87048L8.61057 1.53881C8.81262 0.845092 7.97075 0.302183 7.29725 0.679203L1.4041 3.99697C0.8653 4.29859 0.8653 5.02247 1.4041 5.32408L7.29725 8.64185C7.97075 9.01887 8.81262 8.47597 8.61057 7.78225L7.29725 5.68602C8.1728 5.71618 10.0315 6.22311 10.8734 6.389C12.5908 6.75094 14.0828 7.78225 15.1435 9.06412L15.1604 9.0792C15.4466 9.42605 15.9854 9.5467 16.4232 9.35065C16.9283 9.13952 17.1472 8.59661 16.8947 8.14419Z" fill="white" stroke="black"/>
</svg>
