<svg width="33" height="29" viewBox="0 0 33 29" fill="none" xmlns="http://www.w3.org/2000/svg">
<path d="M11.2096 18.4799C11.7244 17.9994 11.9303 17.5189 12.1705 17.0728C13.6119 14.6018 15.6025 12.577 17.6616 10.6208C18.348 9.9687 18.9657 9.21368 19.6521 8.56161C21.3681 6.81133 23.1527 5.164 25.0403 3.61964C26.2414 2.6587 27.6142 1.90367 28.987 1.18297C29.3645 0.977051 29.742 0.977051 30.1538 0.977051C30.2225 2.07527 30.6343 3.03621 30.8745 4.06579C31.0805 4.99241 31.5952 5.74743 32.1787 6.46814C32.8307 7.25748 32.6935 8.11546 31.8012 8.66457C30.8402 9.248 29.845 9.76279 28.884 10.3462C27.8888 10.964 26.8935 11.616 25.8982 12.2681C25.555 12.5083 25.1775 12.7142 25.0403 13.1947C24.9716 13.4006 24.6971 13.6065 24.4911 13.7438C21.8142 15.6314 19.4462 17.8621 17.1125 20.1615C16.0143 21.2598 15.122 22.4952 14.1267 23.6621C13.2687 24.6574 12.3764 25.6526 11.5871 26.6822C11.2439 27.1283 10.7634 27.4029 10.5918 28.055C10.4546 28.5354 9.97409 28.5011 9.73386 28.0207C8.7386 26.0645 7.74334 24.0739 6.74808 22.1177C6.47353 21.5343 6.13033 21.0195 5.75282 20.539C4.8262 19.3379 3.83094 18.2053 2.87 17.0385C2.62977 16.7296 2.38953 16.4207 1.90906 16.558C1.60019 16.6266 1.39427 16.3864 1.46291 16.0775C1.60019 15.6314 1.32563 15.4941 1.0854 15.2539C0.776524 14.9793 0.50197 14.7048 0.227415 14.4302C0.055819 14.2929 -0.0471388 14.1213 0.0214997 13.9154C0.0901383 13.7095 0.261735 13.6065 0.50197 13.6409C0.98244 13.7438 1.29131 13.4693 1.63451 13.1947C2.32089 12.6799 3.0416 12.2338 3.7623 11.7533C4.03686 11.5817 4.24277 11.4101 4.44869 11.0669C4.68892 10.6208 5.06643 10.2089 5.64986 10.1403C5.92442 10.106 5.95874 9.93438 5.8901 9.62551C5.7185 9.04208 5.82146 8.97344 6.37057 9.04208C6.6108 9.0764 6.81672 9.11072 7.05695 9.00776C7.19423 8.93913 7.36583 8.97344 7.36583 9.11072C7.46878 9.86575 8.18949 10.2433 8.3954 10.964C8.60132 11.6503 8.91019 12.3024 9.25339 12.9545C9.76818 13.9841 10.1114 15.0823 10.5232 16.1462C10.7978 16.8669 11.1066 17.5876 11.2096 18.4799ZM13.6463 17.9994C13.8522 18.0681 13.9551 17.9308 14.0238 17.7592C14.264 17.0042 14.6758 16.2491 14.8131 15.3225C14.1954 15.7687 13.9551 16.3521 13.5776 16.8326C13.3031 17.1414 13.2001 17.416 13.6806 17.6562C13.8179 17.7249 13.7492 17.8965 13.6463 17.9994C13.6119 18.2397 13.5433 18.4456 13.4747 18.8231C13.8522 18.4799 13.8522 18.2397 13.6463 17.9994ZM14.4013 21.5343C14.9847 20.8136 15.6368 20.1272 16.3232 19.4751C16.6664 19.1663 17.1811 18.8917 16.4261 18.4799C16.2888 18.4112 16.4261 18.0681 16.2545 17.8621C15.98 18.171 15.98 18.5485 15.8427 18.8574C15.5681 19.5781 15.5681 19.5781 14.7445 19.3379C14.6415 20.0586 14.264 20.745 14.4013 21.5343C13.7835 21.6373 13.5776 21.2254 13.406 20.7106C13.1658 21.4313 12.9599 22.1177 12.6853 22.9414C13.4403 22.5639 13.7149 21.8089 14.4013 21.5343ZM8.22381 13.229C7.19423 14.5332 6.54216 15.9059 6.13033 17.416C6.74808 16.8326 7.22855 16.1805 7.60606 15.4598C7.70902 15.2539 7.77766 15.0136 7.98357 14.9107C8.08653 14.842 8.22381 14.8077 8.36109 14.8764C8.49836 14.945 8.53268 15.0823 8.49836 15.2196C8.46404 15.3568 8.36109 15.5284 8.25813 15.6657C7.6747 16.5237 7.26287 17.4503 6.81672 18.3426C6.67944 18.6172 6.47353 18.8917 6.57648 19.3722C7.26287 18.7201 7.77766 18.0681 8.22381 17.416C8.42972 17.1071 8.63564 16.6953 9.04747 16.9698C9.4593 17.2444 9.04747 17.5533 8.91019 17.7935C8.53268 18.4456 8.18949 19.0633 7.94925 19.9899C8.42972 19.4751 8.60132 18.9947 8.87588 18.6172C9.01315 18.3769 9.15043 18.0337 9.52794 18.2397C9.90545 18.4456 9.69954 18.7201 9.52794 18.9947C9.42498 19.1663 9.28771 19.3379 9.21907 19.5095C9.01315 20.0243 8.60132 20.4704 8.66996 21.1568C9.28771 20.6763 9.35635 19.784 10.1457 19.5438C10.283 19.5095 10.2143 19.2349 10.2143 19.0976C10.2143 18.5142 10.0084 17.9994 9.87113 17.4503C9.4593 16.0089 9.15043 14.6018 8.22381 13.229ZM20.9219 12.7486C21.574 11.6847 21.9858 10.4835 22.4663 9.35096C22.8438 8.42434 23.187 7.42908 23.7704 6.57109C23.9077 6.3995 24.045 6.15926 24.3196 6.33086C24.5598 6.50246 24.4911 6.74269 24.3196 6.91429C23.8734 7.49771 23.5988 8.14978 23.3586 8.83617C22.8095 10.3462 22.432 11.8906 22.2947 13.5036C22.9125 12.3024 23.5988 11.1699 23.8734 9.83143C24.2166 8.21842 24.6627 6.63973 25.8296 5.36992C26.0355 5.12968 26.1385 4.82081 26.1042 4.4433C25.9326 4.47762 25.8296 4.51194 25.761 4.54626C24.8343 4.99241 24.148 5.74743 23.3586 6.36518C22.9468 6.67405 22.432 6.87997 22.6722 7.56635C22.7065 7.66931 22.6036 7.80659 22.535 7.90955C21.4024 9.38528 21.2308 11.1012 20.9219 12.7486ZM29.2615 1.97231C28.8497 2.10959 28.5065 2.17823 28.5065 2.6587C28.5065 2.93325 28.3349 3.07053 28.0947 3.13917C27.6142 3.27644 27.4426 3.65396 27.3053 4.06579C26.8935 5.47288 26.4473 6.91429 26.0355 8.32138C26.0012 8.39002 26.0012 8.52729 26.1042 8.59593C26.3101 8.52729 26.3787 8.32138 26.4473 8.14978C27.0994 6.84565 27.4426 5.43856 28.0947 4.13442C28.232 3.85987 28.232 3.24212 28.7467 3.51668C29.1929 3.75691 28.8154 4.16874 28.6781 4.4433C28.1633 5.54152 27.7515 6.70837 27.4083 7.87523C27.271 8.32138 27.1337 8.80185 27.2367 9.4196C27.6828 8.87049 27.9574 8.42434 28.0604 7.84091C28.232 6.84565 28.6438 5.95335 29.0899 5.06105C29.2959 4.6149 29.6047 4.37466 30.0509 4.2717C29.8106 3.44804 29.2615 2.83029 29.2615 1.97231ZM17.3527 16.5923C17.4214 16.455 17.5243 16.3178 17.593 16.1462C18.245 14.4302 18.9314 12.7142 19.7551 11.0669C19.961 10.6894 19.961 10.106 20.6131 10.2089C20.7503 10.2433 20.7847 10.0373 20.8533 9.93439C21.0249 9.45391 21.2995 9.00776 21.2308 8.39002C19.7208 9.38528 18.5539 10.6208 17.4214 11.8906C17.0782 12.2681 17.3184 12.474 17.593 12.6799C17.7989 12.474 17.7989 12.2338 17.8332 11.9935C17.9018 11.7533 18.0391 11.6503 18.2794 11.719C18.4853 11.7876 18.6226 11.9249 18.5539 12.1651C18.4853 12.3367 18.4166 12.5426 18.348 12.7142C17.9018 13.9841 17.5243 15.2539 17.3527 16.5923ZM12.7883 18.6172C12.3421 19.1663 11.9646 19.784 11.793 20.5047C11.7244 20.7106 11.6557 20.8822 11.4155 20.8822C11.1753 20.9166 11.038 20.8136 10.9694 20.5734C10.9007 20.4018 10.8321 20.1959 10.5918 19.9899C10.0771 21.1911 9.4593 22.2893 9.28771 23.6964C9.90545 23.2503 10.0084 22.6668 10.2143 22.1864C10.3173 21.9461 10.4202 21.7059 10.5575 21.4657C10.6262 21.3627 10.7978 21.3284 10.9007 21.397C11.038 21.4313 11.0723 21.5686 11.1066 21.7059C11.1409 21.9118 10.9694 22.0834 10.9007 22.255C10.5918 22.9757 10.2143 23.6621 10.0084 24.4514C9.93977 24.6917 9.83681 24.9662 10.0771 25.1378C10.2143 25.1721 10.3173 25.1035 10.3516 25.0349C10.8664 23.868 11.1409 22.5639 12.0676 21.5686C12.1019 21.5343 12.1019 21.4313 12.1362 21.397C12.3764 20.4704 12.5824 19.5438 12.7883 18.6172ZM21.6426 12.7829C21.2995 13.2634 21.1965 13.6065 21.0592 13.9841C20.9563 14.2929 20.819 14.6018 20.6817 14.8764C20.6131 15.048 20.4415 15.1166 20.2699 15.0823C20.064 15.048 20.0296 14.8764 20.0296 14.7048C20.0296 14.3616 20.0296 14.0527 20.0296 13.7095C19.9953 13.7095 19.961 13.7095 19.9267 13.6752C19.5149 14.8077 19.103 15.9403 18.6569 17.2101C19.5149 16.7296 20.064 16.0775 20.716 15.5971C21.6426 14.945 21.6426 13.9841 21.6426 12.7829ZM26.4817 9.65983C26.2758 9.79711 26.0698 10.0373 25.9326 10.003C25.3148 9.86575 25.2119 10.3119 25.0746 10.6894C24.9373 11.1356 24.7314 11.5474 24.4911 11.9249C24.3539 12.1308 24.148 12.3367 23.942 12.1651C23.6332 11.8906 23.4959 12.0622 23.3929 12.3367C23.2557 12.6799 23.1184 13.0231 22.8781 13.5722C24.0793 12.6799 25.0746 11.8906 26.1042 11.1356C26.3787 10.9296 26.7905 10.8267 26.8249 10.5178C26.8935 10.2776 26.6533 9.9687 26.4817 9.65983ZM30.2225 4.78649C29.2615 6.05631 28.6095 7.84091 28.7811 8.66457C29.7077 8.04682 30.0166 7.05156 30.4627 6.15926C30.7029 5.71311 30.3597 5.3356 30.2225 4.78649ZM4.31141 14.9793C4.38005 15.0136 4.44869 15.048 4.51733 15.0823C5.30667 13.8811 6.09601 12.6456 6.85104 11.4101C7.09127 11.0326 7.05695 11.0326 6.54216 10.6208C5.8901 12.1651 4.8262 13.435 4.31141 14.9793ZM7.60606 11.8563C6.6108 12.8858 5.06643 15.5627 4.9978 16.3178C5.06643 16.2835 5.13507 16.2491 5.16939 16.2148C6.02737 14.9793 6.85104 13.7095 7.81198 12.5426C8.01789 12.2338 7.77766 12.0279 7.60606 11.8563ZM24.3882 10.9983C24.9716 9.9687 25.555 8.93913 25.3835 7.49772C24.7314 8.69889 24.4911 9.83143 24.3882 10.9983ZM5.37531 16.8669C5.20371 17.313 4.48301 17.5533 4.89484 18.171C5.16939 18.5828 5.37531 19.029 5.75282 19.3379C6.02737 19.1663 6.09601 18.926 6.09601 18.5828C5.64986 18.6858 5.34099 18.5485 5.27235 18.0681C5.20371 17.6905 5.5469 17.313 5.37531 16.8669ZM17.1811 18.4112C17.6959 18.3083 18.0048 18.0337 18.2794 17.7249C17.7989 17.5189 18.1421 16.9698 17.9018 16.5923C17.6616 17.2101 17.4214 17.8278 17.1811 18.4112ZM9.04747 21.9118C8.08653 23.0444 8.08653 23.0444 8.60132 23.6964C8.7386 23.113 8.91019 22.5296 9.04747 21.9118ZM2.52681 14.945C3.24751 14.19 3.55639 13.7438 3.79662 13.0231C3.24751 13.4693 2.80136 14.0184 2.52681 14.945ZM3.72798 14.5675C3.21319 14.9107 3.07592 15.3568 2.90432 15.7343C2.83568 15.8716 2.97296 16.0432 3.14455 16.1119C3.28183 16.1462 3.38479 16.0432 3.41911 15.9059C3.52207 15.4941 3.62502 15.0823 3.72798 14.5675ZM17.2155 13.3663C16.632 14.2243 16.5291 14.4989 16.632 15.1509C16.9409 14.5675 17.1468 13.9841 17.2155 13.3663ZM16.2545 13.4006C16.0143 13.7095 15.8084 14.0184 15.5681 14.3273C15.4995 14.4302 15.5338 14.4988 15.6025 14.5675C15.7054 14.6704 15.8427 14.7048 15.9456 14.5675C16.1859 14.2243 16.3232 13.8468 16.2545 13.4006ZM11.0037 24.9319C11.038 24.9662 11.1066 25.0006 11.1409 25.0006C11.4155 24.623 11.6557 24.2798 11.9303 23.9023C11.9989 23.7651 11.9646 23.6278 11.8617 23.5591C11.7244 23.4905 11.6214 23.5935 11.5528 23.6964C11.3469 24.1083 11.1753 24.5201 11.0037 24.9319ZM6.85104 20.8136C7.05695 20.2988 7.26287 19.9899 7.22855 19.4408C6.91968 19.887 6.43921 20.1272 6.85104 20.8136ZM30.8059 7.15452C30.7716 7.25748 30.7029 7.39476 30.6686 7.49772C30.6343 7.60067 30.5657 7.73795 30.7373 7.84091C30.7716 7.87523 30.8745 7.84091 30.9432 7.80659C31.0805 7.73795 31.1148 7.63499 31.0805 7.49772C30.9775 7.39476 30.9775 7.25748 30.8059 7.15452ZM28.0947 9.38528C27.9917 9.41959 27.9231 9.55687 27.8544 9.69415C27.8201 9.79711 27.8201 9.83143 27.9231 9.83143C28.0947 9.83143 28.232 9.76279 28.3006 9.59119C28.3349 9.48823 28.2663 9.41959 28.0947 9.38528Z" fill="#8DC63F"/>
</svg>
