<svg width="25" height="23" viewBox="0 0 25 23" fill="none" xmlns="http://www.w3.org/2000/svg">
<path d="M3.39165 19.2599C3.4898 19.2599 3.56342 19.2845 3.63703 19.2599C5.06025 18.7201 6.38531 17.984 7.63676 17.1251C9.18266 16.0209 10.3114 14.4995 11.4647 13.0027C11.9064 12.4138 12.3236 11.8003 12.7162 11.1623C13.6732 9.61643 14.9246 8.36498 16.4214 7.30984C18.0164 6.15655 19.6114 4.95418 21.5499 4.34072C21.8198 4.26711 22.0652 4.16896 22.3351 4.14442C23.513 3.99719 24.3227 4.75787 24.2246 5.9357C24.1264 7.01538 23.881 8.04599 23.3903 9.02752C20.8874 13.9352 17.403 17.9103 12.5689 20.6341C10.6795 21.6892 8.66736 22.5235 6.48346 22.6953C5.82093 22.7689 5.13386 22.7198 4.47133 22.6462C1.74759 22.18 0.250762 19.8979 0.864216 17.2723C1.33044 15.3338 2.11566 13.5671 3.31803 11.9721C4.15233 10.8433 4.98663 9.66551 5.91908 8.6349C8.54467 5.66578 11.5874 3.21196 15.2927 1.66606C16.7895 1.0526 18.3109 0.709069 19.9304 0.758145C20.6175 0.758145 21.2555 0.905375 21.8198 1.3716C22.4333 1.8869 22.5069 2.35313 22.0161 2.99112C21.599 3.5555 20.9855 3.82542 20.3475 4.0708C19.1206 4.56156 17.8446 5.05233 16.6668 5.64125C16.0043 5.96024 15.4399 6.47555 14.9001 6.96631C14.1885 7.57976 13.5505 8.26683 12.8634 8.9539C12.0536 9.76366 11.4156 10.647 10.9249 11.6776C9.50166 14.6713 7.21961 16.8552 4.39772 18.5483C4.10326 18.7446 3.8088 18.9409 3.53888 19.1127C3.4898 19.1127 3.46526 19.1863 3.39165 19.2599ZM11.3175 8.09507C11.2929 8.07053 11.2684 8.04599 11.2193 8.04599C11.0476 8.26683 10.8758 8.4386 10.7286 8.68398C10.0906 9.81274 9.45258 10.9415 8.86367 12.0703C8.20113 13.3217 7.31776 14.3523 6.21354 15.2602C5.69824 15.6774 5.18294 16.0945 4.66764 16.5607C4.47133 16.708 4.22595 16.8552 4.17687 17.2969C4.42225 17.1987 4.61856 17.1497 4.76579 17.0515C5.28109 16.6834 5.79639 16.2663 6.28716 15.8737C7.6613 14.7449 8.86367 13.4935 9.5262 11.7513C9.91881 10.7697 10.4341 9.81274 10.9003 8.85575C11.023 8.58583 11.1703 8.34045 11.3175 8.09507ZM17.133 15.1375C17.1576 15.1621 17.1821 15.1866 17.2067 15.2111C17.3784 15.0884 17.5747 14.9412 17.722 14.794C18.8998 13.3708 20.0531 11.9721 21.1573 10.4753C21.8444 9.5919 22.3351 8.56129 22.6296 7.48161C22.7277 7.18715 22.8504 6.86816 22.5805 6.59824C22.1879 6.84362 22.1879 6.84362 22.0652 7.16261C21.4518 8.90483 20.5684 10.4753 19.5378 11.9476C18.7771 13.0518 17.9428 14.0824 17.133 15.1375ZM3.53888 17.7877C2.85181 17.7877 2.4592 18.1312 2.38558 18.6956C3.04812 18.6219 3.19534 18.4747 3.53888 17.7877Z" fill="black"/>
</svg>
