<svg width="37" height="24" viewBox="0 0 37 24" fill="none" xmlns="http://www.w3.org/2000/svg">
<path d="M32.9639 3.65563H10.4829L10.4376 3.44036C10.2288 2.4692 9.69552 1.59869 8.92599 0.973012C8.15646 0.347339 7.19689 0.00404795 6.20622 0H1.46875C1.25598 0 1.05193 0.0847598 0.901476 0.235634C0.751026 0.386508 0.666504 0.591137 0.666504 0.804505C0.666504 1.01787 0.751026 1.2225 0.901476 1.37338C1.05193 1.52425 1.25598 1.60901 1.46875 1.60901H6.20622C6.8294 1.61158 7.433 1.82758 7.91701 2.22123C8.40103 2.61487 8.73641 3.16253 8.86758 3.77347L12.2309 19.7394C12.4605 20.8087 13.0476 21.7672 13.8948 22.456C14.742 23.1449 15.7985 23.5228 16.8892 23.527H29.6868C29.8995 23.527 30.1036 23.4423 30.254 23.2914C30.4045 23.1405 30.489 22.9359 30.489 22.7225C30.489 22.5092 30.4045 22.3045 30.254 22.1537C30.1036 22.0028 29.8995 21.918 29.6868 21.918H16.8892C16.166 21.9154 15.4654 21.6648 14.9037 21.208C14.3419 20.7511 13.9528 20.1154 13.8009 19.4063L13.6935 18.8964H28.0815C28.7091 18.8984 29.3268 18.7396 29.876 18.4349C30.4251 18.1301 30.8875 17.6897 31.2192 17.1554L36.1016 9.34057C36.4527 8.77857 36.6473 8.13255 36.6651 7.46963C36.683 6.8067 36.5236 6.15107 36.2033 5.57085C35.8831 4.99063 35.4138 4.50699 34.8441 4.17019C34.2744 3.83339 33.6252 3.65571 32.9639 3.65562V3.65563ZM34.7415 8.48579L29.8591 16.3006C29.6713 16.6035 29.4094 16.8531 29.0983 17.0258C28.7871 17.1985 28.4371 17.2886 28.0815 17.2874H13.3545L10.8219 5.26464H32.9639C33.3386 5.26473 33.7064 5.36543 34.0292 5.55628C34.3519 5.74713 34.6178 6.02117 34.7992 6.34992C34.9807 6.67868 35.071 7.05015 35.0608 7.42575C35.0507 7.80135 34.9404 8.16738 34.7415 8.48579H34.7415Z" fill="black"/>
</svg>
