<svg width="8" height="4" viewBox="0 0 8 4" fill="none" xmlns="http://www.w3.org/2000/svg">
<path d="M1.92226 3.59398C2.20784 3.59309 2.48497 3.4871 2.70972 3.29283C2.93446 3.09855 3.09396 2.82711 3.16292 2.52154H5.46771C5.54347 2.85662 5.72777 3.14957 5.98588 3.34518C6.24399 3.54078 6.55807 3.62553 6.86893 3.58344C7.17979 3.54136 7.46595 3.37535 7.67348 3.11671C7.88101 2.85807 7.99557 2.52466 7.99557 2.17932C7.99557 1.83398 7.88101 1.50057 7.67348 1.24193C7.46595 0.983287 7.17979 0.817279 6.86893 0.775195C6.55807 0.733112 6.24399 0.817859 5.98588 1.01346C5.72777 1.20907 5.54347 1.50202 5.46771 1.8371H3.16292C3.10442 1.5804 2.98169 1.34698 2.80872 1.16345C2.63574 0.979925 2.41949 0.853676 2.1846 0.799094C1.94971 0.744512 1.70564 0.763794 1.48021 0.854741C1.25478 0.945688 1.05706 1.10464 0.909579 1.31348C0.762101 1.52232 0.670803 1.77265 0.64609 2.03593C0.621377 2.29921 0.664245 2.56485 0.769806 2.80256C0.875368 3.04028 1.03938 3.24052 1.24314 3.38045C1.4469 3.52037 1.68221 3.59436 1.92226 3.59398ZM6.70834 1.4491C6.83932 1.4491 6.96736 1.49192 7.07627 1.57216C7.18518 1.6524 7.27006 1.76644 7.32018 1.89987C7.37031 2.03331 7.38342 2.18013 7.35787 2.32178C7.33232 2.46343 7.26924 2.59354 7.17663 2.69567C7.08401 2.79779 6.96601 2.86733 6.83754 2.89551C6.70908 2.92369 6.57592 2.90923 6.45491 2.85396C6.3339 2.79869 6.23047 2.70509 6.1577 2.58501C6.08493 2.46492 6.04609 2.32374 6.04609 2.17932C6.04625 1.98571 6.11608 1.80008 6.24024 1.66317C6.3644 1.52627 6.53275 1.44927 6.70834 1.4491ZM1.92226 1.4491C2.05324 1.4491 2.18128 1.49192 2.29019 1.57216C2.3991 1.6524 2.48398 1.76644 2.5341 1.89987C2.58423 2.0333 2.59734 2.18013 2.57179 2.32177C2.54624 2.46342 2.48317 2.59354 2.39055 2.69566C2.29793 2.79779 2.17993 2.86733 2.05147 2.89551C1.923 2.92369 1.78985 2.90923 1.66883 2.85396C1.54782 2.79869 1.44439 2.7051 1.37162 2.58501C1.29886 2.46493 1.26002 2.32374 1.26002 2.17932C1.2602 1.98571 1.33003 1.8001 1.45418 1.6632C1.57834 1.5263 1.74668 1.4493 1.92226 1.4491Z" fill="#191817"/>
</svg>
