<svg width="34" height="23" viewBox="0 0 34 23" fill="none" xmlns="http://www.w3.org/2000/svg">
<path d="M30.3001 4.1907H9.38714L9.34496 3.99044C9.15076 3.08702 8.65464 2.27722 7.93878 1.69519C7.22293 1.11315 6.33028 0.793805 5.40871 0.790039H1.00166C0.803733 0.790039 0.613911 0.868887 0.473955 1.00924C0.333998 1.14959 0.255371 1.33995 0.255371 1.53843C0.255371 1.73692 0.333998 1.92727 0.473955 2.06763C0.613911 2.20798 0.803733 2.28682 1.00166 2.28682H5.40871C5.98842 2.28922 6.54992 2.49015 7.00018 2.85634C7.45044 3.22253 7.76242 3.732 7.88445 4.30032L11.0132 19.1527C11.2268 20.1474 11.7729 21.039 12.5611 21.6798C13.3492 22.3206 14.332 22.6722 15.3466 22.6761H27.2516C27.4495 22.6761 27.6393 22.5973 27.7793 22.4569C27.9192 22.3166 27.9979 22.1262 27.9979 21.9277C27.9979 21.7293 27.9192 21.5389 27.7793 21.3986C27.6393 21.2582 27.4495 21.1794 27.2516 21.1794H15.3466C14.6738 21.1769 14.0221 20.9438 13.4995 20.5188C12.977 20.0938 12.615 19.5025 12.4737 18.8428L12.3738 18.3685H25.7582C26.3421 18.3704 26.9167 18.2226 27.4276 17.9391C27.9384 17.6557 28.3685 17.246 28.6771 16.7489L33.219 9.47913C33.5456 8.95633 33.7266 8.35537 33.7432 7.73868C33.7599 7.12199 33.6115 6.51209 33.3136 5.97234C33.0157 5.43259 32.5791 4.98268 32.0492 4.66937C31.5192 4.35606 30.9153 4.19078 30.3001 4.19069V4.1907ZM31.9538 8.68397L27.4119 15.9538C27.2372 16.2355 26.9935 16.4677 26.7041 16.6284C26.4147 16.789 26.0891 16.8728 25.7582 16.8717H12.0585L9.70242 5.68748H30.3001C30.6487 5.68757 30.9908 5.78125 31.2911 5.95879C31.5913 6.13632 31.8387 6.39125 32.0074 6.69707C32.1762 7.0029 32.2602 7.34846 32.2508 7.69786C32.2414 8.04727 32.1388 8.38776 31.9538 8.68397H31.9538Z" fill="#191817"/>
</svg>
