<svg width="182" height="55" viewBox="0 0 182 55" fill="none" xmlns="http://www.w3.org/2000/svg">
<path d="M0 32C0 14.3269 14.3269 0 32 0H154C169.188 0 181.5 12.3122 181.5 27.5C181.5 42.6878 169.188 55 154 55H4C1.79086 55 0 53.2091 0 51V32Z" fill="#2784A7"/>
<path d="M51.2871 24.12V35H49.4871V20.8H51.0071L59.6871 31.9V20.82H61.4871V35H59.8471L51.2871 24.12ZM69.042 35.2C68.002 35.2 67.082 34.9533 66.282 34.46C65.482 33.9667 64.8553 33.3067 64.402 32.48C63.9486 31.6533 63.722 30.7533 63.722 29.78C63.722 28.7933 63.9486 27.8933 64.402 27.08C64.8553 26.2667 65.482 25.6133 66.282 25.12C67.0953 24.6267 68.022 24.38 69.062 24.38C70.1153 24.38 71.0286 24.6333 71.802 25.14C72.5886 25.6333 73.1953 26.2867 73.622 27.1C74.062 27.9 74.282 28.7667 74.282 29.7C74.282 29.9933 74.2686 30.22 74.242 30.38H65.582C65.6353 31.06 65.822 31.6667 66.142 32.2C66.4753 32.72 66.902 33.1333 67.422 33.44C67.942 33.7333 68.502 33.88 69.102 33.88C69.742 33.88 70.342 33.72 70.902 33.4C71.4753 33.08 71.8686 32.66 72.082 32.14L73.602 32.56C73.2686 33.3333 72.6886 33.9667 71.862 34.46C71.0353 34.9533 70.0953 35.2 69.042 35.2ZM65.522 29.16H72.642C72.5886 28.48 72.3953 27.88 72.062 27.36C71.7286 26.84 71.302 26.4333 70.782 26.14C70.262 25.8467 69.6886 25.7 69.062 25.7C68.4486 25.7 67.882 25.8467 67.362 26.14C66.842 26.4333 66.4153 26.84 66.082 27.36C65.762 27.88 65.5753 28.48 65.522 29.16ZM76.6277 24.56L79.3877 28.4L79.5477 28.72L79.7277 28.4L82.4677 24.56H84.4277L80.5677 29.8L84.4477 35H82.4877L79.7277 31.18L79.5477 30.88L79.3877 31.18L76.6277 35H74.6677L78.5477 29.8L74.6877 24.56H76.6277ZM91.5016 34.48C91.2883 34.5733 90.9483 34.7067 90.4816 34.88C90.0283 35.0533 89.5216 35.14 88.9616 35.14C88.3216 35.14 87.7683 34.9667 87.3016 34.62C86.835 34.26 86.6016 33.7067 86.6016 32.96V25.94H85.1816V24.56H86.6016V21.08H88.3616V24.56H90.7016V25.94H88.3616V32.42C88.3883 32.7933 88.515 33.0733 88.7416 33.26C88.9683 33.4333 89.235 33.52 89.5416 33.52C89.8883 33.52 90.2083 33.46 90.5016 33.34C90.795 33.22 90.9883 33.1333 91.0816 33.08L91.5016 34.48Z" fill="white"/>
<path d="M107.921 32.3279C108.742 30.9153 109.946 29.6184 111.369 28.5531C112.819 27.4878 114.46 26.6541 116.157 26.0288C118.099 25.3109 121.52 24.5537 123.517 24.2295L121.383 22.1845C121.054 21.1193 122.423 20.2856 123.517 20.8645L133.093 25.9594C133.969 26.4225 133.969 27.5341 133.093 27.9973L123.517 33.0922C122.423 33.6711 121.054 32.8374 121.383 31.7721L123.517 28.5531C122.094 28.5994 119.074 29.3779 117.706 29.6326C114.915 30.1884 112.49 31.7721 110.767 33.7406L110.739 33.7638C110.274 34.2964 109.399 34.4817 108.687 34.1806C107.866 33.8564 107.511 33.0227 107.921 32.3279Z" fill="white" stroke="black"/>
</svg>
