<svg width="182" height="55" viewBox="0 0 182 55" fill="none" xmlns="http://www.w3.org/2000/svg">
<path d="M0 27.5C0 12.3122 12.3122 0 27.5 0H149.5C167.173 0 181.5 14.3269 181.5 32V51C181.5 53.2091 179.709 55 177.5 55H27.5C12.3122 55 0 42.6878 0 27.5Z" fill="#2784A7"/>
<path d="M72.0788 31.7617C71.258 30.5148 70.0541 29.37 68.6313 28.4297C67.1812 27.4894 65.5395 26.7535 63.8431 26.2016C61.9005 25.5679 58.4804 24.8995 56.483 24.6133L58.6172 22.8082C58.9455 21.8679 57.5775 21.132 56.483 21.643L46.9067 26.1402C46.0311 26.5491 46.0311 27.5303 46.9067 27.9391L56.483 32.4363C57.5775 32.9474 58.9455 32.2115 58.6172 31.2711L56.483 28.4297C57.9058 28.4706 60.9263 29.1577 62.2943 29.3826C65.0851 29.8732 67.5095 31.2711 69.2333 33.0087L69.2606 33.0291C69.7258 33.4993 70.6013 33.6628 71.3127 33.3971C72.1335 33.1109 72.4892 32.375 72.0788 31.7617Z" fill="white" stroke="black"/>
<path d="M101.176 31.34C101.176 32.0733 100.99 32.7133 100.616 33.26C100.243 33.8067 99.7362 34.2333 99.0962 34.54C98.4695 34.8467 97.7762 35 97.0162 35H90.2762V20.8H97.3362C98.0028 20.8 98.5762 20.98 99.0562 21.34C99.5495 21.6867 99.9228 22.14 100.176 22.7C100.443 23.2467 100.576 23.82 100.576 24.42C100.576 25.1133 100.396 25.7667 100.036 26.38C99.6895 26.98 99.1895 27.4267 98.5362 27.72C99.3495 27.96 99.9895 28.4067 100.456 29.06C100.936 29.7 101.176 30.46 101.176 31.34ZM92.0762 22.36V27.1H96.5962C97.2228 27.1 97.7428 26.8733 98.1562 26.42C98.5828 25.9533 98.7962 25.3933 98.7962 24.74C98.7962 24.0733 98.5962 23.5133 98.1962 23.06C97.8095 22.5933 97.3162 22.36 96.7162 22.36H92.0762ZM99.3562 31.02C99.3562 30.58 99.2562 30.1733 99.0562 29.8C98.8695 29.4267 98.6095 29.1267 98.2762 28.9C97.9562 28.6733 97.5828 28.56 97.1562 28.56H92.0762V33.44H97.0162C97.4562 33.44 97.8495 33.3267 98.1962 33.1C98.5562 32.8733 98.8362 32.58 99.0362 32.22C99.2495 31.8467 99.3562 31.4467 99.3562 31.02ZM102.594 31.98C102.594 31.3133 102.781 30.74 103.154 30.26C103.541 29.7667 104.067 29.3867 104.734 29.12C105.401 28.8533 106.174 28.72 107.054 28.72C107.521 28.72 108.014 28.76 108.534 28.84C109.054 28.9067 109.514 29.0133 109.914 29.16V28.4C109.914 27.6 109.674 26.9733 109.194 26.52C108.714 26.0533 108.034 25.82 107.154 25.82C106.581 25.82 106.027 25.9267 105.494 26.14C104.974 26.34 104.421 26.6333 103.834 27.02L103.194 25.78C103.874 25.3133 104.554 24.9667 105.234 24.74C105.914 24.5 106.621 24.38 107.354 24.38C108.687 24.38 109.741 24.7533 110.514 25.5C111.287 26.2333 111.674 27.26 111.674 28.58V33C111.674 33.4133 111.861 33.6267 112.234 33.64V35C112.061 35.0267 111.907 35.0467 111.774 35.06C111.654 35.0733 111.554 35.08 111.474 35.08C111.061 35.08 110.747 34.9667 110.534 34.74C110.334 34.5133 110.221 34.2733 110.194 34.02L110.154 33.36C109.701 33.9467 109.107 34.4 108.374 34.72C107.641 35.04 106.914 35.2 106.194 35.2C105.501 35.2 104.881 35.06 104.334 34.78C103.787 34.4867 103.361 34.1 103.054 33.62C102.747 33.1267 102.594 32.58 102.594 31.98ZM109.394 32.72C109.554 32.5333 109.681 32.3467 109.774 32.16C109.867 31.96 109.914 31.7933 109.914 31.66V30.36C109.061 30.0267 108.181 29.86 107.274 29.86C106.381 29.86 105.654 30.04 105.094 30.4C104.547 30.7467 104.274 31.2267 104.274 31.84C104.274 32.1733 104.361 32.5 104.534 32.82C104.721 33.1267 104.987 33.38 105.334 33.58C105.694 33.78 106.134 33.88 106.654 33.88C107.201 33.88 107.721 33.7733 108.214 33.56C108.707 33.3333 109.101 33.0533 109.394 32.72ZM119.108 35.2C118.068 35.2 117.148 34.9533 116.348 34.46C115.548 33.9533 114.922 33.2867 114.468 32.46C114.015 31.6333 113.788 30.7333 113.788 29.76C113.788 28.7733 114.008 27.8733 114.448 27.06C114.888 26.2467 115.508 25.6 116.308 25.12C117.108 24.6267 118.035 24.38 119.088 24.38C120.115 24.38 121.008 24.6133 121.768 25.08C122.542 25.5333 123.115 26.1467 123.488 26.92L121.768 27.46C121.502 26.9667 121.128 26.5867 120.648 26.32C120.168 26.04 119.635 25.9 119.048 25.9C118.408 25.9 117.822 26.0667 117.288 26.4C116.768 26.7333 116.355 27.1933 116.048 27.78C115.742 28.3533 115.588 29.0133 115.588 29.76C115.588 30.4933 115.742 31.16 116.048 31.76C116.368 32.3467 116.788 32.8133 117.308 33.16C117.842 33.5067 118.428 33.68 119.068 33.68C119.482 33.68 119.875 33.6067 120.248 33.46C120.635 33.3133 120.968 33.12 121.248 32.88C121.542 32.6267 121.742 32.3533 121.848 32.06L123.568 32.58C123.262 33.34 122.702 33.9667 121.888 34.46C121.088 34.9533 120.162 35.2 119.108 35.2ZM132.923 35L129.303 29.92L127.323 31.78V35H125.563V20.4H127.323V29.94L132.723 24.58H134.623L130.463 28.9L134.823 35H132.923Z" fill="white"/>
</svg>
