<svg width="182" height="55" viewBox="0 0 182 55" fill="none" xmlns="http://www.w3.org/2000/svg">
<path d="M0.5 32C0.5 14.3269 14.8269 0 32.5 0H154.5C169.688 0 182 12.3122 182 27.5C182 42.6878 169.688 55 154.5 55H4.5C2.29086 55 0.5 53.2091 0.5 51V32Z" fill="#2784A7"/>
<path d="M51.7871 24.12V35H49.9871V20.8H51.5071L60.1871 31.9V20.82H61.9871V35H60.3471L51.7871 24.12ZM69.542 35.2C68.502 35.2 67.582 34.9533 66.782 34.46C65.982 33.9667 65.3553 33.3067 64.902 32.48C64.4486 31.6533 64.222 30.7533 64.222 29.78C64.222 28.7933 64.4486 27.8933 64.902 27.08C65.3553 26.2667 65.982 25.6133 66.782 25.12C67.5953 24.6267 68.522 24.38 69.562 24.38C70.6153 24.38 71.5286 24.6333 72.302 25.14C73.0886 25.6333 73.6953 26.2867 74.122 27.1C74.562 27.9 74.782 28.7667 74.782 29.7C74.782 29.9933 74.7686 30.22 74.742 30.38H66.082C66.1353 31.06 66.322 31.6667 66.642 32.2C66.9753 32.72 67.402 33.1333 67.922 33.44C68.442 33.7333 69.002 33.88 69.602 33.88C70.242 33.88 70.842 33.72 71.402 33.4C71.9753 33.08 72.3686 32.66 72.582 32.14L74.102 32.56C73.7686 33.3333 73.1886 33.9667 72.362 34.46C71.5353 34.9533 70.5953 35.2 69.542 35.2ZM66.022 29.16H73.142C73.0886 28.48 72.8953 27.88 72.562 27.36C72.2286 26.84 71.802 26.4333 71.282 26.14C70.762 25.8467 70.1886 25.7 69.562 25.7C68.9486 25.7 68.382 25.8467 67.862 26.14C67.342 26.4333 66.9153 26.84 66.582 27.36C66.262 27.88 66.0753 28.48 66.022 29.16ZM77.1277 24.56L79.8877 28.4L80.0477 28.72L80.2277 28.4L82.9677 24.56H84.9277L81.0677 29.8L84.9477 35H82.9877L80.2277 31.18L80.0477 30.88L79.8877 31.18L77.1277 35H75.1677L79.0477 29.8L75.1877 24.56H77.1277ZM92.0016 34.48C91.7883 34.5733 91.4483 34.7067 90.9816 34.88C90.5283 35.0533 90.0216 35.14 89.4616 35.14C88.8216 35.14 88.2683 34.9667 87.8016 34.62C87.335 34.26 87.1016 33.7067 87.1016 32.96V25.94H85.6816V24.56H87.1016V21.08H88.8616V24.56H91.2016V25.94H88.8616V32.42C88.8883 32.7933 89.015 33.0733 89.2416 33.26C89.4683 33.4333 89.735 33.52 90.0416 33.52C90.3883 33.52 90.7083 33.46 91.0016 33.34C91.295 33.22 91.4883 33.1333 91.5816 33.08L92.0016 34.48Z" fill="white"/>
<path d="M108.421 32.3279C109.242 30.9153 110.446 29.6184 111.869 28.5531C113.319 27.4878 114.96 26.6541 116.657 26.0288C118.599 25.3109 122.02 24.5537 124.017 24.2295L121.883 22.1845C121.554 21.1193 122.923 20.2856 124.017 20.8645L133.593 25.9594C134.469 26.4225 134.469 27.5341 133.593 27.9973L124.017 33.0922C122.923 33.6711 121.554 32.8374 121.883 31.7721L124.017 28.5531C122.594 28.5994 119.574 29.3779 118.206 29.6326C115.415 30.1884 112.99 31.7721 111.267 33.7406L111.239 33.7638C110.774 34.2964 109.899 34.4817 109.187 34.1806C108.366 33.8564 108.011 33.0227 108.421 32.3279Z" fill="white" stroke="black"/>
</svg>
