<svg width="33" height="24" viewBox="0 0 33 24" fill="none" xmlns="http://www.w3.org/2000/svg">
<path fill-rule="evenodd" clip-rule="evenodd" d="M0.37851 2.48633C0.37851 1.6579 1.05008 0.986328 1.87851 0.986328H29.5916C30.4201 0.986328 31.0916 1.6579 31.0916 2.48633C31.0916 3.31476 30.4201 3.98633 29.5916 3.98633H1.87851C1.05008 3.98633 0.37851 3.31476 0.37851 2.48633ZM1.87851 11.2504C1.87851 10.4219 2.55008 9.75036 3.37851 9.75036H20.9067C21.7352 9.75036 22.4067 10.4219 22.4067 11.2504C22.4067 12.0788 21.7352 12.7504 20.9067 12.7504H3.37851C2.55008 12.7504 1.87851 12.0788 1.87851 11.2504ZM3.37851 20.0144C2.55008 20.0144 1.87851 20.686 1.87851 21.5144C1.87851 22.3428 2.55008 23.0144 3.37851 23.0144H31.1709C31.9993 23.0144 32.6709 22.3428 32.6709 21.5144C32.6709 20.686 31.9993 20.0144 31.1709 20.0144H3.37851Z" fill="black"/>
</svg>
