<svg width="33" height="24" viewBox="0 0 33 24" fill="none" xmlns="http://www.w3.org/2000/svg">
<path fill-rule="evenodd" clip-rule="evenodd" d="M0.378662 2.48633C0.378662 1.6579 1.05023 0.986328 1.87866 0.986328H29.5918C30.4202 0.986328 31.0918 1.6579 31.0918 2.48633C31.0918 3.31476 30.4202 3.98633 29.5918 3.98633H1.87866C1.05023 3.98633 0.378662 3.31476 0.378662 2.48633ZM1.87866 11.2504C1.87866 10.4219 2.55024 9.75036 3.37866 9.75036H20.9069C21.7353 9.75036 22.4069 10.4219 22.4069 11.2504C22.4069 12.0788 21.7353 12.7504 20.9069 12.7504H3.37866C2.55024 12.7504 1.87866 12.0788 1.87866 11.2504ZM3.37866 20.0144C2.55024 20.0144 1.87866 20.686 1.87866 21.5144C1.87866 22.3428 2.55024 23.0144 3.37866 23.0144H31.171C31.9994 23.0144 32.671 22.3428 32.671 21.5144C32.671 20.686 31.9994 20.0144 31.171 20.0144H3.37866Z" fill="black"/>
</svg>
