<svg width="33" height="24" viewBox="0 0 33 24" fill="none" xmlns="http://www.w3.org/2000/svg">
<path fill-rule="evenodd" clip-rule="evenodd" d="M0.37854 2.48633C0.37854 1.6579 1.05011 0.986328 1.87854 0.986328H29.5917C30.4201 0.986328 31.0917 1.6579 31.0917 2.48633C31.0917 3.31476 30.4201 3.98633 29.5917 3.98633H1.87854C1.05011 3.98633 0.37854 3.31476 0.37854 2.48633ZM1.87854 11.2504C1.87854 10.4219 2.55011 9.75036 3.37854 9.75036H20.9068C21.7352 9.75036 22.4068 10.4219 22.4068 11.2504C22.4068 12.0788 21.7352 12.7504 20.9068 12.7504H3.37854C2.55011 12.7504 1.87854 12.0788 1.87854 11.2504ZM3.37854 20.0144C2.55011 20.0144 1.87854 20.686 1.87854 21.5144C1.87854 22.3428 2.55011 23.0144 3.37854 23.0144H31.1709C31.9993 23.0144 32.6709 22.3428 32.6709 21.5144C32.6709 20.686 31.9993 20.0144 31.1709 20.0144H3.37854Z" fill="black"/>
</svg>
