<svg width="40" height="27" viewBox="0 0 40 27" fill="none" xmlns="http://www.w3.org/2000/svg">
<path d="M35.886 4.28447H10.9072L10.8568 4.04528C10.6248 2.96621 10.0322 1.99897 9.17721 1.30378C8.32218 0.608589 7.25599 0.227154 6.15524 0.222656H0.891383C0.654974 0.222656 0.428247 0.316834 0.26108 0.484471C0.0939134 0.652109 0 0.879475 0 1.11655C0 1.35363 0.0939134 1.58099 0.26108 1.74863C0.428247 1.91627 0.654974 2.01044 0.891383 2.01044H6.15524C6.84766 2.0133 7.51833 2.2533 8.05612 2.69069C8.59392 3.12807 8.96656 3.73658 9.11231 4.4154L12.8493 22.1554C13.1045 23.3434 13.7568 24.4084 14.6981 25.1738C15.6395 25.9392 16.8134 26.3591 18.0253 26.3638H32.2447C32.4812 26.3638 32.7079 26.2696 32.875 26.102C33.0422 25.9344 33.1361 25.707 33.1361 25.4699C33.1361 25.2328 33.0422 25.0055 32.875 24.8378C32.7079 24.6702 32.4812 24.576 32.2447 24.576H18.0253C17.2217 24.5731 16.4432 24.2947 15.8191 23.7871C15.1949 23.2795 14.7626 22.5731 14.5938 21.7852L14.4744 21.2187H30.4611C31.1584 21.2209 31.8448 21.0444 32.455 20.7058C33.0651 20.3673 33.5789 19.8779 33.9474 19.2842L39.3723 10.6011C39.7624 9.97663 39.9786 9.25882 39.9985 8.52224C40.0184 7.78566 39.8412 7.05718 39.4854 6.41249C39.1296 5.7678 38.6081 5.23042 37.9751 4.8562C37.3421 4.48198 36.6208 4.28456 35.886 4.28446V4.28447ZM37.8612 9.65132L32.4362 18.3345C32.2276 18.671 31.9365 18.9483 31.5908 19.1402C31.2451 19.3321 30.8562 19.4322 30.4611 19.4309H14.0978L11.2837 6.07225H35.886C36.3023 6.07235 36.711 6.18424 37.0696 6.3963C37.4282 6.60836 37.7237 6.91284 37.9253 7.27813C38.1268 7.64341 38.2272 8.05615 38.2159 8.47349C38.2047 8.89082 38.0821 9.29752 37.8611 9.65132H37.8612Z" fill="black"/>
</svg>
