<svg width="15" height="10" viewBox="0 0 15 10" fill="none" xmlns="http://www.w3.org/2000/svg">
<path d="M13.4573 1.68365H4.62307L4.60525 1.60081C4.52322 1.22707 4.31364 0.892076 4.01125 0.651299C3.70885 0.410522 3.33177 0.278413 2.94247 0.276855H1.08082C0.997207 0.276855 0.917021 0.309474 0.8579 0.367534C0.798778 0.425595 0.765564 0.504342 0.765564 0.586452C0.765564 0.668563 0.798778 0.74731 0.8579 0.80537C0.917021 0.863431 0.997207 0.896049 1.08082 0.896049H2.94247C3.18736 0.897038 3.42455 0.980162 3.61475 1.13165C3.80495 1.28313 3.93675 1.49389 3.98829 1.729L5.30995 7.87316C5.4002 8.28465 5.63089 8.6535 5.96382 8.91859C6.29675 9.18368 6.71191 9.3291 7.14052 9.33075H12.1695C12.2531 9.33075 12.3333 9.29813 12.3924 9.24007C12.4515 9.18201 12.4847 9.10326 12.4847 9.02115C12.4847 8.93904 12.4515 8.86029 12.3924 8.80223C12.3333 8.74417 12.2531 8.71155 12.1695 8.71155H7.14052C6.85631 8.71053 6.581 8.61412 6.36026 8.43831C6.13951 8.26249 5.98661 8.01785 5.92691 7.74497L5.8847 7.54875H11.5387C11.7853 7.54953 12.028 7.48839 12.2438 7.37113C12.4596 7.25387 12.6413 7.08438 12.7717 6.87876L14.6903 3.87138C14.8282 3.65511 14.9047 3.4065 14.9117 3.15139C14.9188 2.89627 14.8561 2.64397 14.7303 2.42068C14.6044 2.19739 14.42 2.01128 14.1961 1.88167C13.9723 1.75206 13.7172 1.68368 13.4573 1.68365V1.68365ZM14.1558 3.54244L12.2372 6.54982C12.1634 6.66636 12.0605 6.76242 11.9382 6.82889C11.816 6.89535 11.6784 6.93001 11.5387 6.92956H5.75151L4.75625 2.30284H13.4573C13.6045 2.30288 13.7491 2.34163 13.8759 2.41507C14.0027 2.48852 14.1072 2.59398 14.1785 2.72049C14.2498 2.847 14.2853 2.98996 14.2813 3.1345C14.2773 3.27904 14.234 3.4199 14.1558 3.54244H14.1558Z" fill="#191817"/>
</svg>
