<svg width="15" height="10" viewBox="0 0 15 10" fill="none" xmlns="http://www.w3.org/2000/svg">
<path d="M13.4573 1.68316H4.62313L4.60531 1.60032C4.52328 1.22659 4.3137 0.891588 4.01131 0.650811C3.70891 0.410033 3.33183 0.277925 2.94253 0.276367H1.08088C0.997268 0.276367 0.917082 0.308985 0.857961 0.367046C0.798839 0.425107 0.765625 0.503854 0.765625 0.585964C0.765625 0.668074 0.798839 0.746821 0.857961 0.804882C0.917082 0.862943 0.997268 0.895561 1.08088 0.895561H2.94253C3.18742 0.89655 3.42461 0.979674 3.61482 1.13116C3.80502 1.28265 3.93681 1.4934 3.98835 1.72851L5.31002 7.87268C5.40026 8.28416 5.63096 8.65301 5.96388 8.9181C6.29681 9.18319 6.71197 9.32861 7.14058 9.33026H12.1695C12.2532 9.33026 12.3333 9.29764 12.3925 9.23958C12.4516 9.18152 12.4848 9.10277 12.4848 9.02066C12.4848 8.93855 12.4516 8.8598 12.3925 8.80174C12.3333 8.74368 12.2532 8.71106 12.1695 8.71106H7.14058C6.85637 8.71004 6.58106 8.61363 6.36032 8.43782C6.13958 8.26201 5.98667 8.01737 5.92698 7.74448L5.88476 7.54826H11.5387C11.7854 7.54904 12.0281 7.4879 12.2439 7.37064C12.4597 7.25338 12.6414 7.08389 12.7717 6.87828L14.6903 3.87089C14.8283 3.65462 14.9048 3.40601 14.9118 3.1509C14.9188 2.89579 14.8562 2.64348 14.7303 2.42019C14.6045 2.19691 14.4201 2.01079 14.1962 1.88118C13.9723 1.75157 13.7172 1.68319 13.4573 1.68316V1.68316ZM14.1559 3.54195L12.2373 6.54933C12.1635 6.66587 12.0605 6.76194 11.9383 6.8284C11.816 6.89486 11.6785 6.92952 11.5387 6.92907H5.75157L4.75631 2.30235H13.4573C13.6046 2.30239 13.7491 2.34114 13.8759 2.41459C14.0028 2.48803 14.1073 2.59349 14.1786 2.72C14.2499 2.84652 14.2854 2.98947 14.2814 3.13401C14.2774 3.27855 14.234 3.41941 14.1559 3.54195H14.1559Z" fill="#191817"/>
</svg>
