<svg width="19" height="7" viewBox="0 0 19 7" fill="none" xmlns="http://www.w3.org/2000/svg">
<path d="M3.87676 6.99992C4.56344 6.99797 5.22983 6.76619 5.77025 6.34133C6.31067 5.91648 6.6942 5.32286 6.86001 4.65461H12.402C12.5842 5.3874 13.0274 6.02805 13.648 6.45581C14.2687 6.88358 15.0239 7.06891 15.7714 6.97688C16.5189 6.88485 17.2069 6.52181 17.706 5.95619C18.205 5.39057 18.4804 4.66144 18.4804 3.90622C18.4804 3.15101 18.205 2.42188 17.706 1.85626C17.2069 1.29064 16.5189 0.927597 15.7714 0.835565C15.0239 0.743533 14.2687 0.928866 13.648 1.35663C13.0274 1.7844 12.5842 2.42504 12.402 3.15783H6.86001C6.71934 2.59644 6.42423 2.08599 6.0083 1.68464C5.59238 1.28329 5.07238 1.00719 4.50757 0.887829C3.94277 0.768465 3.35589 0.810632 2.81382 1.00952C2.27176 1.20841 1.79632 1.55603 1.4417 2.01274C1.08707 2.46945 0.867541 3.01688 0.808118 3.59264C0.748695 4.1684 0.851772 4.74932 1.1056 5.26919C1.35943 5.78905 1.7538 6.22694 2.24376 6.53295C2.73372 6.83895 3.29955 7.00075 3.87676 6.99992ZM15.3852 2.30931C15.7002 2.30931 16.0081 2.40297 16.2699 2.57844C16.5318 2.75391 16.7359 3.00331 16.8564 3.29511C16.977 3.58691 17.0085 3.90799 16.9471 4.21776C16.8856 4.52754 16.7339 4.81208 16.5112 5.03541C16.2885 5.25874 16.0048 5.41083 15.6959 5.47245C15.387 5.53407 15.0668 5.50245 14.7758 5.38158C14.4849 5.26071 14.2361 5.05603 14.0612 4.79342C13.8862 4.53081 13.7928 4.22206 13.7928 3.90622C13.7932 3.48281 13.9611 3.07686 14.2596 2.77747C14.5582 2.47807 14.963 2.3097 15.3852 2.30931ZM3.87676 2.30931C4.19171 2.30931 4.49959 2.40296 4.76147 2.57843C5.02334 2.7539 5.22745 3.0033 5.34798 3.2951C5.46851 3.5869 5.50005 3.90798 5.4386 4.21776C5.37716 4.52753 5.2255 4.81207 5.00279 5.03541C4.78009 5.25874 4.49635 5.41083 4.18744 5.47245C3.87854 5.53407 3.55836 5.50244 3.26738 5.38158C2.9764 5.26071 2.7277 5.05603 2.55272 4.79342C2.37774 4.53081 2.28434 4.22206 2.28434 3.90622C2.28478 3.48283 2.45269 3.07691 2.75123 2.77752C3.04977 2.47814 3.45455 2.30975 3.87676 2.30931Z" fill="#191817"/>
</svg>
