<svg width="20" height="8" viewBox="0 0 20 8" fill="none" xmlns="http://www.w3.org/2000/svg">
<path d="M3.57791 7.39938C4.31608 7.39728 5.03243 7.14812 5.61337 6.69141C6.19431 6.2347 6.60659 5.59658 6.78483 4.87823H12.7424C12.9382 5.66596 13.4146 6.35464 14.0818 6.81448C14.749 7.27431 15.5608 7.47354 16.3643 7.37461C17.1679 7.27568 17.9076 6.88542 18.444 6.27739C18.9804 5.66936 19.2765 4.88556 19.2765 4.07372C19.2765 3.26189 18.9804 2.47809 18.444 1.87006C17.9076 1.26203 17.1679 0.871773 16.3643 0.772841C15.5608 0.673909 14.749 0.873138 14.0818 1.33298C13.4146 1.79281 12.9382 2.48149 12.7424 3.26922H6.78483C6.63362 2.66575 6.31638 2.11701 5.86927 1.68557C5.42216 1.25413 4.86317 0.957338 4.25602 0.829024C3.64887 0.70071 3.01799 0.746039 2.43528 0.959841C1.85257 1.17364 1.34148 1.54732 0.960275 2.03827C0.579066 2.52923 0.343073 3.11771 0.279194 3.73664C0.215315 4.35556 0.326121 4.98004 0.598982 5.53888C0.871844 6.09772 1.29578 6.56844 1.82247 6.89739C2.34917 7.22634 2.95742 7.40027 3.57791 7.39938ZM15.9492 2.35708C16.2878 2.35708 16.6188 2.45776 16.9003 2.64639C17.1818 2.83501 17.4012 3.10312 17.5308 3.41679C17.6603 3.73047 17.6942 4.07563 17.6282 4.40863C17.5621 4.74162 17.3991 5.0475 17.1597 5.28758C16.9203 5.52765 16.6153 5.69115 16.2832 5.75738C15.9511 5.82362 15.607 5.78963 15.2942 5.6597C14.9814 5.52977 14.714 5.30974 14.5259 5.02744C14.3378 4.74514 14.2374 4.41324 14.2374 4.07372C14.2378 3.61857 14.4183 3.18218 14.7393 2.86034C15.0602 2.5385 15.4954 2.3575 15.9492 2.35708ZM3.57791 2.35708C3.91648 2.35708 4.24744 2.45776 4.52895 2.64638C4.81046 2.83501 5.02987 3.10311 5.15944 3.41678C5.289 3.73046 5.32291 4.07562 5.25686 4.40862C5.19081 4.74161 5.02777 5.04749 4.78837 5.28757C4.54897 5.52765 4.24395 5.69114 3.91189 5.75738C3.57983 5.82362 3.23564 5.78963 2.92284 5.6597C2.61005 5.52977 2.3427 5.30975 2.1546 5.02744C1.9665 4.74514 1.8661 4.41325 1.8661 4.07372C1.86657 3.61859 2.04707 3.18223 2.368 2.8604C2.68892 2.53857 3.12405 2.35756 3.57791 2.35708Z" fill="black"/>
</svg>
