<svg width="8" height="4" viewBox="0 0 8 4" fill="none" xmlns="http://www.w3.org/2000/svg">
<path d="M1.9222 3.59447C2.20777 3.59358 2.48491 3.48759 2.70966 3.29331C2.9344 3.09904 3.0939 2.8276 3.16286 2.52203H5.46765C5.54341 2.85711 5.72771 3.15006 5.98582 3.34566C6.24393 3.54127 6.55801 3.62601 6.86887 3.58393C7.17973 3.54185 7.46589 3.37584 7.67342 3.1172C7.88095 2.85856 7.99551 2.52515 7.99551 2.17981C7.99551 1.83447 7.88095 1.50106 7.67342 1.24242C7.46589 0.983775 7.17973 0.817767 6.86887 0.775684C6.55801 0.7336 6.24393 0.818348 5.98582 1.01395C5.72771 1.20956 5.54341 1.50251 5.46765 1.83759H3.16286C3.10436 1.58088 2.98163 1.34747 2.80866 1.16394C2.63568 0.980414 2.41943 0.854164 2.18454 0.799583C1.94965 0.745001 1.70558 0.764282 1.48015 0.855229C1.25472 0.946176 1.057 1.10513 0.909518 1.31397C0.76204 1.52281 0.670742 1.77314 0.646029 2.03642C0.621316 2.2997 0.664184 2.56533 0.769745 2.80305C0.875307 3.04077 1.03932 3.24101 1.24308 3.38093C1.44684 3.52086 1.68215 3.59485 1.9222 3.59447ZM6.70828 1.44958C6.83926 1.44958 6.9673 1.49241 7.07621 1.57265C7.18512 1.65289 7.27 1.76693 7.32012 1.90036C7.37025 2.03379 7.38336 2.18062 7.35781 2.32227C7.33226 2.46392 7.26918 2.59403 7.17656 2.69615C7.08395 2.79828 6.96594 2.86782 6.83748 2.896C6.70902 2.92417 6.57586 2.90972 6.45485 2.85445C6.33384 2.79918 6.23041 2.70558 6.15764 2.5855C6.08487 2.46541 6.04603 2.32423 6.04603 2.17981C6.04619 1.9862 6.11602 1.80056 6.24018 1.66366C6.36434 1.52675 6.53269 1.44976 6.70828 1.44958ZM1.9222 1.44958C2.05318 1.44958 2.18122 1.49241 2.29013 1.57265C2.39903 1.65288 2.48392 1.76693 2.53404 1.90036C2.58417 2.03379 2.59728 2.18061 2.57173 2.32226C2.54618 2.46391 2.48311 2.59403 2.39049 2.69615C2.29787 2.79828 2.17987 2.86782 2.05141 2.896C1.92294 2.92418 1.78978 2.90971 1.66877 2.85445C1.54776 2.79918 1.44433 2.70558 1.37156 2.5855C1.29879 2.46541 1.25995 2.32423 1.25995 2.17981C1.26014 1.9862 1.32997 1.80059 1.45412 1.66369C1.57828 1.52679 1.74662 1.44979 1.9222 1.44958Z" fill="#191817"/>
</svg>
