<svg width="34" height="23" viewBox="0 0 34 23" fill="none" xmlns="http://www.w3.org/2000/svg">
<path d="M30.3002 4.1907H9.38726L9.34508 3.99044C9.15088 3.08702 8.65476 2.27722 7.93891 1.69519C7.22305 1.11315 6.33041 0.793805 5.40883 0.790039H1.00178C0.803855 0.790039 0.614033 0.868887 0.474077 1.00924C0.33412 1.14959 0.255493 1.33995 0.255493 1.53843C0.255493 1.73692 0.33412 1.92727 0.474077 2.06763C0.614033 2.20798 0.803855 2.28682 1.00178 2.28682H5.40883C5.98854 2.28922 6.55005 2.49015 7.0003 2.85634C7.45056 3.22253 7.76254 3.732 7.88457 4.30032L11.0133 19.1527C11.2269 20.1474 11.7731 21.039 12.5612 21.6798C13.3493 22.3206 14.3321 22.6722 15.3467 22.6761H27.2517C27.4496 22.6761 27.6394 22.5973 27.7794 22.4569C27.9193 22.3166 27.998 22.1262 27.998 21.9277C27.998 21.7293 27.9193 21.5389 27.7794 21.3986C27.6394 21.2582 27.4496 21.1794 27.2517 21.1794H15.3467C14.6739 21.1769 14.0222 20.9438 13.4997 20.5188C12.9771 20.0938 12.6151 19.5025 12.4738 18.8428L12.3739 18.3685H25.7584C26.3422 18.3704 26.9168 18.2226 27.4277 17.9391C27.9385 17.6557 28.3687 17.246 28.6772 16.7489L33.2191 9.47913C33.5457 8.95633 33.7267 8.35537 33.7433 7.73868C33.76 7.12199 33.6116 6.51209 33.3137 5.97234C33.0158 5.43259 32.5792 4.98268 32.0493 4.66937C31.5194 4.35606 30.9154 4.19078 30.3002 4.19069V4.1907ZM31.9539 8.68397L27.412 15.9538C27.2373 16.2355 26.9936 16.4677 26.7042 16.6284C26.4148 16.789 26.0892 16.8728 25.7584 16.8717H12.0586L9.70254 5.68748H30.3002C30.6488 5.68757 30.991 5.78125 31.2912 5.95879C31.5914 6.13632 31.8388 6.39125 32.0076 6.69707C32.1763 7.0029 32.2604 7.34846 32.2509 7.69786C32.2415 8.04727 32.1389 8.38776 31.9539 8.68397H31.9539Z" fill="#191817"/>
</svg>
