<svg width="25" height="27" viewBox="0 0 25 27" fill="none" xmlns="http://www.w3.org/2000/svg">
<path d="M24.9009 10.2099C24.8929 10.9803 24.8809 11.7508 24.8569 12.5173C24.8569 12.5372 24.8569 12.5572 24.8569 12.5771C24.833 13.3556 24.797 14.126 24.7451 14.8805C24.4694 19.1001 23.7742 22.7568 22.164 24.0342C19.0874 27.1081 6.93299 27.2757 3.68862 24.0342C-0.462743 21.0801 0.512167 -0.00170258 0.512167 0.0342256C0.671988 2.46137 5.97806 3.76676 12.5267 3.77874C12.5627 3.77874 12.5987 3.77874 12.6346 3.77874H12.6706C13.5296 3.78273 14.3887 3.75878 15.2277 3.70688C15.2357 3.70688 15.2437 3.70688 15.2557 3.70688C20.6017 3.40349 24.6252 2.13802 24.7611 0.0342256C24.7611 0.0342256 24.7651 0.146002 24.769 0.265762V0.269755C24.773 0.952389 24.789 1.72684 24.809 2.57315C24.809 2.59311 24.809 2.61307 24.809 2.63303C24.825 3.35558 24.845 4.13003 24.8609 4.94041C24.8809 5.90249 24.8969 6.91247 24.9049 7.94241C24.9049 8.68892 24.9049 9.45139 24.9009 10.2099Z" fill="#853E3E"/>
</svg>
